<?xml version="1.0" encoding="UTF-8"?>
<svg width="310px" height="280px" viewBox="0 0 310 280" version="1.1" xmlns="http://www.w3.org/2000/svg" xmlns:xlink="http://www.w3.org/1999/xlink">
    <!-- Generator: Sketch 45.1 (43504) - http://www.bohemiancoding.com/sketch -->
    <title>Group 24</title>
    <desc>Created with Sketch.</desc>
    <defs></defs>
    <g id="Page-5" stroke="none" stroke-width="1" fill="none" fill-rule="evenodd">
        <g id="Group-24" transform="translate(2.000000, 0.000000)">
            <path d="M100.765625,13.828125 C100.953126,14.2031269 101.023438,14.6406225 100.976562,15.140625 C100.929687,15.6406275 100.796876,16.0624983 100.578125,16.40625 L77.703125,47.53125 C77.5781244,47.6875008 77.4375008,47.8046871 77.28125,47.8828125 C77.1249992,47.9609379 76.9687508,48 76.8125,48 C76.6562492,48 76.5000008,47.9609379 76.34375,47.8828125 C76.1874992,47.8046871 76.0468756,47.6875008 75.921875,47.53125 L53.421875,16.125 C53.1718738,15.8124984 53.0312502,15.4062525 53,14.90625 C52.9687498,14.4062475 53.0468741,13.9687519 53.234375,13.59375 L59.796875,1.3125 C59.9843759,0.937498125 60.2968728,0.62500125 60.734375,0.375 C61.1718772,0.12499875 61.593748,0 62,0 L92,0 C92.406252,0 92.8281228,0.12499875 93.265625,0.375 C93.7031272,0.62500125 94.0156241,0.937498125 94.203125,1.3125 L100.765625,13.828125 Z M97.15625,13.5 L92.375,4.265625 L89.140625,13.5 L97.15625,13.5 Z M79.953125,3 L86.609375,11.578125 L89.609375,3 L79.953125,3 Z M84.3125,13.5 L76.953125,4.03125 L70.390625,13.5 L84.3125,13.5 Z M67.71875,12.046875 L74.046875,3 L64.71875,3 L67.71875,12.046875 Z M84.921875,16.5 L69.171875,16.5 L76.859375,39.5625 L84.921875,16.5 Z M73.484375,38.953125 L66.03125,16.5 L57.359375,16.5 L73.484375,38.953125 Z M88.109375,16.5 L80.234375,39 L96.78125,16.5 L88.109375,16.5 Z M61.8125,3.84375 L56.703125,13.5 L65.046875,13.5 L61.8125,3.84375 Z" id="Diamond---simple-line-icons" fill="#177ACD" opacity="0.391644022"></path>
            <path d="M303.5,38.25 C304.750006,38.25 305.812496,38.6874956 306.6875,39.5625 C307.562504,40.4375044 308,41.4999938 308,42.75 L308,65.25 C308,66.5000062 307.562504,67.5624956 306.6875,68.4375 C305.812496,69.3125044 304.750006,69.75 303.5,69.75 L264.5,69.75 C263.249994,69.75 262.187504,69.3125044 261.3125,68.4375 C260.437496,67.5624956 260,66.5000062 260,65.25 L260,42.75 C260,41.4999938 260.437496,40.4375044 261.3125,39.5625 C262.187504,38.6874956 263.249994,38.25 264.5,38.25 L303.5,38.25 Z M264.5,41.25 C264.093748,41.25 263.742189,41.398436 263.445312,41.6953125 C263.148436,41.992189 263,42.343748 263,42.75 L263,45.75 L305,45.75 L305,42.75 C305,42.343748 304.851564,41.992189 304.554688,41.6953125 C304.257811,41.398436 303.906252,41.25 303.5,41.25 L264.5,41.25 Z M303.5,66.75 C303.906252,66.75 304.257811,66.601564 304.554688,66.3046875 C304.851564,66.007811 305,65.656252 305,65.25 L305,51.75 L263,51.75 L263,65.25 C263,65.656252 263.148436,66.007811 263.445312,66.3046875 C263.742189,66.601564 264.093748,66.75 264.5,66.75 L303.5,66.75 Z" id="Credit-card---simple-line-icons" fill="#177ACD" opacity="0.391644022"></path>
            <path d="M56,247.59375 L56,275.25 C56,276.500006 55.5625044,277.562496 54.6875,278.4375 C53.8124956,279.312504 52.7500062,279.75 51.5,279.75 L12.5,279.75 C11.2499937,279.75 10.1875044,279.312504 9.3125,278.4375 C8.43749563,277.562496 8,276.500006 8,275.25 L8,251.25 C8,250.031244 8.43749563,248.984379 9.3125,248.109375 C10.1875044,247.234371 11.2343689,246.78125 12.453125,246.75 L13.953125,246.75 L13.953125,240.75 C13.953125,239.499994 14.398433,238.437504 15.2890625,237.5625 C16.179692,236.687496 17.2343689,236.25 18.453125,236.25 L52.34375,243 C54.0312584,243.468752 55.0624981,244.218745 55.4375,245.25 C55.8125019,246.281255 56,247.062497 56,247.59375 Z M16.953125,240.75 L16.953125,246.75 L50,246.75 C50.593753,246.78125 50.9843741,246.656251 51.171875,246.375 L51.453125,245.953125 L18.359375,239.25 C17.953123,239.28125 17.6171888,239.437499 17.3515625,239.71875 C17.0859362,240.000001 16.953125,240.343748 16.953125,240.75 Z M53,275.25 L53,248.25 C53,248.750002 52.6796907,249.124999 52.0390625,249.375 C51.3984343,249.625001 50.7187536,249.75 50,249.75 L12.5,249.75 C12.093748,249.75 11.742189,249.898436 11.4453125,250.195312 C11.148436,250.492189 11,250.843748 11,251.25 L11,275.25 C11,275.656252 11.148436,276.007811 11.4453125,276.304688 C11.742189,276.601564 12.093748,276.75 12.5,276.75 L51.5,276.75 C51.906252,276.75 52.257811,276.601564 52.5546875,276.304688 C52.851564,276.007811 53,275.656252 53,275.25 Z M17,260.25 C17.8125041,260.25 18.515622,260.546872 19.109375,261.140625 C19.703128,261.734378 20,262.437496 20,263.25 C20,264.093754 19.703128,264.804685 19.109375,265.382812 C18.515622,265.96094 17.8125041,266.25 17,266.25 C16.1562458,266.25 15.4453154,265.96094 14.8671875,265.382812 C14.2890596,264.804685 14,264.093754 14,263.25 C14,262.437496 14.2890596,261.734378 14.8671875,261.140625 C15.4453154,260.546872 16.1562458,260.25 17,260.25 Z" id="Wallet---simple-line-icons" fill="#177ACD" opacity="0.391644022"></path>
            <polygon id="Polygon" stroke="#A2CAEC" stroke-width="5" stroke-linejoin="bevel" points="277.151328 234 290.302657 243.554999 285.279296 259.015313 269.02336 259.015313 264 243.554999"></polygon>
            <g id="Group-8" transform="translate(7.000000, 142.000000) rotate(-36.000000) translate(-7.000000, -142.000000) translate(2.000000, 137.000000)" stroke="#9DC3E2" stroke-width="4" stroke-linecap="round">
                <path d="M8.95606707,0 L0,8.95606707" id="Path-5"></path>
                <path d="M0,0 L8.95606707,8.95606707" id="Path-5"></path>
            </g>
        </g>
    </g>
</svg>