<?xml version="1.0" encoding="UTF-8"?>
<svg width="160px" height="161px" viewBox="0 0 160 161" version="1.1" xmlns="http://www.w3.org/2000/svg" xmlns:xlink="http://www.w3.org/1999/xlink">
    <!-- Generator: Sketch 45.1 (43504) - http://www.bohemiancoding.com/sketch -->
    <title>Group 3</title>
    <desc>Created with Sketch.</desc>
    <defs></defs>
    <g id="Page-5" stroke="none" stroke-width="1" fill="none" fill-rule="evenodd">
        <g id="Group-3" transform="translate(0.000000, -1.000000)" fill="#FF8E40">
            <path d="M148.662253,63.8553323 C148.679952,63.8435331 148.694701,63.8346837 148.716824,63.8214096 C148.693226,63.8346837 148.679952,63.8464829 148.660778,63.8582821 L148.662253,63.8553323 Z M159.275631,96.1261372 C158.403965,92.04214 156.316982,88.4389601 153.676912,85.2561266 C148.438068,78.9332316 139.919048,75.8064443 132.193523,73.8330286 C123.307253,71.5616831 114.369361,69.4761749 105.481615,67.2048294 C103.561296,66.7151627 101.639501,66.2520442 99.7132825,65.7933504 C97.9463527,65.3744789 95.9021417,64.6119558 94.7944921,63.0780601 C94.4832883,62.6488643 94.3446477,62.3494597 94.2119067,61.9394376 C94.1396366,61.6946042 94.0835904,61.4468211 94.0422932,61.197563 C94.1720844,61.8538934 94.074741,60.8391624 94.074741,60.7668923 C94.0791657,60.6208773 94.0924398,60.4704375 94.104239,60.3229475 L94.1057139,60.3185228 C94.1160382,60.2595268 94.1278374,60.2020058 94.1396366,60.1444847 C94.2015824,59.99257 94.2605784,59.830331 94.3048254,59.6577678 C95.1823907,56.3569423 97.5658286,53.9926781 100.767836,52.7272142 C101.22358,52.5487513 101.692598,52.4056861 102.160141,52.2655706 C102.480194,52.1682272 102.640958,52.1107061 102.704379,52.0797332 C103.000834,52.0443356 103.295814,52.010413 103.590794,51.9779652 C105.326751,51.7950776 107.070082,51.6800354 108.813414,51.6033406 C112.795643,51.4293025 116.963709,51.4558507 120.804348,52.230173 C123.830842,52.8407815 125.316066,54.9572625 126.044666,57.610607 C126.445839,59.0737075 126.507785,60.5146845 126.649375,62.0146575 C126.885359,64.5087128 127.872067,66.5411246 129.551978,68.3862241 C131.625687,70.6619943 134.640382,71.2357302 137.569532,71.2357302 L144.087114,71.2357302 C146.243417,71.2357302 148.449867,71.3242242 150.526526,70.6354461 C156.106072,68.7785474 156.547067,62.389282 156.281585,57.3687235 C155.989555,51.8216258 154.418786,46.3954699 151.637126,41.5843471 C146.560521,32.810169 136.556276,27.6539197 126.808664,25.5094156 L126.808664,24.1834808 C126.808664,21.4224686 126.209855,19.2351923 124.473898,17.0139934 C121.416431,13.1069842 116.350151,13.5553537 111.963799,13.5553537 L107.003712,13.5553537 C104.15568,13.5553537 101.66605,14.4388186 99.558418,16.373887 C96.9006488,18.8104212 96.6381167,22.121571 96.6543406,25.4356706 C82.138378,28.4710141 67.2817135,38.410363 65.9041572,54.2168629 C65.7374936,56.1194834 67.6209404,57.71385 69.4011444,57.71385 C71.4335561,57.71385 72.7344176,56.1150587 72.8981315,54.2168629 C73.3877982,48.613719 76.8936347,43.8925651 81.2150908,40.102073 C86.4126372,35.5416832 93.3712139,32.7290495 100.18525,31.824936 C102.074597,31.574203 103.682238,30.4237813 103.682238,28.3279488 L103.682238,23.0124104 C103.682238,22.8722949 103.741234,22.4681724 103.720585,22.5360178 C103.792855,22.2189144 103.899048,21.9858802 104.185178,21.651078 C105.086342,20.5906251 105.901962,20.5508029 107.273618,20.5508029 L116.07287,20.5508029 C117.457801,20.5508029 118.297018,20.7056673 119.221781,21.6171553 C120.028551,22.4121262 119.81469,23.2587187 119.81469,24.6893713 L119.81469,28.3825201 C119.81469,29.8146477 120.867769,31.5004581 122.382491,31.7526659 C130.186185,33.0609019 138.570989,36.2850326 143.77591,42.4412639 C146.149024,45.2479979 147.619499,48.8290543 148.516238,52.3511148 C149.427726,55.9159473 149.861346,60.0412417 148.780245,63.6060742 C148.802368,63.5146304 148.737473,63.6488463 148.668153,63.800761 C148.629805,63.7373403 148.284679,64.0883664 148.635705,63.873031 L148.632755,63.8789306 C148.603257,63.8981043 148.578184,63.9187529 148.557535,63.9335019 C148.502964,63.946776 148.432169,63.9674246 148.330401,64.0028222 C148.376122,63.9865983 147.483808,64.1812851 147.619499,64.1842349 C146.883524,64.2653544 146.131325,64.241756 145.3924,64.241756 L136.756863,64.241756 C135.756881,64.241756 135.147747,64.0706676 134.497316,63.4408854 C133.488485,62.4615521 133.647774,61.7462257 133.531257,60.3568702 C133.357219,58.272837 133.015042,56.1725798 132.298241,54.2021139 C130.715674,49.8319861 127.203938,46.5857319 122.664196,45.4854568 C117.90617,44.335035 112.682075,44.4132047 107.83113,44.6550883 C106.173343,44.7376826 104.518506,44.8777981 102.871043,45.0636355 C100.688191,45.3099437 98.735424,45.9869227 96.7428346,46.9043103 C92.6219649,48.8010313 89.4583051,52.2950686 87.9612819,56.5280307 C87.7592206,56.83186 87.6117307,57.1725618 87.5453602,57.5486612 C86.9318019,60.948305 86.9244274,64.0706676 89.0482829,67.0130925 C91.2989798,70.1354551 94.840214,71.8227403 98.4920656,72.6899813 C102.239786,73.5808207 105.968332,74.5513047 109.702778,75.4967154 C116.724775,77.2754444 123.78512,78.9022587 130.801218,80.6957368 C137.930883,82.515763 145.559064,85.4006667 149.856922,91.717662 C155.54856,100.080343 153.026481,112.158297 148.421844,120.439858 C145.939588,124.902905 142.479474,128.194881 137.983979,130.579794 C133.526832,132.942583 128.285039,133.970588 123.313152,134.495652 C121.416431,134.693289 119.81469,135.935154 119.81469,137.992639 L119.81469,142.704944 C119.81469,143.213784 119.546258,143.874539 118.937125,144.342082 C117.302936,145.594272 114.002111,145.091332 111.674719,145.091332 L107.432907,145.091332 C106.351806,145.091332 105.452117,145.119355 104.81496,144.60609 C104.446236,144.309635 104.192553,144.022029 103.955094,143.653304 C103.881349,143.536787 103.695512,142.957152 103.695512,143.079568 C103.642415,142.575153 103.682238,142.039764 103.682238,141.533874 L103.682238,137.856949 C103.682238,135.784715 102.077547,134.581196 100.18525,134.359961 C96.6410665,133.94699 93.0334619,133.039926 89.7488603,131.637297 C88.179567,130.967692 86.6913933,130.135849 85.1545478,129.399874 C84.5867114,129.128492 84.0232997,128.849736 83.4790618,128.529683 C82.8714031,128.169808 82.8315808,128.107862 82.1000306,127.445632 C80.6870767,126.169844 78.5528968,126.048902 77.154692,127.445632 C75.8582551,128.742069 75.7402632,131.113707 77.154692,132.392445 C79.8817815,134.858478 83.3153479,136.43662 86.6751694,137.871698 C89.9317478,139.262528 93.2546968,140.215313 96.6882633,140.836246 L96.6882633,142.200528 C96.6882633,145.072158 97.7413416,147.594236 99.8696219,149.551428 C103.154223,152.567598 107.573023,152.085306 111.674719,152.085306 C115.822137,152.085306 120.125894,152.526301 123.507839,149.577976 C125.705439,147.665031 126.808664,145.107555 126.808664,142.215277 L126.808664,141.039782 C134.317379,139.884936 141.333476,137.505922 147.432187,132.653503 C154.190177,127.278968 158.070638,118.060845 159.44082,109.746836 C160.185644,105.210044 160.240215,100.633431 159.275631,96.1261372 L159.275631,96.1261372 Z M70.508794,99.716043 C70.5191183,99.7086685 70.523543,99.7027689 70.5338673,99.6939195 L70.538292,99.6939195 C70.5264928,99.7027689 70.5191183,99.7086685 70.508794,99.716043 L70.508794,99.716043 Z M87.5129124,107.549235 C87.9863552,112.170096 90.6780471,115.670033 94.3063003,118.392698 C97.8667081,121.057841 102.366627,121.59618 106.664485,121.922133 C110.593617,122.220062 114.564047,122.076997 118.478431,121.6596 C125.456181,120.917726 132.82183,118.150814 135.720008,111.204037 C137.160985,107.748347 137.099039,103.602404 135.429453,100.238157 C133.550431,96.45209 130.102115,94.8680477 126.245253,93.7648228 C115.974051,90.8282975 105.40492,89.0067964 95.059974,86.3460774 C91.6898283,85.4773615 88.4258753,84.4036345 85.1914203,83.1219467 C84.9274132,83.0172288 84.666356,82.9110361 84.4038239,82.8048433 C84.3492526,82.7812449 84.0749212,82.6662027 83.9362807,82.6101565 C83.3522204,82.3594236 82.769635,82.1013161 82.1914743,81.8358342 C80.8891379,81.2399747 79.608925,80.5939687 78.3626348,79.883067 C77.785949,79.5541644 77.2225373,79.2001885 76.6709249,78.8285138 C76.5544078,78.751819 76.4423154,78.6662748 76.3287481,78.5836804 C76.3287481,78.5836804 75.8774288,78.2238049 75.7771357,78.1353109 C75.6089971,77.9878209 75.4497079,77.8270569 75.2933686,77.6662928 L75.1724268,77.545351 C75.1517782,77.517328 75.1326045,77.4848802 75.1149057,77.4553822 C75.0854077,77.3713129 75.0544348,77.2724946 75.0382109,77.1840006 C74.7166828,75.3035035 72.435013,74.2740236 70.7374035,74.7415668 C68.7639877,75.2828549 67.9734415,77.1663018 68.2949696,79.0438491 C68.7079415,81.4626846 70.8509707,83.2015913 72.7034447,84.5614488 C74.698984,86.0260242 76.977704,87.115975 79.226926,88.1321809 C82.4068097,89.571683 85.681087,90.8533708 89.0084607,91.9167735 C93.8004097,93.4521441 98.7840957,94.4801491 103.683712,95.6025478 C108.679198,96.7514946 113.692382,97.8296463 118.681967,99.0110409 C119.565432,99.2219516 120.442997,99.4490861 121.323513,99.6791705 C122.345618,99.950552 123.367724,100.223408 124.385404,100.511014 C124.857372,100.64228 125.327865,100.782395 125.795408,100.923986 C125.928149,100.962333 127.124293,101.37973 126.858811,101.248464 C127.935488,101.726331 128.765856,102.286793 129.255523,103.449014 C129.580001,104.217437 129.715692,104.918014 129.754039,105.705611 C129.767313,106.010915 129.754039,106.317694 129.737815,106.622998 C129.734865,106.684944 129.733391,106.735091 129.731916,106.777863 C129.723066,106.823585 129.712742,106.876681 129.702418,106.944526 C129.180303,109.987244 126.994502,112.068328 124.012255,113.316093 C122.745316,113.847057 121.378084,114.252654 120.018226,114.46799 C119.851563,114.494538 119.681949,114.521086 119.510861,114.544684 C119.487262,114.546159 119.468089,114.549109 119.441541,114.553534 C118.611172,114.658252 117.777854,114.742321 116.944535,114.814591 C112.847264,115.181841 108.707221,115.171517 104.614374,114.743796 C101.205881,114.385395 97.8504842,113.159754 95.7841498,110.280749 C94.8520132,108.981363 94.5378595,107.969582 94.4006939,106.440111 C94.3033505,105.351635 94.3328485,104.257259 94.3328485,103.164358 C94.3328485,99.5346303 92.4936486,95.7677365 89.3152398,93.937386 C86.9037788,92.5465557 84.1781642,92.7161691 81.5189201,92.7604161 C78.0248828,92.8179372 74.5264207,92.8489101 71.0338583,92.7205938 C67.4970489,92.5893277 64.6681913,94.7884032 64.0059613,98.2942397 C63.6180627,100.345825 63.7331049,102.490329 64.1917987,104.527166 C64.6106702,106.385539 66.7212516,107.456316 68.4940811,106.96665 C70.3952267,106.44601 71.3539115,104.524216 70.9365149,102.665842 C70.9099667,102.55375 70.8893181,102.438708 70.8671946,102.326615 C70.8539205,102.254345 70.8421213,102.182075 70.8303221,102.109805 C70.7860752,101.702733 70.7669015,101.294186 70.7565772,100.885638 C70.7521525,100.64818 70.7610019,100.412196 70.7698513,100.177687 C70.7728011,100.106891 70.7757509,100.050845 70.7772258,100.000699 C70.7831254,99.9771002 70.7860752,99.9535018 70.7934496,99.9181042 C70.8067237,99.8458342 70.8273723,99.7765139 70.8450711,99.7057187 C71.1385762,99.7130932 71.4335561,99.7293171 71.728536,99.7381665 C72.612001,99.7691394 73.4969408,99.7794637 74.3848304,99.7883131 C77.285958,99.8207609 80.1929853,99.7824135 83.0955878,99.7263673 C83.7268449,99.7145681 84.3463028,99.6968693 84.97461,99.7337418 C84.666356,99.7293171 85.6471643,99.9166293 85.6338902,99.9122046 C85.7046854,99.9328532 85.7607316,99.950552 85.8079284,99.9608763 C85.8300518,99.9903743 85.9052717,100.044946 86.0852095,100.148189 C86.1427306,100.182111 86.1884525,100.207185 86.2282748,100.229308 C86.2503983,100.267655 86.3108691,100.338451 86.4406603,100.471192 C86.7164666,100.773546 86.7474394,100.814843 86.5380037,100.589184 C86.6677949,100.79567 86.782837,101.00658 86.8875549,101.22634 C86.6279726,100.718975 87.0615931,101.879721 87.1043652,101.971165 C87.1205891,102.069983 87.3256001,102.972621 87.3359244,102.829556 C87.3595228,103.161409 87.3388742,103.50801 87.3388742,103.833963 C87.3388742,105.083203 87.386071,106.30442 87.5129124,107.549235 L87.5129124,107.549235 Z M10.4523541,86.9611106 C10.6057437,88.7767121 10.762083,90.5937885 10.9169475,92.4079151 C11.0791865,94.306111 12.3874225,95.9049022 14.4154095,95.9049022 C16.1970883,95.9049022 18.0746356,94.3120106 17.9123967,92.4079151 C17.3445603,85.7620171 16.7767239,79.1146443 16.2103624,72.4687464 C19.2398064,66.710738 22.2692503,60.9512548 25.2972193,55.1932465 C26.772119,54.9159653 28.2543932,54.6667073 29.7381423,54.4366229 C31.5375199,54.1622916 34.1569417,54.0148016 36.5212059,53.9071339 C39.3456388,53.7788177 42.1759712,53.7065476 45.001879,53.8525626 C45.6139624,53.8835355 46.2260457,53.9366319 46.8366542,54.0000526 C46.8764765,54.008902 47.4162898,54.0767474 47.472336,54.0870717 C47.7732155,54.1357434 48.0726201,54.1991641 48.369075,54.2655346 C48.5903099,54.3142062 49.5622688,54.6519583 49.5814425,54.6239352 C49.6360138,54.6549081 49.6891102,54.685881 49.7451564,54.7183288 C49.4133039,54.5339663 50.1566534,55.0693549 50.2967688,55.2168448 C50.338066,55.2625667 50.3734636,55.2994392 50.4044365,55.3289372 C50.4309847,55.3746591 50.4693321,55.4262806 50.5194787,55.4985507 C50.7053161,55.7684573 50.8690299,56.0516381 51.0327438,56.3333439 C51.1979325,56.6224242 51.3454225,56.9233038 51.4914376,57.2212335 C51.5047117,57.2492566 51.690549,57.6873018 51.7421705,57.802344 C52.146293,58.8288742 52.4604467,59.8908019 52.734778,60.9571544 C52.9766616,61.8966655 53.1624989,62.8243774 53.441255,63.7535642 C54.4869588,67.2195784 55.5326627,70.6885425 56.5783666,74.1545567 C57.1860252,76.1648449 59.8128216,77.5925478 61.7154421,76.2444895 C68.377564,71.5233357 75.0411607,66.8051316 81.7047575,62.0839777 C83.2563519,60.9851775 83.9849524,59.0530589 82.9598971,57.2994032 C82.0602083,55.7640326 79.7342915,54.9395637 78.1738476,56.0457385 C72.7491666,59.889327 67.3244856,63.7314407 61.8998046,67.5735543 C61.3290184,65.6797832 60.7582323,63.786012 60.1874461,61.8937157 C59.1048697,58.302335 58.5001608,54.5472404 56.1860433,51.4543758 C54.2804729,48.907224 51.7967418,47.7037059 48.6950278,47.2420623 C45.5298931,46.7700944 42.3426349,46.731747 39.1494771,46.8158163 C33.7292208,46.9574067 28.4431803,47.5075442 23.111418,48.5134258 C21.5126268,48.8157803 20.3577803,49.5724038 19.5952572,51.0222302 L17.3224368,55.3436862 C15.2384035,59.3037918 13.1558452,63.2653724 11.071812,67.225478 C10.5939445,68.1325413 10.116077,69.0410795 9.63968437,69.9481428 C8.95828072,71.2445796 9.21343836,72.4377735 9.32995544,73.8064804 C9.70457996,78.192832 10.0777296,82.5762338 10.4523541,86.9611106 L10.4523541,86.9611106 Z M32.6422197,13.0524129 C34.2985321,10.6468515 37.0565945,9.04658538 39.8957763,8.33273394 C42.4812755,7.68230318 45.6331361,8.0510281 48.0534464,9.21914864 C50.7716865,10.5318094 53.0813794,12.9196719 54.1418323,15.4447002 C55.3984468,18.4402214 55.4721918,21.2012336 54.6580472,24.1126856 C52.9279899,30.2836658 46.0638068,34.0549843 39.9798456,32.7275746 C37.5683846,32.1995605 35.4887761,30.9930926 33.6952981,29.2040393 C29.3635177,24.6333252 29.1201593,18.1570407 32.6422197,13.0524129 L32.6422197,13.0524129 Z M28.7499595,34.1493779 C34.5477901,39.939834 43.3072193,41.5931965 50.7908602,38.2289504 C57.9898456,34.9915456 62.5251621,27.400237 62.1475877,19.5478711 C61.7655887,11.6143857 56.5488686,5.03485826 49.2731885,2.18387718 C42.2467664,-0.569760511 33.9858533,1.6617627 28.7543842,6.88733225 C21.3828356,14.2529812 21.6232442,26.297012 28.4682536,33.8352242 C28.5537978,33.9428919 28.6481914,34.0461349 28.7499595,34.1493779 L28.7499595,34.1493779 Z M63.5384181,154.023324 C62.305402,148.035231 61.0694361,142.051563 59.8349451,136.064946 L57.7051899,125.746547 C57.2936929,123.739209 55.9382601,122.32183 54.7406416,120.693541 C51.0120952,115.619886 47.2850237,110.544756 43.5550024,105.472576 C42.4311289,103.940156 40.5447322,103.179107 38.7704279,104.217437 C37.5300372,104.944562 36.7232671,106.656921 37.091992,108.096423 C36.5433294,114.327874 35.9946667,120.556375 35.4474789,126.786352 C29.9284043,135.865834 24.4093297,144.945316 18.89173,154.023324 C15.8445873,154.008575 12.8018693,153.992351 9.75472654,153.977602 C15.8121395,144.159195 21.8680776,134.343738 27.9269655,124.52828 C28.7116121,123.253967 28.6939133,121.699423 28.8192798,120.240747 C29.0773872,117.233426 29.3369695,114.226106 29.5936021,111.22026 C30.0670449,105.723309 30.5375379,100.223408 31.0109807,94.7264574 L45.0992224,94.7264574 C49.1050499,100.338451 53.1094025,105.950444 57.1152301,111.563912 C59.2759581,114.591881 61.4366861,117.621325 63.5974141,120.650769 C63.8142244,120.953123 64.0280848,121.255478 64.2448951,121.554882 C64.379111,122.10502 64.5133268,122.655158 64.6475427,123.205295 C67.1578219,133.466172 69.6681012,143.725574 72.1798553,153.984977 C69.2993763,153.996776 66.4188972,154.01005 63.5384181,154.023324 L63.5384181,154.023324 Z M75.3626888,137.572293 C74.3125603,133.28181 73.2624317,128.989852 72.2123031,124.699369 C71.876026,123.323287 71.5397489,121.948681 71.2034718,120.572599 C71.0368081,119.89562 70.920291,118.919237 70.508794,118.339601 C64.0384091,109.274868 57.5694992,100.207185 51.1005892,91.1409763 C50.7997096,90.7206299 50.4398341,90.3666539 50.0401363,90.0834732 C49.9619666,89.8578135 49.8616734,89.6424782 49.7422066,89.4418918 C50.2068,83.0659005 50.6728683,76.6943339 51.1404115,70.3198175 C51.279052,68.4157221 49.4442768,66.8228304 47.6434243,66.8228304 C45.6316612,66.8228304 44.2836029,68.4186718 44.1464372,70.3198175 C43.7216661,76.1220729 43.296895,81.9287529 42.8721239,87.7310082 L31.6127397,87.7310082 C31.7292568,86.366726 31.8457739,84.999494 31.9637659,83.6337369 C32.5478261,76.8167506 33.1348362,69.9997643 33.7203714,63.1842529 C33.8840852,61.2801574 32.0050631,59.6872658 30.2219094,59.6872658 C28.1924474,59.6872658 26.890111,61.2845821 26.7249222,63.1842529 C25.9402756,72.3345305 25.1541541,81.486283 24.3680325,90.6380355 C24.3341098,90.8297724 24.3134612,91.0259341 24.3134612,91.2294702 C24.3134612,91.2353698 24.3149361,91.2427443 24.3149361,91.2501188 C23.8931148,96.1659595 23.4712935,101.0818 23.0494722,105.996166 C22.6129019,111.07572 22.1763316,116.155275 21.7397613,121.236304 C14.7339879,132.591557 7.72673949,143.946809 0.720966027,155.302062 L0.487931878,155.678161 C-0.919122413,157.961306 0.909753186,160.925854 3.50852642,160.939129 C6.87867218,160.956827 10.2488179,160.974526 13.6189637,160.99075 C15.6012289,161.001074 17.5849689,161.011399 19.5672341,161.021723 C21.2972914,161.030572 22.8813337,160.92438 23.9299873,159.198747 C27.7293289,152.948122 31.5271956,146.700447 35.3265371,140.451297 C37.0846175,137.560494 38.8412231,134.668216 40.5993035,131.777412 C40.9945766,131.126981 41.3898497,130.4795 41.782173,129.82907 C42.3175616,128.950029 42.34116,127.930874 42.4281791,126.938266 C42.723159,123.588769 43.016664,120.239272 43.311644,116.889775 C45.6065879,120.010663 47.9015318,123.133025 50.1950008,126.255388 C50.4221353,126.562167 50.647795,126.870421 50.8734546,127.18015 C51.0489677,128.031167 51.2259556,128.883659 51.4029436,129.739101 C52.2554356,133.873245 53.1079276,138.008863 53.9618945,142.144482 C55.0842932,147.582437 56.205217,153.021867 57.3276156,158.462772 C57.6388194,159.965695 59.2228617,161.034997 60.7007112,161.029097 C66.01035,161.005499 71.3199888,160.983376 76.6296277,160.961252 C78.9496449,160.952403 80.5425365,158.741528 80.0027232,156.535078 L75.3626888,137.572293 Z" id="Fill-1"></path>
        </g>
    </g>
</svg>