<?xml version="1.0" encoding="UTF-8"?>
<svg width="394px" height="387px" viewBox="0 0 394 387" version="1.1" xmlns="http://www.w3.org/2000/svg" xmlns:xlink="http://www.w3.org/1999/xlink">
    <!-- Generator: Sketch 45.1 (43504) - http://www.bohemiancoding.com/sketch -->
    <title>Group 8</title>
    <desc>Created with Sketch.</desc>
    <defs></defs>
    <g id="Page-5" stroke="none" stroke-width="1" fill="none" fill-rule="evenodd">
        <g id="Group-8" transform="translate(200.230545, 193.961576) rotate(-29.000000) translate(-200.230545, -193.961576) translate(-68.269455, -71.038424)">
            <g id="Group-18" transform="translate(268.373099, 264.924048) rotate(29.000000) translate(-268.373099, -264.924048) translate(68.373099, 73.424048)">
                <path d="M332.850372,314.96685 L342.149628,334.03315" id="Path-5" stroke="#9DC3E2" stroke-width="4" stroke-linecap="round"></path>
                <path d="M327.96685,329.149628 L347.03315,319.850372" id="Path-5" stroke="#9DC3E2" stroke-width="4" stroke-linecap="round"></path>
                <path d="M380.14304,140.762618 C380.424292,140.637617 380.721164,140.598555 381.033665,140.64543 C381.346167,140.692305 381.611789,140.825116 381.83054,141.043868 C382.018041,141.262619 382.135228,141.528241 382.182103,141.840743 C382.228978,142.153244 382.174291,142.450116 382.01804,142.731368 L374.939915,156.653243 C374.877415,156.778243 374.791478,156.887617 374.682103,156.981368 C374.572727,157.075118 374.455541,157.153242 374.33054,157.215743 L359.98679,163.168868 C359.89304,163.231368 359.799291,163.27043 359.70554,163.286055 C359.61179,163.30168 359.502416,163.309493 359.377415,163.309493 C359.189914,163.309493 359.010229,163.27043 358.838353,163.192305 C358.666477,163.11418 358.518041,163.012618 358.39304,162.887618 C358.174289,162.668866 358.041478,162.411056 357.994603,162.11418 C357.947728,161.817304 357.98679,161.528244 358.11179,161.246993 L364.86179,147.700118 C364.924291,147.575117 365.010227,147.457931 365.119603,147.348555 C365.228978,147.239179 365.346165,147.153243 365.471165,147.090743 L380.14304,140.762618 Z M362.564915,158.809493 L370.76804,155.621993 L366.64304,150.465743 L362.564915,158.809493 Z M373.20554,153.887618 L377.33054,145.403243 L369.033665,148.637618 L373.20554,153.887618 Z M369.783665,127.637618 C373.096182,127.637618 376.213338,128.262611 379.135228,129.512618 C382.057117,130.762624 384.603967,132.473544 386.775853,134.64543 C388.947739,136.817316 390.658659,139.364165 391.908665,142.286055 C393.158672,145.207945 393.783665,148.325101 393.783665,151.637618 C393.783665,154.950134 393.158672,158.06729 391.908665,160.98918 C390.658659,163.91107 388.947739,166.457919 386.775853,168.629805 C384.603967,170.801691 382.057117,172.512611 379.135228,173.762618 C376.213338,175.012624 373.096182,175.637618 369.783665,175.637618 C366.471149,175.637618 363.353992,175.012624 360.432103,173.762618 C357.510213,172.512611 354.963364,170.801691 352.791478,168.629805 C350.619592,166.457919 348.908672,163.91107 347.658665,160.98918 C346.408659,158.06729 345.783665,154.950134 345.783665,151.637618 C345.783665,148.325101 346.408659,145.207945 347.658665,142.286055 C348.908672,139.364165 350.619592,136.817316 352.791478,134.64543 C354.963364,132.473544 357.510213,130.762624 360.432103,129.512618 C363.353992,128.262611 366.471149,127.637618 369.783665,127.637618 Z M369.783665,172.684493 C372.68993,172.684493 375.416465,172.129811 377.963353,171.02043 C380.510241,169.911049 382.728968,168.403252 384.619603,166.496993 C386.510237,164.590733 388.010222,162.364193 389.119603,159.817305 C390.228983,157.270417 390.783665,154.543882 390.783665,151.637618 C390.783665,148.731353 390.228983,146.004818 389.119603,143.45793 C388.010222,140.911042 386.510237,138.692314 384.619603,136.80168 C382.728968,134.911046 380.510241,133.411061 377.963353,132.30168 C375.416465,131.192299 372.68993,130.637618 369.783665,130.637618 C366.877401,130.637618 364.150866,131.192299 361.603978,132.30168 C359.05709,133.411061 356.838362,134.911046 354.947728,136.80168 C353.057093,138.692314 351.557108,140.911042 350.447728,143.45793 C349.338347,146.004818 348.783665,148.731353 348.783665,151.637618 C348.783665,154.543882 349.338347,157.270417 350.447728,159.817305 C351.557108,162.364193 353.057093,164.590733 354.947728,166.496993 C356.838362,168.403252 359.05709,169.911049 361.603978,171.02043 C364.150866,172.129811 366.877401,172.684493 369.783665,172.684493 Z" id="Compass---simple-line-icons" fill="#177ACD" opacity="0.391644022"></path>
                <path d="M28.512303,232.351744 L20.543553,222.882994 L20.543553,206.336119 L21.527928,206.336119 C21.9654302,206.336119 22.3248016,206.187683 22.606053,205.890807 C22.8873044,205.59393 23.027928,205.242371 23.027928,204.836119 C23.027928,204.398617 22.8873044,204.039245 22.606053,203.757994 C22.3248016,203.476743 21.9654302,203.336119 21.527928,203.336119 L19.043553,203.336119 C18.6373009,203.336119 18.285742,203.476743 17.9888655,203.757994 C17.691989,204.039245 17.543553,204.398617 17.543553,204.836119 L17.543553,223.445494 C17.543553,223.632995 17.5748027,223.812681 17.637303,223.984557 C17.6998033,224.156432 17.7935523,224.320493 17.918553,224.476744 L24.059178,231.836119 L5.02792797,231.836119 L11.168553,224.476744 C11.2935536,224.320493 11.3873027,224.156432 11.449803,223.984557 C11.5123033,223.812681 11.543553,223.632995 11.543553,223.445494 L11.543553,204.836119 C11.543553,204.398617 11.395117,204.039245 11.0982405,203.757994 C10.801364,203.476743 10.449805,203.336119 10.043553,203.336119 L7.55917797,203.336119 C7.12167579,203.336119 6.76230438,203.476743 6.48105297,203.757994 C6.19980157,204.039245 6.05917797,204.398617 6.05917797,204.836119 C6.05917797,205.242371 6.19980157,205.59393 6.48105297,205.890807 C6.76230438,206.187683 7.12167579,206.336119 7.55917797,206.336119 L8.54355297,206.336119 L8.54355297,222.882994 L0.574802974,232.351744 C0.35605188,232.570495 0.223240708,232.820493 0.176365474,233.101744 C0.129490239,233.382995 0.168552349,233.664243 0.293552974,233.945494 C0.418553599,234.226745 0.606051724,234.445493 0.856052974,234.601744 C1.10605422,234.757995 1.37167657,234.836119 1.65292797,234.836119 L27.434178,234.836119 C27.7154294,234.836119 27.9810517,234.757995 28.231053,234.601744 C28.4810542,234.445493 28.6685523,234.226745 28.793553,233.945494 C28.9185536,233.664243 28.9576157,233.382995 28.9107405,233.101744 C28.8638652,232.820493 28.7310541,232.570495 28.512303,232.351744 Z M13.043553,201.836119 C13.856057,201.836119 14.559175,201.539247 15.152928,200.945494 C15.7466809,200.351741 16.043553,199.648623 16.043553,198.836119 C16.043553,197.992365 15.7466809,197.281434 15.152928,196.703307 C14.559175,196.125179 13.856057,195.836119 13.043553,195.836119 C12.2310489,195.836119 11.5279309,196.125179 10.934178,196.703307 C10.340425,197.281434 10.043553,197.992365 10.043553,198.836119 C10.043553,199.648623 10.340425,200.351741 10.934178,200.945494 C11.5279309,201.539247 12.2310489,201.836119 13.043553,201.836119 Z M22.793553,197.382994 C21.3560458,197.382994 20.1216831,196.867374 19.090428,195.836119 C18.0591728,194.804864 17.543553,193.554876 17.543553,192.086119 C17.543553,190.648612 18.0591728,189.414249 19.090428,188.382994 C20.1216831,187.351739 21.3560458,186.836119 22.793553,186.836119 C24.2623103,186.836119 25.5122978,187.351739 26.543553,188.382994 C27.5748081,189.414249 28.090428,190.648612 28.090428,192.086119 C28.090428,193.554876 27.5748081,194.804864 26.543553,195.836119 C25.5122978,196.867374 24.2623103,197.382994 22.793553,197.382994 Z M22.793553,189.836119 C22.1685498,189.836119 21.6373052,190.054867 21.199803,190.492369 C20.7623008,190.929871 20.543553,191.461116 20.543553,192.086119 C20.543553,192.711122 20.7623008,193.242367 21.199803,193.679869 C21.6373052,194.117371 22.1685498,194.336119 22.793553,194.336119 C23.4185561,194.336119 23.9498008,194.117371 24.387303,193.679869 C24.8248052,193.242367 25.043553,192.711122 25.043553,192.086119 C25.043553,191.461116 24.8248052,190.929871 24.387303,190.492369 C23.9498008,190.054867 23.4185561,189.836119 22.793553,189.836119 Z" id="Chemistry---simple-line-icons" fill="#177ACD" opacity="0.391644022"></path>
                <polygon id="Star" stroke="#0878D0" stroke-width="5" opacity="0.419157609" stroke-linejoin="round" points="193.407055 23.0586253 184.590276 27.6938802 186.274131 17.8762527 179.141207 10.9233704 188.998665 9.49099783 193.407055 0.558625289 197.815444 9.49099783 207.672903 10.9233704 200.539979 17.8762527 202.223834 27.6938802"></polygon>
                <path d="M167.862747,374.909244 L160.697894,382.074098" id="Path-5" stroke="#9DC3E2" stroke-width="4" stroke-linecap="round"></path>
                <path d="M160.697894,374.909244 L167.862747,382.074098" id="Path-5" stroke="#9DC3E2" stroke-width="4" stroke-linecap="round"></path>
            </g>
        </g>
    </g>
</svg>