<?xml version="1.0" encoding="UTF-8"?>
<svg width="160px" height="144px" viewBox="0 0 160 144" version="1.1" xmlns="http://www.w3.org/2000/svg" xmlns:xlink="http://www.w3.org/1999/xlink">
    <!-- Generator: Sketch 45.1 (43504) - http://www.bohemiancoding.com/sketch -->
    <title>Page 1</title>
    <desc>Created with Sketch.</desc>
    <defs></defs>
    <g id="Page-5" stroke="none" stroke-width="1" fill="none" fill-rule="evenodd">
        <g id="Page-1" fill="#177ACD">
            <path d="M61.3228624,78.6297248 C58.6674495,78.7016514 56.6417615,76.4249541 56.5727706,73.879633 C56.6432294,71.227156 58.6674495,69.1970642 61.3228624,69.1280734 C63.9768073,69.0576147 66.0054312,71.332844 66.0729541,73.879633 C66.1448807,76.5306422 63.8681835,78.5607339 61.3228624,78.6297248 L61.3228624,78.6297248 Z M71.1709358,71.4341284 C71.1239633,71.4341284 71.0769908,71.44 71.0300183,71.44 C70.8098349,70.5563303 70.4590092,69.7225688 70.0039633,68.9533945 C70.0377248,68.9225688 70.0729541,68.893211 70.1067156,68.8623853 C71.1107523,67.8554128 71.1107523,66.2275229 70.1067156,65.2234862 C69.1026789,64.2209174 67.4718532,64.2209174 66.4692844,65.2234862 C66.4267156,65.266055 66.3856147,65.3130275 66.3489174,65.3555963 C65.5782752,64.9078899 64.7518532,64.5526606 63.8887339,64.306055 C63.8902018,64.2576147 63.8960734,64.2062385 63.8960734,64.1577982 C63.8960734,62.7383486 62.7437798,61.586055 61.3228624,61.586055 C59.901945,61.586055 58.7511193,62.7383486 58.7511193,64.1577982 C58.7511193,64.1577982 58.754055,64.1886239 58.754055,64.2062385 C57.8571743,64.4440367 57.0131376,64.813945 56.2410275,65.2924771 C56.2190092,65.2689908 56.2013945,65.2469725 56.1779083,65.2234862 C55.1738716,64.2209174 53.5445138,64.2209174 52.541945,65.2234862 C51.5364404,66.2275229 51.5379083,67.8554128 52.541945,68.8623853 C52.5962569,68.9137615 52.6535046,68.9651376 52.7107523,69.013578 C52.2821284,69.7768807 51.941578,70.5930275 51.7111193,71.4444037 C51.6333211,71.44 51.5555229,71.4341284 51.474789,71.4341284 C50.0538716,71.4341284 48.9030459,72.586422 48.9030459,74.0058716 C48.9030459,75.426789 50.0538716,76.5776147 51.474789,76.5776147 C51.5746055,76.5776147 51.6729541,76.5717431 51.7698349,76.56 C52.0149725,77.4025688 52.3628624,78.1966972 52.7988257,78.9277064 C52.7107523,78.9966972 52.621211,79.0686239 52.541945,79.1508257 C51.5379083,80.1548624 51.5364404,81.7827523 52.541945,82.7897248 C53.5445138,83.7937615 55.1738716,83.7937615 56.1779083,82.7897248 C56.2718532,82.6957798 56.3525872,82.5944954 56.4289174,82.4917431 C57.1584587,82.9100917 57.9467156,83.2433028 58.7834128,83.4722936 C58.7628624,83.5985321 58.7511193,83.7247706 58.7511193,83.853945 C58.7511193,85.2748624 59.901945,86.4256881 61.3228624,86.4256881 C62.7437798,86.4256881 63.8960734,85.2748624 63.8960734,83.853945 C63.8960734,83.7526606 63.8887339,83.6557798 63.8769908,83.5544954 C64.7224954,83.3343119 65.5224954,82.9908257 66.2593761,82.5519266 C66.3239633,82.6355963 66.3914862,82.7119266 66.4692844,82.7897248 C67.4718532,83.7937615 69.101211,83.7937615 70.1067156,82.7897248 C71.1107523,81.7827523 71.1107523,80.1548624 70.1067156,79.1508257 C70.0201101,79.0656881 69.9291009,78.9908257 69.835156,78.9188991 C70.2711193,78.1790826 70.6160734,77.3849541 70.861211,76.5570642 C70.9639633,76.5717431 71.0667156,76.5776147 71.1709358,76.5776147 C72.5918532,76.5776147 73.7426789,75.426789 73.7426789,74.0058716 C73.7426789,72.586422 72.5918532,71.4341284 71.1709358,71.4341284 L71.1709358,71.4341284 Z M142.237358,29.1192661 C139.14745,31.3137615 136.057541,33.5038532 132.969101,35.6968807 C132.160294,33.9222018 131.352954,32.1445872 130.544147,30.3669725 C129.548917,28.1768807 126.629284,28.3486239 125.079193,29.6653211 C120.665248,33.4084404 116.251303,37.1559633 111.83589,40.9005505 C110.38855,42.1306422 110.577908,44.5644037 111.83589,45.8223853 C113.259743,47.2447706 115.313321,47.0495413 116.759193,45.8223853 C119.935706,43.1273394 123.110752,40.4337615 126.287266,37.7387156 C127.041761,39.3944954 127.794789,41.0517431 128.547817,42.7119266 C129.287633,44.3354128 131.874055,44.9798165 133.309651,43.959633 C137.45644,41.0150459 141.603229,38.0733945 145.751486,35.1288073 C147.294239,34.0337615 148.020844,32.1137615 146.999193,30.3669725 C146.105248,28.8388991 143.785982,28.0183486 142.237358,29.1192661 L142.237358,29.1192661 Z M43.168,73.7387156 L43.168,56.8638532 C43.168,52.3765138 36.2072661,52.3765138 36.2072661,56.8638532 L36.2072661,73.7387156 C36.2072661,78.2289908 43.168,78.2289908 43.168,73.7387156 L43.168,73.7387156 Z M30.514789,73.7387156 L30.514789,52.3618349 C30.514789,47.8759633 23.5555229,47.8759633 23.5555229,52.3618349 L23.5555229,73.7387156 C23.5555229,78.2289908 30.514789,78.2289908 30.514789,73.7387156 L30.514789,73.7387156 Z M40.8472661,79.240367 L14.0920367,79.240367 C9.60469725,79.240367 9.60469725,86.1981651 14.0920367,86.1981651 L40.8472661,86.1981651 C45.3360734,86.1981651 45.3360734,79.240367 40.8472661,79.240367 L40.8472661,79.240367 Z M18.0450642,73.7387156 L18.0450642,46.7398165 C18.0450642,42.2510092 11.0828624,42.2510092 11.0828624,46.7398165 L11.0828624,73.7387156 C11.0828624,78.2289908 18.0450642,78.2289908 18.0450642,73.7387156 L18.0450642,73.7387156 Z M62.4546055,22.5343119 L62.4546055,18.4550459 C62.5705688,18.4227523 62.7026789,18.3522936 62.5456147,18.346422 L62.5456147,18.3434862 C63.0035963,18.3229358 63.4645138,18.346422 63.9210275,18.346422 L68.0032294,18.346422 C68.0325872,18.4609174 68.1030459,18.5930275 68.1103853,18.4374312 L68.1118532,18.4374312 C68.1324037,18.893945 68.1089174,19.3548624 68.1089174,19.8113761 L68.1089174,23.893578 C67.994422,23.9244037 67.8593761,23.9933945 68.0223119,24.0022018 L68.020844,24.0022018 C67.5643303,24.0227523 67.101945,23.9992661 66.6439633,23.9992661 L62.5617615,23.9992661 C62.5309358,23.8847706 62.4604771,23.7526606 62.4546055,23.9111927 L62.4531376,23.9111927 C62.434055,23.4517431 62.4546055,22.9908257 62.4546055,22.5343119 L62.4546055,22.5343119 Z M60.7841468,30.7574312 C62.7320367,31.293211 65.1261651,30.9629358 67.1180917,30.9629358 C70.7085505,30.9629358 73.4182752,29.4700917 74.7687339,26.026422 C74.9610275,25.5390826 75.0153394,24.9710092 75.047633,24.4322936 C75.060844,24.2913761 75.0696514,24.1489908 75.0696514,23.9992661 L75.0696514,18.7647706 C75.0696514,14.9688073 72.4333211,11.6176147 68.4891009,11.4047706 C66.6806606,11.3078899 64.8531376,11.3842202 63.0432294,11.3842202 C59.581945,11.3842202 56.2307523,13.3952294 55.6377248,17.0414679 C55.3103853,19.0568807 55.4938716,21.186789 55.4938716,23.2198165 C55.4938716,26.7368807 57.2259817,29.7798165 60.7841468,30.7574312 L60.7841468,30.7574312 Z M141.51222,79.2256881 L141.500477,79.2286239 C141.509284,79.1977982 141.518092,79.1434862 141.531303,79.0598165 C141.518092,79.1317431 141.515156,79.1831193 141.51222,79.2256881 L141.51222,79.2256881 Z M141.485798,79.2007339 L141.485798,79.2344954 L141.466716,79.2374312 C141.466716,79.2374312 141.46378,79.240367 141.457908,79.240367 L138.825982,79.240367 C131.473321,79.240367 124.565431,79.3401835 117.315523,79.3401835 L117.201028,79.3401835 C117.80433,79.3401835 116.693138,79.1317431 117.214239,79.3812844 C117.118826,79.3343119 117.051303,79.306422 117.005798,79.2888073 C116.996991,79.2579817 116.94855,79.1831193 116.812037,79.0392661 C117.123229,79.3695413 116.828183,78.7559633 116.81644,78.8337615 C116.797358,78.692844 116.819376,78.5401835 116.819376,78.133578 L116.819376,58.6693578 C116.819376,59.1111927 116.919193,58.4521101 116.841394,58.4638532 C116.922128,58.3376147 116.95589,58.2715596 116.939743,58.2715596 C117.11589,58.1027523 117.107083,58.0880734 116.908917,58.2319266 C116.996991,58.1688073 117.055706,58.1218349 117.090936,58.0880734 C117.133505,58.093945 117.22011,58.0822018 117.391853,58.039633 C117.132037,58.1056881 117.152587,58.0910092 117.253872,58.0910092 L125.17167,58.0910092 C125.405064,58.0910092 125.493138,58.1159633 125.356624,58.0499083 C125.453505,58.0968807 125.51956,58.1247706 125.568,58.1423853 C125.573872,58.1761468 125.62378,58.2480734 125.760294,58.3919266 C125.385982,57.9985321 125.888,58.9629358 125.723596,58.4550459 C125.939376,59.1141284 125.754422,58.4036697 125.754422,58.9673394 L125.754422,64.013945 C125.754422,65.9089908 127.336807,67.4913761 129.233321,67.4913761 L141.353688,67.4913761 L141.353688,67.4943119 C141.281761,67.5031193 141.327266,67.533945 141.402128,67.560367 C141.431486,67.6411009 141.472587,67.6954128 141.482862,67.6176147 L141.485798,67.6176147 L141.485798,79.2007339 Z M142.373872,60.6363303 C142.099376,60.5702752 141.80433,60.533578 141.485798,60.533578 L132.713688,60.533578 L132.713688,58.8425688 C132.713688,54.9056881 129.789651,51.3504587 125.741211,51.146422 C124.026716,51.0612844 122.294606,51.1302752 120.577174,51.1302752 C118.360661,51.1302752 116.085431,50.9115596 114.023046,51.8862385 C109.349284,54.0998165 109.857174,59.1831193 109.857174,63.4546789 L109.857174,76.6348624 C109.857174,78.0557798 109.813138,79.4238532 110.136073,80.8256881 C110.927266,84.2693578 114.290202,86.3053211 117.632587,86.3053211 L125.371303,86.3053211 C125.719193,86.3053211 127.612771,86.1981651 126.231486,86.1981651 L139.470385,86.1981651 C141.431486,86.1981651 143.178275,86.1952294 144.999927,85.2499083 C147.645064,83.8788991 148.448,80.9666055 148.448,78.2319266 L148.448,69.2748624 C148.448,68.0873394 148.436257,67.0069725 148.243963,65.8223853 C147.774239,62.9409174 145.073321,61.092844 142.373872,60.6363303 L142.373872,60.6363303 Z M96.1382752,79.400367 C96.0986422,79.4297248 96.0384587,79.4840367 95.941578,79.586789 C96.3202936,79.1889908 95.4146055,79.7878899 95.9562569,79.5926606 C95.8491009,79.6337615 95.7727706,79.6587156 95.7081835,79.6851376 C95.7668991,79.6557798 95.8021284,79.6337615 95.7434128,79.6337615 L87.7845138,79.6337615 C87.9724037,79.6102752 87.2663486,79.466422 87.5702018,79.6366972 L87.5628624,79.6366972 C87.5085505,79.6102752 87.4630459,79.5926606 87.4307523,79.5779817 C87.4234128,79.547156 87.3749725,79.4722936 87.2355229,79.3299083 C87.3793761,79.4781651 87.2443303,78.8499083 87.2443303,79.0363303 L87.2443303,71.067156 C87.2443303,70.9086239 87.2296514,70.8895413 87.2120367,70.9144954 C87.2281835,70.8543119 87.2487339,70.7706422 87.275156,70.653211 C87.1577248,71.1669725 87.5716697,70.1688073 87.2355229,70.5900917 C87.3177248,70.4873394 87.3632294,70.4212844 87.3896514,70.3787156 C87.4336881,70.3640367 87.5114862,70.3244037 87.6421284,70.2495413 C87.2032294,70.5078899 88.0193761,70.306789 87.7522202,70.2862385 L95.7434128,70.2862385 C95.821211,70.2862385 95.9694679,70.2891743 95.6039633,70.2348624 C95.7257982,70.2524771 95.8006606,70.2612844 95.8520367,70.2642202 C95.8813945,70.2921101 95.9474495,70.3434862 96.0898349,70.4300917 C95.6068991,70.1438532 96.3628624,70.920367 96.0663486,70.4697248 C96.1338716,70.573945 96.1793761,70.6370642 96.2087339,70.6766972 C96.1837798,70.6766972 96.1705688,70.7486239 96.2322202,71.0201835 C96.1426789,70.6253211 96.1793761,71.2212844 96.1793761,71.3020183 L96.1793761,79.0510092 C96.1793761,78.5122936 96.0267156,79.6220183 96.2395596,79.1288073 C96.1764404,79.2711927 96.1500183,79.3548624 96.1382752,79.400367 L96.1382752,79.400367 Z M99.2971743,64.2370642 C97.3302018,63.067156 94.8891009,63.3255046 92.7004771,63.3255046 L87.6274495,63.3255046 C83.5173578,63.3255046 80.2835963,66.8895413 80.2835963,70.920367 L80.2835963,78.1247706 C80.2835963,79.733578 80.5331376,81.1412844 81.1731376,82.64 C82.1331376,84.8770642 84.5052477,86.173211 86.8245138,86.5108257 C87.074055,86.5651376 87.341211,86.5944954 87.6274495,86.5944954 L92.7004771,86.5944954 C95.0270826,86.5944954 97.1217615,86.7119266 99.2971743,85.6829358 C104.295339,83.3137615 103.14011,76.2737615 103.14011,71.7952294 C103.14011,68.6730275 102.097908,65.9031193 99.2971743,64.2370642 L99.2971743,64.2370642 Z M96.3892844,40.6113761 L96.3892844,50.3009174 C96.3848807,50.3904587 96.381945,50.4565138 96.381945,50.5108257 C96.3569908,50.5533945 96.3202936,50.6502752 96.2659817,50.8322936 C96.4259817,50.3038532 95.9562569,51.133211 96.1793761,50.9056881 C95.9195596,51.1933945 95.6773578,51.3020183 95.2663486,51.413578 C95.554055,51.3357798 94.8171743,51.4253211 94.6116697,51.4253211 L66.0509358,51.4253211 C65.3169908,51.4253211 64.5830459,51.4370642 63.8505688,51.4106422 C64.1382752,51.4077064 63.6421284,51.2726606 63.5848807,51.3020183 C63.3558899,51.1376147 62.9081835,50.8234862 63.2149725,51.0950459 C63.1268991,51.0172477 63.0652477,50.9688073 63.0241468,50.9350459 C63.0109358,50.893945 62.9742385,50.8117431 62.8817615,50.6590826 C63.1606606,51.1273394 62.821578,50.2348624 62.8245138,50.5651376 C62.7716697,50.0322936 62.8171743,49.467156 62.8171743,48.9387156 L62.8171743,40.6113761 C62.8171743,40.4704587 62.8245138,40.3500917 62.8333211,40.1900917 C62.8068991,40.813945 63.1430459,39.6792661 62.8817615,40.2091743 C62.9360734,40.1034862 62.968367,40.0315596 62.9859817,39.9801835 C63.0241468,39.9566972 63.0931376,39.8994495 63.2149725,39.773211 C62.8362569,40.1636697 64.0590092,39.3812844 63.5716697,39.5559633 C63.915156,39.4326606 63.9577248,39.4473394 64.4597431,39.4473394 L94.9713028,39.4473394 C95.0725872,39.4473394 95.1738716,39.4502752 95.2766239,39.453211 C95.2120367,39.4576147 95.2927706,39.4840367 95.5114862,39.5295413 C95.4116697,39.5295413 95.9195596,39.76 96.0824954,39.8333945 C95.9635963,39.8055046 96.3804771,40.3295413 96.2659817,40.0374312 C96.3393761,40.226789 96.3804771,40.2869725 96.4010275,40.3016514 C96.395156,40.3442202 96.3892844,40.4337615 96.3892844,40.6113761 L96.3892844,40.6113761 Z M95.8124037,32.5453211 C94.981578,32.4484404 94.1360734,32.4836697 93.2979083,32.4836697 L68.3613945,32.4836697 C64.6975413,32.4836697 61.2964404,32.2047706 58.2946055,34.8513761 C56.2190092,36.6774312 55.8549725,39.3519266 55.8549725,41.9295413 L55.8549725,48.5042202 C55.8549725,51.067156 56.0707523,53.3981651 57.8102018,55.479633 C59.4703853,57.4715596 61.9804771,58.386055 64.5228624,58.386055 L94.900844,58.386055 C99.3191927,58.386055 102.843596,55.172844 103.304514,50.8689908 C103.329468,50.6884404 103.34855,50.5020183 103.34855,50.3009174 L103.34855,40.5790826 C103.34855,36.2869725 99.9313028,33.0223853 95.8124037,32.5453211 L95.8124037,32.5453211 Z M82.5705688,18.3625688 C82.4663486,18.3889908 82.4428624,18.3772477 82.5705688,18.3625688 L82.5705688,18.3625688 Z M83.5657982,23.4121101 L95.6201101,23.4121101 L95.6201101,18.346422 L83.5657982,18.346422 L83.5657982,23.4121101 Z M95.6186422,17.2968807 C95.5775413,17.1104587 95.6098349,17.0590826 95.6186422,17.2968807 L95.6186422,17.2968807 Z M80.7122202,30.1350459 C81.8542385,30.6106422 83.6802936,30.372844 84.8957064,30.372844 L96.3716697,30.372844 C99.4131376,30.372844 101.676624,28.6348624 102.379743,25.879633 C102.508917,25.5155963 102.580844,25.1089908 102.580844,24.6554128 C102.594055,24.5188991 102.591119,24.3838532 102.580844,24.2488073 L102.580844,19.492844 C102.580844,16.7772477 102.589651,13.9192661 99.9298349,12.2913761 C98.2300183,11.253578 96.4010275,11.3842202 94.5162569,11.3842202 L82.6204771,11.3842202 C79.3235963,11.3842202 76.6050642,13.8561468 76.6050642,17.2249541 L76.6050642,24.6554128 C76.6050642,27.3592661 78.3724037,29.160367 80.7122202,30.1350459 L80.7122202,30.1350459 Z M117.701578,18.3831193 L117.701578,18.3948624 L117.704514,18.3919266 L117.704514,18.3831193 L117.701578,18.3831193 Z M117.701578,26.6106422 L117.701578,18.3948624 C117.659009,18.466789 117.597358,18.5211009 117.509284,18.5401835 C117.610569,18.466789 117.667817,18.4168807 117.701578,18.3831193 L117.701578,18.346422 C117.701578,18.359633 117.704514,18.3684404 117.704514,18.3831193 C117.714789,18.3713761 117.723596,18.3625688 117.729468,18.3566972 C117.723596,18.3713761 117.713321,18.3801835 117.704514,18.3919266 C117.714789,18.6033028 117.785248,18.4755963 117.819009,18.3537615 C117.870385,18.3493578 117.951119,18.3346789 118.083229,18.3023853 C117.833688,18.3655046 117.99956,18.346422 118.071486,18.346422 L141.353688,18.346422 C141.419743,18.5240367 141.443229,18.7045872 141.452037,18.9247706 C141.609101,23.400367 148.571303,23.4179817 148.412771,18.9247706 C148.277725,15.146422 145.879193,11.3842202 141.733872,11.3842202 L125.35956,11.3842202 C122.332771,11.3842202 118.825982,10.9262385 115.852037,11.6866055 C112.428917,12.5629358 110.740844,15.8084404 110.740844,19.0965138 L110.740844,26.6106422 C110.740844,31.0979817 117.701578,31.0979817 117.701578,26.6106422 L117.701578,26.6106422 Z M39.687633,29.9574312 L39.6861651,29.9574312 C39.6758899,29.879633 39.6406606,29.9398165 39.6142385,30.026422 C39.6024954,30.0366972 39.5936881,30.0455046 39.5848807,30.0572477 C39.5790092,30.0631193 39.5760734,30.0689908 39.5760734,30.0689908 C39.5702018,30.0807339 39.5657982,30.0866055 39.5613945,30.0924771 L18.1742385,30.0924771 C18.0714862,30.0924771 17.2171743,30.0601835 17.6795596,30.1350459 C17.6046972,30.1233028 17.5459817,30.1115596 17.4960734,30.1027523 C17.4931376,30.0998165 17.4872661,30.0954128 17.4828624,30.0924771 C17.4784587,30.0807339 17.4725872,30.066055 17.4696514,30.0572477 C17.4872661,30.0631193 17.5004771,30.039633 17.5004771,29.9456881 L17.5004771,18.4491743 C17.6179083,18.4198165 17.7558899,18.346422 17.5195596,18.346422 L39.6685505,18.346422 C39.6685505,18.346422 39.6773578,18.3493578 39.6817615,18.3493578 L39.687633,18.3655046 L39.687633,18.3831193 L39.687633,29.9574312 Z M17.3786422,18.4755963 C17.3845138,18.466789 17.3903853,18.4609174 17.3977248,18.4550459 L17.4006606,18.4550459 C17.3918532,18.4609174 17.3859817,18.4697248 17.3786422,18.4755963 L17.3786422,18.4755963 Z M17.3771743,30.0777982 C17.3037798,30.0601835 17.3199266,30.0572477 17.3771743,30.0777982 L17.3771743,30.0777982 Z M43.2002936,12.333945 C41.7103853,11.3563303 39.9254312,11.3842202 38.2270826,11.3842202 L25.5885505,11.3842202 C22.3856147,11.3842202 19.0050642,11.0730275 15.8285505,11.5882569 C12.461211,12.1357798 10.5397431,15.6572477 10.5397431,18.7765138 L10.5397431,29.9456881 C10.5397431,33.9368807 13.6164404,36.8433028 17.5004771,37.053211 C20.4597431,37.2102752 23.4718532,37.053211 26.434055,37.053211 L38.6542385,37.053211 C39.5834128,37.053211 40.4171743,37.0018349 41.3580917,36.8462385 C44.235156,36.3794495 46.0891009,33.6785321 46.5456147,30.9776147 C46.6102018,30.7031193 46.648367,30.4095413 46.648367,30.0924771 L46.648367,19.3519266 C46.648367,16.4366972 45.741211,14.0058716 43.2002936,12.333945 L43.2002936,12.333945 Z M74.6659817,108.833028 L85.8013945,108.833028 C90.2902018,108.833028 90.2902018,101.872294 85.8013945,101.872294 L74.6659817,101.872294 C70.1757064,101.872294 70.1757064,108.833028 74.6659817,108.833028 L74.6659817,108.833028 Z M152.205798,91.6117431 L7.06231193,91.6117431 L7.06231193,9.92220183 C7.06231193,9.31449541 7.41020183,8.35743119 7.62157798,8.10201835 C8.09717431,7.51779817 8.19699083,7.47082569 8.9867156,7.07009174 C8.58011009,7.27706422 9.31405505,7.04073394 9.53423853,6.97027523 C9.60176147,6.96733945 9.70011009,6.96146789 9.83809174,6.96146789 L149.118826,6.96146789 C150.961028,6.96146789 152.205798,8.09614679 152.205798,10.0234862 L152.205798,91.6117431 Z M152.205798,109.605138 C152.15589,111.272661 150.958092,112.554128 149.413872,112.554128 L9.85423853,112.554128 C9.71625688,112.554128 9.58561468,112.545321 9.43882569,112.540917 C9.97607339,112.557064 8.86047706,112.376514 8.86047706,112.376514 C9.09680734,112.505688 9.02781651,112.471927 8.65056881,112.276697 C8.4333211,112.15633 8.22047706,112.02422 8.01937615,111.877431 C8.35845872,112.104954 7.92102752,111.688073 7.71552294,111.500183 C7.74634862,111.494312 7.51295413,111.146422 7.39111927,110.971743 C7.40726606,110.929174 7.12543119,110.249541 7.12543119,110.249541 C7.09166972,110.126239 7.06524771,110.042569 7.04469725,109.988257 C7.05937615,109.963303 7.06965138,109.864954 7.06231193,109.605138 C7.05937615,109.542018 7.06231193,109.478899 7.06231193,109.41578 L7.06231193,98.5724771 L152.205798,98.5724771 L152.205798,109.605138 Z M102.586716,135.137615 C102.850936,135.218349 103.107817,135.306422 103.366165,135.401835 C103.40433,135.416514 103.43222,135.426789 103.46011,135.435596 C103.489468,135.450275 103.51589,135.462018 103.555523,135.479633 C103.580477,135.492844 103.605431,135.507523 103.630385,135.519266 L103.630385,136.60844 L103.504147,136.60844 L57.0689174,136.60844 C56.9955229,136.60844 56.914789,136.599633 56.8355229,136.582018 L56.8355229,135.51633 C56.8590092,135.504587 56.8824954,135.49578 56.9045138,135.484037 C56.6990092,135.585321 57.195156,135.366606 57.3169908,135.324037 C57.5210275,135.249174 57.7338716,135.191927 57.9335046,135.114128 C59.7390092,134.42422 61.5401101,133.729908 63.3441468,133.035596 C64.5199266,132.583486 65.7500183,132.222385 66.4355229,131.046606 C66.7790092,130.462385 66.8832294,129.801835 67.034422,129.157431 C67.514422,127.100917 67.9929541,125.045872 68.4714862,122.98789 C68.6828624,122.082202 68.8942385,121.175046 69.1070826,120.269358 L90.1610275,120.269358 C90.8641468,123.285872 91.5672661,126.302385 92.2718532,129.314495 C92.5492844,130.513761 92.9001101,131.605872 94.0788257,132.297248 C94.8362569,132.737615 95.8388257,132.947523 96.6623119,133.214679 C98.6395596,133.856147 100.613872,134.496147 102.586716,135.137615 L102.586716,135.137615 Z M149.430018,0.000733944954 L10.1507523,0.000733944954 C4.9133211,0.000733944954 0.625614679,3.87302752 0.150018349,9.10605505 C-0.156770642,12.4719266 0.101577982,15.9611009 0.101577982,19.3343119 L0.101577982,109.24844 C0.101577982,114.816147 4.19992661,119.334312 9.83515596,119.51633 C10.4707523,119.535413 11.1136881,119.51633 11.7507523,119.51633 L62.1390092,119.51633 L60.4568073,126.72367 C59.461578,127.103853 58.4692844,127.485505 57.4725872,127.870092 C55.8446972,128.498349 54.1155229,128.997431 52.6124037,129.897248 C51.0902018,130.805872 49.8762569,132.333945 49.8762569,134.177615 L49.8762569,137.110459 C49.8762569,141.084037 53.0997431,143.569174 56.9558899,143.569174 L100.092771,143.569174 C103.097541,143.569174 106.168367,143.839266 108.66378,141.757798 C110.936073,139.862752 110.591119,137.020917 110.591119,134.386055 C110.591119,130.992294 107.454239,129.426055 104.65644,128.495413 C104.585982,128.468991 104.512587,128.446972 104.439193,128.426422 C102.552954,127.812844 100.666716,127.202202 98.7790092,126.588624 C98.2300183,124.231193 97.6795596,121.872294 97.1305688,119.51633 L149.054239,119.51633 C153.767633,119.51633 157.929101,116.419083 158.934606,111.726239 C159.08433,111.034862 159.145982,110.312661 159.166532,109.605138 L159.166532,10.1952294 C159.166532,4.78165138 155.013872,0.000733944954 149.430018,0.000733944954 L149.430018,0.000733944954 Z" id="Fill-1"></path>
        </g>
    </g>
</svg>