<?xml version="1.0" encoding="UTF-8"?>
<svg width="39px" height="40px" viewBox="0 0 39 40" version="1.1" xmlns="http://www.w3.org/2000/svg" xmlns:xlink="http://www.w3.org/1999/xlink">
    <!-- Generator: Sketch 44.1 (41455) - http://www.bohemiancoding.com/sketch -->
    <title>Page 1</title>
    <desc>Created with Sketch.</desc>
    <defs></defs>
    <g id="Mock-Ups" stroke="none" stroke-width="1" fill="none" fill-rule="evenodd" opacity="0.491508152">
        <g id="Artboard" transform="translate(-134.000000, -6443.000000)" fill="#FFFFFF">
            <g id="Page-1" transform="translate(134.000000, 6443.000000)">
                <path d="M21.1682355,37.0594894 L19.2706548,39.9999149 L17.3722355,37.0594894 C9.52862258,36.1726809 3.30246129,29.8548085 2.42936452,21.8458723 L4.19354838e-05,19.9450213 L2.42936452,18.0445957 C3.3033,10.0854468 9.52904194,3.768 17.3722355,2.88119149 L19.2450742,-8.5106383e-05 L21.1183323,2.88119149 C29.0105903,3.768 35.237171,10.0854468 36.1111065,18.0445957 L38.9505581,19.9450213 L36.1111065,21.8458723 C35.2380097,29.8548085 29.0105903,36.1726809 21.1682355,37.0594894 M19.0000419,7.99991489 C12.3734622,7.99991489 7.00004194,13.3730254 7.00004194,19.9997153 C7.00004194,26.6268044 12.3738613,31.9999149 19.0000419,31.9999149 C25.6270208,31.9999149 31.0000419,26.6268044 31.0000419,19.9997153 C31.0000419,13.3730254 25.6270208,7.99991489 19.0000419,7.99991489" id="Fill-1"></path>
            </g>
        </g>
    </g>
</svg>