<?xml version="1.0" encoding="UTF-8"?>
<svg width="378px" height="276px" viewBox="0 0 378 276" version="1.1" xmlns="http://www.w3.org/2000/svg" xmlns:xlink="http://www.w3.org/1999/xlink">
    <!-- Generator: Sketch 45.1 (43504) - http://www.bohemiancoding.com/sketch -->
    <title>Group 22</title>
    <desc>Created with Sketch.</desc>
    <defs>
        <path d="M136.118277,230.969561 C136.121874,230.970294 136.124752,230.97066 136.124752,230.97066 C136.146695,231.031472 136.12727,231.002898 136.118277,230.969561 M136.117557,271.081133 C136.117557,271.081133 136.116118,271.082965 136.115399,271.083697 C135.958918,271.145608 136.109284,271.079668 136.109284,271.079668 L106.892032,271.079668 C106.890594,271.079668 106.889874,271.079301 106.889874,271.079301 C106.888075,271.076737 106.887716,271.074905 106.886996,271.072707 C106.876564,270.861698 106.886996,270.647025 106.886996,270.435649 L106.886996,241.522597 L115.153484,241.522597 C116.322951,241.522597 117.274425,240.553272 117.274425,239.362314 L117.274425,230.944284 L136.112521,230.944284 C136.071153,230.944284 136.095974,230.962967 136.11468,230.968829 L136.11468,270.839351 C136.11468,270.874153 136.106406,271.156232 136.126191,271.030579 C136.123313,271.051094 136.120435,271.067579 136.117557,271.081133 M136.110723,271.114103 C136.106406,271.134618 136.105686,271.129856 136.110723,271.114103 M106.892392,271.092489 L106.892752,271.092489 C106.897428,271.103846 106.900306,271.115202 106.901745,271.12839 C106.898148,271.114836 106.89491,271.103113 106.892392,271.092489 M115.088014,232.287637 C115.188018,232.189459 115.288741,232.091281 115.388745,231.993103 L115.388745,239.362314 C115.388745,239.494562 115.282986,239.601898 115.153484,239.601898 L107.621196,239.601898 C110.110135,237.163567 112.599075,234.725602 115.088014,232.287637 M136.117557,230.942452 L136.119356,230.947581 C136.111082,230.938789 136.099211,230.9267 136.079786,230.910215 C136.095254,230.923037 136.107485,230.93366 136.117557,230.942452 M136.217201,229.029447 C135.081189,228.966803 133.927909,229.023585 132.790817,229.023585 L116.525117,229.023585 C116.076899,229.023585 115.707102,229.016991 115.344139,229.372703 C112.367412,232.289103 109.389605,235.205502 106.412519,238.121535 C106.039124,238.487504 105.666089,238.853474 105.292694,239.219077 C104.963545,239.541086 105.001316,239.941125 105.001316,240.350322 L105.001316,270.577421 C105.001316,271.056955 104.986567,271.513409 105.214274,271.961072 C105.623281,272.764812 106.404964,273 107.217944,273 L135.96971,273 C137.053203,273 138,272.227031 138,271.064282 L138,230.965898 C138,229.952979 137.216878,229.084397 136.217201,229.029447 M131.878194,261.568491 L121.201546,261.568491 C120.612316,261.568491 120.14971,262.066708 120.14971,262.702301 C120.14971,263.337893 120.612316,263.83611 121.201546,263.83611 L131.878194,263.83611 C132.468144,263.83611 132.930391,263.337893 132.930391,262.702301 C132.930391,262.066708 132.468144,261.568491 131.878194,261.568491 M132.182522,253.946509 L121.17061,253.946509 C120.588934,253.946509 120.14971,254.433735 120.14971,255.079585 C120.14971,255.726168 120.588934,256.213761 121.17061,256.213761 L132.182522,256.213761 C132.764198,256.213761 133.202703,255.726168 133.202703,255.079585 C133.202703,254.433735 132.764198,253.946509 132.182522,253.946509 M132.23792,246.059665 L121.174927,246.059665 C120.600086,246.059665 120.14971,246.558248 120.14971,247.193841 C120.14971,247.829434 120.600086,248.32765 121.174927,248.32765 L132.23792,248.32765 C132.81312,248.32765 133.263137,247.829434 133.263137,247.193841 C133.263137,246.558248 132.81312,246.059665 132.23792,246.059665 M115.816818,259.333477 C114.917505,260.245653 114.017832,261.157829 113.118518,262.070005 C112.77606,261.726016 112.433961,261.382393 112.091502,261.038404 C111.225644,260.16799 109.891422,261.52563 110.758001,262.396044 C111.323849,262.964597 111.889337,263.532784 112.455185,264.100604 C112.821385,264.468772 113.422486,264.472069 113.788687,264.100604 C114.909231,262.964597 116.029775,261.827857 117.15032,260.691484 C118.012941,259.816674 116.679439,258.459033 115.816818,259.333477 M115.816818,252.052186 C114.917505,252.963996 114.017832,253.876172 113.118518,254.788715 C112.77606,254.444359 112.433961,254.101103 112.091502,253.756747 C111.225644,252.886699 109.891422,254.243973 110.758001,255.114754 C111.323849,255.68294 111.889337,256.251127 112.455185,256.819314 C112.821385,257.187482 113.422486,257.190412 113.788687,256.819314 C114.909231,255.68294 116.029775,254.546567 117.15032,253.410193 C118.012941,252.535383 116.679439,251.177377 115.816818,252.052186 M115.816818,244.770896 C114.917505,245.682706 114.017832,246.594882 113.118518,247.507424 C112.77606,247.163069 112.433961,246.819446 112.091502,246.47509 C111.225644,245.605043 109.891422,246.962683 110.758001,247.833097 C111.323849,248.40165 111.889337,248.969837 112.455185,249.53839 C112.821385,249.905825 113.422486,249.908756 113.788687,249.53839 L117.15032,246.128537 C118.012941,245.253727 116.679439,243.896086 115.816818,244.770896" id="path-1"></path>
        <filter x="0.0%" y="-0.0%" width="100.0%" height="100.0%" filterUnits="objectBoundingBox" id="filter-2">
            <feOffset dx="0" dy="0" in="SourceAlpha" result="shadowOffsetOuter1"></feOffset>
            <feColorMatrix values="0 0 0 0 0.0901960784   0 0 0 0 0.478431373   0 0 0 0 0.803921569  0 0 0 1 0" type="matrix" in="shadowOffsetOuter1"></feColorMatrix>
        </filter>
    </defs>
    <g id="Page-5" stroke="none" stroke-width="1" fill="none" fill-rule="evenodd">
        <g id="Group-22" transform="translate(2.000000, 3.000000)">
            <circle id="Oval" stroke="#177ACD" stroke-width="4" opacity="0.294950181" cx="8" cy="149" r="8"></circle>
            <path d="M372.1875,128.34375 C373.125005,129.218754 373.828123,130.132808 374.296875,131.085938 C374.765627,132.039067 375.015625,132.999995 375.046875,133.96875 C375.078125,135.000005 374.859377,136.007808 374.390625,136.992188 C373.921873,137.976567 373.23438,138.937495 372.328125,139.875 C371.890623,140.343752 370.14064,142.093735 367.078125,145.125 C364.01561,148.156265 360.710955,151.42967 357.164062,154.945312 C353.61717,158.460955 350.35939,161.687485 347.390625,164.625 C344.42186,167.562515 342.796876,169.171874 342.515625,169.453125 C342.421875,169.546875 342.320313,169.625 342.210938,169.6875 C342.101562,169.75 341.984376,169.796875 341.859375,169.828125 C341.421873,169.953126 340.500007,170.242185 339.09375,170.695312 C337.687493,171.14844 336.242195,171.609373 334.757812,172.078125 C333.27343,172.546877 331.937506,172.976561 330.75,173.367188 C329.562494,173.757814 328.953125,173.953125 328.921875,173.953125 C328.859375,173.984375 328.789063,174.007812 328.710938,174.023438 C328.632812,174.039063 328.546875,174.046875 328.453125,174.046875 C328.265624,174.046875 328.078126,174.007813 327.890625,173.929688 C327.703124,173.851562 327.546876,173.734376 327.421875,173.578125 C327.203124,173.390624 327.0625,173.156251 327,172.875 C326.9375,172.593749 326.9375,172.312501 327,172.03125 C327.03125,172 327.218748,171.414068 327.5625,170.273438 C327.906252,169.132807 328.304685,167.812508 328.757812,166.3125 C329.21094,164.812492 329.648435,163.35157 330.070312,161.929688 C330.49219,160.507805 330.781249,159.484378 330.9375,158.859375 C331,158.734374 331.0625,158.617188 331.125,158.507812 C331.1875,158.398437 331.265625,158.296875 331.359375,158.203125 L345.890625,143.671875 C349.546893,140.015607 352.929672,136.625016 356.039062,133.5 C359.148453,130.374984 360.812499,128.718751 361.03125,128.53125 C361.343752,128.218748 362.01562,127.710941 363.046875,127.007812 C364.07813,126.304684 365.343743,125.953125 366.84375,125.953125 C367.812505,125.953125 368.742183,126.156248 369.632812,126.5625 C370.523442,126.968752 371.374996,127.562496 372.1875,128.34375 Z M360.5625,133.3125 C359.093743,134.750007 357.218761,136.609364 354.9375,138.890625 C352.656239,141.171886 350.3047,143.531238 347.882812,145.96875 C345.460925,148.406262 343.140636,150.734364 340.921875,152.953125 L335.625,158.25 C336.250003,158.500001 336.945309,158.859373 337.710938,159.328125 C338.476566,159.796877 339.249996,160.421871 340.03125,161.203125 C340.656253,161.859378 341.179685,162.523434 341.601562,163.195312 C342.02344,163.867191 342.359374,164.484372 342.609375,165.046875 C343.921882,163.734368 345.679676,161.992198 347.882812,159.820312 C350.085949,157.648427 352.390613,155.367199 354.796875,152.976562 C357.203137,150.585926 359.539051,148.265636 361.804688,146.015625 C364.070324,143.765614 365.937493,141.921882 367.40625,140.484375 C367.375,140.234374 367.195314,139.648442 366.867188,138.726562 C366.539061,137.804683 365.906255,136.875005 364.96875,135.9375 C364.031245,135.031245 363.156254,134.390627 362.34375,134.015625 C361.531246,133.640623 360.937502,133.40625 360.5625,133.3125 Z M333.5625,160.78125 C333.218748,161.937506 332.742191,163.46874 332.132812,165.375 C331.523434,167.28126 331.000002,168.937493 330.5625,170.34375 C332.031257,169.874998 333.734365,169.312503 335.671875,168.65625 C337.609385,167.999997 339.093745,167.500002 340.125,167.15625 C339.968749,166.687498 339.718752,166.109378 339.375,165.421875 C339.031248,164.734372 338.531253,164.062503 337.875,163.40625 C336.999996,162.531246 336.171879,161.898439 335.390625,161.507812 C334.609371,161.117186 334.000002,160.875 333.5625,160.78125 Z M370.125,137.71875 C370.750003,137.093747 371.218748,136.468753 371.53125,135.84375 C371.843752,135.218747 372,134.625003 372,134.0625 C372,133.499997 371.835939,132.921878 371.507812,132.328125 C371.179686,131.734372 370.703128,131.140628 370.078125,130.546875 C369.578123,130.046873 369.05469,129.671876 368.507812,129.421875 C367.960935,129.171874 367.406253,129.046875 366.84375,129.046875 C365.874995,129.046875 365.039066,129.296873 364.335938,129.796875 C363.632809,130.296877 363.25,130.59375 363.1875,130.6875 L362.953125,130.921875 C363.546878,131.171876 364.203121,131.523435 364.921875,131.976562 C365.640629,132.42969 366.374996,133.031246 367.125,133.78125 C367.843754,134.500004 368.421873,135.234371 368.859375,135.984375 C369.296877,136.734379 369.624999,137.421872 369.84375,138.046875 C369.90625,137.984375 369.960937,137.921875 370.007812,137.859375 C370.054688,137.796875 370.09375,137.75 370.125,137.71875 Z" id="Pencil---simple-line-icons" fill="#177ACD" opacity="0.391644022"></path>
            <path d="M94.796875,4 C96.0468812,4 97.1093706,4.43749562 97.984375,5.3125 C98.8593794,6.18750438 99.296875,7.24999375 99.296875,8.5 L99.296875,47.5 C99.296875,48.7500062 98.8593794,49.8124956 97.984375,50.6875 C97.1093706,51.5625044 96.0468812,52 94.796875,52 L64.84375,52 C64.2812472,52 63.6328162,51.8125019 62.8984375,51.4375 C62.1640588,51.0624981 61.796875,50.2500062 61.796875,49 L61.796875,42.953125 L60.25,42.953125 C59.8749981,42.953125 59.539064,42.804689 59.2421875,42.5078125 C58.945311,42.210936 58.796875,41.859377 58.796875,41.453125 C58.796875,41.046873 58.945311,40.7031264 59.2421875,40.421875 C59.539064,40.1406236 59.8749981,40 60.25,40 L61.796875,40 L61.796875,34 L60.25,34 C59.8749981,34 59.539064,33.851564 59.2421875,33.5546875 C58.945311,33.257811 58.796875,32.906252 58.796875,32.5 C58.796875,32.093748 58.945311,31.7500014 59.2421875,31.46875 C59.539064,31.1874986 59.8749981,31.046875 60.25,31.046875 L61.796875,31.046875 L61.796875,24.953125 L60.296875,24.953125 C59.890623,24.953125 59.5468764,24.8125014 59.265625,24.53125 C58.9843736,24.2499986 58.84375,23.906252 58.84375,23.5 C58.84375,23.093748 58.9843736,22.7500014 59.265625,22.46875 C59.5468764,22.1874986 59.890623,22.046875 60.296875,22.046875 L61.796875,22.046875 L61.796875,16 L60.15625,16 C59.749998,16 59.4062514,15.8593764 59.125,15.578125 C58.8437486,15.2968736 58.703125,14.953127 58.703125,14.546875 C58.703125,14.140623 58.8437486,13.789064 59.125,13.4921875 C59.4062514,13.195311 59.749998,13.046875 60.15625,13.046875 L61.796875,13.046875 L61.796875,7.09375 C61.796875,6.34374625 62.0468725,5.64062828 62.546875,4.984375 C63.0468775,4.32812172 63.8281197,4 64.890625,4 L94.796875,4 Z M64.796875,49 L88.796875,49 L88.796875,7 L64.796875,7 L64.796875,13.046875 L66.25,13.046875 C66.656252,13.046875 66.9999986,13.195311 67.28125,13.4921875 C67.5625014,13.789064 67.703125,14.140623 67.703125,14.546875 C67.703125,14.953127 67.5625014,15.2968736 67.28125,15.578125 C66.9999986,15.8593764 66.656252,16 66.25,16 L64.796875,16 L64.796875,22.046875 L66.390625,22.046875 C66.796877,22.046875 67.1406236,22.1874986 67.421875,22.46875 C67.7031264,22.7500014 67.84375,23.093748 67.84375,23.5 C67.84375,23.906252 67.7031264,24.2499986 67.421875,24.53125 C67.1406236,24.8125014 66.796877,24.953125 66.390625,24.953125 L64.796875,24.953125 L64.796875,31.046875 L66.34375,31.046875 C66.750002,31.046875 67.101561,31.1874986 67.3984375,31.46875 C67.695314,31.7500014 67.84375,32.093748 67.84375,32.5 C67.84375,32.906252 67.695314,33.257811 67.3984375,33.5546875 C67.101561,33.851564 66.750002,34 66.34375,34 L64.796875,34 L64.796875,40 L66.34375,40 C66.750002,40 67.101561,40.1406236 67.3984375,40.421875 C67.695314,40.7031264 67.84375,41.046873 67.84375,41.453125 C67.84375,41.859377 67.695314,42.210936 67.3984375,42.5078125 C67.101561,42.804689 66.750002,42.953125 66.34375,42.953125 L64.796875,42.953125 L64.796875,49 Z M96.296875,47.5 L96.296875,8.5 C96.296875,8.09374797 96.148439,7.74218898 95.8515625,7.4453125 C95.554686,7.14843602 95.203127,7 94.796875,7 L91.796875,7 L91.796875,49 L94.796875,49 C95.203127,49 95.554686,48.851564 95.8515625,48.5546875 C96.148439,48.257811 96.296875,47.906252 96.296875,47.5 Z" id="Notebook---simple-line-icons" fill="#177ACD" opacity="0.391644022"></path>
            <polygon id="Star" stroke="#0878D0" stroke-width="5" opacity="0.227185236" stroke-linejoin="round" points="312 22.5 303.183221 27.1352549 304.867076 17.3176275 297.734152 10.3647451 307.591611 8.93237254 312 0 316.408389 8.93237254 326.265848 10.3647451 319.132924 17.3176275 320.816779 27.1352549"></polygon>
            <g id="Page-1" opacity="0.18823596">
                <use fill="black" fill-opacity="1" filter="url(#filter-2)" xlink:href="#path-1"></use>
                <use fill="#177ACD" fill-rule="evenodd" xlink:href="#path-1"></use>
            </g>
        </g>
    </g>
</svg>