<?xml version="1.0" encoding="UTF-8"?>
<svg width="160px" height="159px" viewBox="0 0 160 159" version="1.1" xmlns="http://www.w3.org/2000/svg" xmlns:xlink="http://www.w3.org/1999/xlink">
    <!-- Generator: Sketch 45.1 (43504) - http://www.bohemiancoding.com/sketch -->
    <title>Fill 1</title>
    <desc>Created with Sketch.</desc>
    <defs></defs>
    <g id="Page-5" stroke="none" stroke-width="1" fill="none" fill-rule="evenodd">
        <g id="Page-1" fill="#FF8E40">
            <path d="M118.413945,16.7048889 C122.902752,16.7048889 122.902752,9.68118519 118.413945,9.68118519 L100.932844,9.68118519 C96.4455046,9.68118519 96.4455046,16.7048889 100.932844,16.7048889 L118.413945,16.7048889 Z M127.115596,0.00118518519 L100.932844,0.00118518519 C96.4455046,0.00118518519 96.4455046,7.02637037 100.932844,7.02637037 L127.115596,7.02637037 C131.602936,7.02637037 131.602936,0.00118518519 127.115596,0.00118518519 L127.115596,0.00118518519 Z M149.881101,71.1863704 L132.401468,71.1863704 C127.912661,71.1863704 127.912661,78.213037 132.401468,78.213037 L149.881101,78.213037 C154.371376,78.213037 154.371376,71.1863704 149.881101,71.1863704 L149.881101,71.1863704 Z M155.68367,61.5063704 L132.401468,61.5063704 C127.912661,61.5063704 127.912661,68.5315556 132.401468,68.5315556 L155.68367,68.5315556 C160.172477,68.5315556 160.172477,61.5063704 155.68367,61.5063704 L155.68367,61.5063704 Z M66.0601835,151.516741 L48.5805505,151.516741 C44.0917431,151.516741 44.0917431,158.541926 48.5805505,158.541926 L66.0601835,158.541926 C70.5489908,158.541926 70.5489908,151.516741 66.0601835,151.516741 L66.0601835,151.516741 Z M74.7618349,141.838222 L48.5805505,141.838222 C44.0917431,141.838222 44.0917431,148.861926 48.5805505,148.861926 L74.7618349,148.861926 C79.2506422,148.861926 79.2506422,141.838222 74.7618349,141.838222 L74.7618349,141.838222 Z M3.62348624,16.7048889 L21.1031193,16.7048889 C25.5933945,16.7048889 25.5933945,9.68118519 21.1031193,9.68118519 L3.62348624,9.68118519 C-0.866788991,9.68118519 -0.866788991,16.7048889 3.62348624,16.7048889 L3.62348624,16.7048889 Z M3.62348624,7.02637037 L29.8047706,7.02637037 C34.2921101,7.02637037 34.2921101,0.00118518519 29.8047706,0.00118518519 L3.62348624,0.00118518519 C-0.866788991,0.00118518519 -0.866788991,7.02637037 3.62348624,7.02637037 L3.62348624,7.02637037 Z M15.6719266,102.540444 C12.0844037,97.1211852 9.57284404,91.0219259 8.1387156,84.6722963 C6.56366972,77.696 6.62678899,69.9256296 7.7306422,63.296 C8.8212844,56.7404444 10.8792661,50.6071111 13.8165138,44.9537778 C16.8300917,39.1582222 20.3544954,34.4797037 25.0620183,30.0426667 C32.6025688,22.9374815 42.3288073,18.5997037 52.5746789,17.7597037 C52.5497248,31.0397037 52.5233028,44.3182222 52.4983486,57.5997037 C52.4910092,61.3167407 52.4822018,65.0382222 52.4763303,68.7567407 C42.1644037,78.2204444 31.8510092,87.6871111 21.5405505,97.1537778 C19.5838532,98.9478519 17.627156,100.744889 15.6719266,102.540444 L15.6719266,102.540444 Z M58.413945,72.7922963 C58.4447706,72.7641481 58.4711927,72.7315556 58.5005505,72.7034074 C58.5372477,72.6648889 58.5724771,72.6293333 58.6106422,72.5908148 C58.6502752,72.5448889 58.6884404,72.4974815 58.7266055,72.4515556 C58.760367,72.4085926 58.7941284,72.3641481 58.826422,72.3197037 C58.8587156,72.2752593 58.8866055,72.2308148 58.9159633,72.1878519 C58.9497248,72.133037 58.9834862,72.0767407 59.0143119,72.0204444 C59.0377982,71.9804444 59.0568807,71.9404444 59.0774312,71.9019259 C59.1097248,71.8352593 59.1390826,71.7700741 59.1669725,71.7019259 C59.1831193,71.6648889 59.1963303,71.6263704 59.2095413,71.5893333 C59.2374312,71.5197037 59.2609174,71.4471111 59.2829358,71.3715556 C59.2961468,71.3345185 59.3034862,71.2945185 59.3137615,71.2545185 C59.332844,71.1804444 59.3519266,71.1048889 59.3651376,71.0248889 C59.3710092,70.9922963 59.3754128,70.9582222 59.3812844,70.9256296 C59.4121101,70.7300741 59.4326606,70.5256296 59.4326606,70.3078519 C59.4620183,55.8071111 59.4899083,41.3048889 59.5177982,26.8026667 C59.5280734,22.5671111 59.5354128,18.3315556 59.5442202,14.0945185 C59.547156,12.1848889 57.9574312,10.573037 56.0638532,10.5804444 C42.506422,10.6352593 29.7401835,16.0278519 19.8627523,25.3345185 C10.1497248,34.4885926 3.7453211,47.1315556 1.23229358,60.2322963 C-0.377981651,68.6204444 -0.441100917,77.2056296 1.22348624,85.5893333 C3.02018349,94.6263704 7.13321101,102.983407 12.6921101,110.244148 C13.8899083,111.808593 16.3500917,111.404148 17.613945,110.244148 C28.2634862,100.46637 38.9144954,90.6900741 49.5655046,80.9152593 C52.5144954,78.2071111 55.4649541,75.5004444 58.413945,72.7922963 L58.413945,72.7922963 Z M70.333211,18.0411852 C75.5765138,18.7078519 80.7082569,20.138963 85.1559633,22.4767407 C89.1089908,24.5582222 92.2062385,26.9863704 95.2990826,29.9285926 C86.7985321,37.6071111 78.2965138,45.2841481 69.7944954,52.9641481 C69.9750459,41.3226667 70.1541284,29.6826667 70.333211,18.0411852 L70.333211,18.0411852 Z M68.653945,63.4085926 C79.2711927,53.818963 89.8884404,44.2278519 100.505688,34.6382222 C101.285138,33.936 102.061651,33.2308148 102.842569,32.5285926 C104.264954,31.2426667 104.115229,28.8693333 102.842569,27.5611852 C98.5445872,23.1419259 93.7959633,19.1093333 88.333945,16.2367407 C81.6888073,12.7404444 74.346422,11.1671111 66.9130275,10.6871111 C65.8355963,10.6174815 64.8579817,11.176 64.2150459,12.0026667 C63.8143119,12.4722963 63.5354128,13.0767407 63.4561468,13.8204444 C63.4414679,13.9478519 63.4326606,14.0722963 63.4326606,14.1997037 C63.2110092,28.6204444 62.9878899,43.0411852 62.7647706,57.4634074 C62.747156,58.616 62.7280734,59.7700741 62.7119266,60.9241481 C62.6634862,64.1345185 66.4697248,65.378963 68.653945,63.4085926 L68.653945,63.4085926 Z M107.351927,103.56563 C97.7078899,94.5167407 88.0623853,85.4663704 78.4183486,76.418963 C77.0943119,75.1745185 75.7658716,73.9300741 74.4418349,72.6856296 C84.266422,63.7226667 94.093945,54.7597037 103.92,45.7997037 C104.998899,44.816 106.079266,43.8322963 107.156697,42.8471111 C113.323303,51.5700741 116.656881,62.1093333 116.79633,72.8426667 C116.938716,83.7582222 113.57578,94.6471111 107.351927,103.56563 L107.351927,103.56563 Z M105.145688,35.2248889 C94.4242202,45.0041481 83.7042202,54.7804444 72.9827523,64.5597037 C70.9321101,66.4278519 68.8829358,68.2974815 66.8337615,70.1656296 C65.4627523,71.416 65.4950459,73.8782222 66.8337615,75.133037 L98.6576147,104.995259 C100.88,107.079704 103.09945,109.162667 105.321835,111.24563 C105.580183,111.507852 105.89578,111.722667 106.242202,111.890074 C106.27156,111.904889 106.29945,111.916741 106.330275,111.930074 C106.408073,111.96563 106.488807,111.998222 106.571009,112.027852 C106.59156,112.036741 106.615046,112.044148 106.637064,112.051556 C107.881835,112.48563 109.390826,112.309333 110.24367,111.24563 C118.891009,100.470815 123.699817,87.2397037 123.76,73.3419259 C123.823119,59.4041481 118.77211,45.9626667 110.067523,35.2248889 C108.82422,33.6885926 106.443303,34.0397037 105.145688,35.2248889 L105.145688,35.2248889 Z M61.8634862,128.78637 C49.1574312,128.838222 36.8785321,123.999704 27.3988991,115.592296 C37.1853211,106.549333 46.973211,97.5034074 56.7611009,88.4619259 C58.4168807,86.9300741 60.0726606,85.4026667 61.7269725,83.8722963 C71.4693578,93.0678519 81.2088073,102.263407 90.9497248,111.458963 C92.5776147,112.995259 94.2040367,114.531556 95.8319266,116.067852 C86.4080734,124.315259 74.4359633,128.734519 61.8634862,128.78637 L61.8634862,128.78637 Z M71.7365138,83.7078519 C69.2293578,81.3404444 66.7236697,78.973037 64.2150459,76.6071111 C62.7838532,75.2545185 60.7258716,75.2811852 59.293211,76.6071111 C48.6216514,86.4678519 37.9500917,96.3271111 27.2770642,106.187852 C24.7948624,108.482667 22.3082569,110.778963 19.8231193,113.075259 C19.1552294,113.693037 18.8322936,114.558222 18.8161468,115.435259 C18.7442202,116.307852 19.026055,117.230815 19.8231193,118.042667 C30.8146789,129.230815 45.7812844,135.611556 61.3849541,135.810074 C77.0678899,136.010074 92.3016514,129.724148 103.395963,118.559704 C104.702385,117.242667 104.778716,114.898963 103.395963,113.590815 C92.8418349,103.630815 82.2906422,93.6693333 71.7365138,83.7078519 L71.7365138,83.7078519 Z" id="Fill-1"></path>
        </g>
    </g>
</svg>