<?xml version="1.0" encoding="UTF-8"?>
<svg width="441px" height="319px" viewBox="0 0 441 319" version="1.1" xmlns="http://www.w3.org/2000/svg" xmlns:xlink="http://www.w3.org/1999/xlink">
    <!-- Generator: Sketch 45.1 (43504) - http://www.bohemiancoding.com/sketch -->
    <title>Group 25</title>
    <desc>Created with Sketch.</desc>
    <defs></defs>
    <g id="Page-5" stroke="none" stroke-width="1" fill="none" fill-rule="evenodd">
        <g id="Group-25" transform="translate(0.000000, 2.000000)">
            <path d="M401.046875,67.5625 C401.078125,67.6562505 401.085938,67.7421871 401.070312,67.8203125 C401.054687,67.8984379 401.03125,67.9843745 401,68.078125 C401,68.1406253 401.007812,68.2109371 401.023438,68.2890625 C401.039063,68.3671879 401.046875,68.4531245 401.046875,68.546875 C401.046875,69.9843822 400.77344,71.3359312 400.226562,72.6015625 C399.679685,73.8671938 398.929692,74.9765577 397.976562,75.9296875 C397.023433,76.8828173 395.914069,77.6328098 394.648438,78.1796875 C393.382806,78.7265652 392.015632,79 390.546875,79 C389.109368,79 387.750006,78.7265652 386.46875,78.1796875 C385.187494,77.6328098 384.062505,76.8828173 383.09375,75.9296875 C382.124995,74.9765577 381.359378,73.8671938 380.796875,72.6015625 C380.234372,71.3359312 379.953125,69.9843822 379.953125,68.546875 C379.953125,68.0781227 379.976562,67.6328146 380.023438,67.2109375 C380.070313,66.7890604 380.156249,66.375002 380.28125,65.96875 C379.968748,65.8437494 379.531253,65.7187506 378.96875,65.59375 C378.406247,65.4687494 377.750004,65.40625 377,65.40625 C376.218746,65.40625 375.55469,65.4765618 375.007812,65.6171875 C374.460935,65.7578132 374.031252,65.8906244 373.71875,66.015625 C373.8125,66.421877 373.890625,66.8359354 373.953125,67.2578125 C374.015625,67.6796896 374.046875,68.1093728 374.046875,68.546875 C374.046875,69.9843822 373.77344,71.3359312 373.226562,72.6015625 C372.679685,73.8671938 371.929692,74.9765577 370.976562,75.9296875 C370.023433,76.8828173 368.914069,77.6328098 367.648438,78.1796875 C366.382806,78.7265652 365.015632,79 363.546875,79 C362.109368,79 360.750006,78.7265652 359.46875,78.1796875 C358.187494,77.6328098 357.062505,76.8828173 356.09375,75.9296875 C355.124995,74.9765577 354.359378,73.8671938 353.796875,72.6015625 C353.234372,71.3359312 352.953125,69.9843822 352.953125,68.546875 L352.953125,67.890625 C352.953125,67.8281247 352.945313,67.7578129 352.929688,67.6796875 C352.914062,67.6015621 352.921875,67.5312503 352.953125,67.46875 C352.953125,67.3124992 353.078124,66.437508 353.328125,64.84375 C353.578126,63.249992 353.859373,61.4687598 354.171875,59.5 C354.484377,57.5312402 354.789061,55.6484465 355.085938,53.8515625 C355.382814,52.0546785 355.578125,50.8750028 355.671875,50.3125 C355.671875,50.1874994 355.679687,50.070313 355.695312,49.9609375 C355.710938,49.851562 355.734375,49.7343756 355.765625,49.609375 C355.890626,48.4531192 356.351559,47.0625081 357.148438,45.4375 C357.945316,43.8124919 360.062483,43 363.5,43 C363.906252,43 364.257811,43.148436 364.554688,43.4453125 C364.851564,43.742189 365,44.093748 365,44.5 C365,44.906252 364.851564,45.257811 364.554688,45.5546875 C364.257811,45.851564 363.906252,46 363.5,46 C361.374989,46 360.08594,46.3828087 359.632812,47.1484375 C359.179685,47.9140663 358.875001,48.8593694 358.71875,49.984375 C358.71875,50.1093756 358.703125,50.2421868 358.671875,50.3828125 C358.640625,50.5234382 358.625,50.6562494 358.625,50.78125 C358.53125,51.3125027 358.312502,52.523428 357.96875,54.4140625 C357.624998,56.304697 357.281252,58.2968645 356.9375,60.390625 C357.843755,59.6718714 358.859369,59.1015646 359.984375,58.6796875 C361.109381,58.2578104 362.296869,58.046875 363.546875,58.046875 C365.484385,58.046875 367.24218,58.5234327 368.820312,59.4765625 C370.398445,60.4296923 371.656245,61.6718673 372.59375,63.203125 C373.031252,63.0156241 373.617184,62.8359384 374.351562,62.6640625 C375.085941,62.4921866 375.968745,62.40625 377,62.40625 C378.000005,62.40625 378.882809,62.4921866 379.648438,62.6640625 C380.414066,62.8359384 381.015623,63.0156241 381.453125,63.203125 C382.39063,61.6718673 383.664054,60.4296923 385.273438,59.4765625 C386.882821,58.5234327 388.640615,58.046875 390.546875,58.046875 C391.734381,58.046875 392.867182,58.2421855 393.945312,58.6328125 C395.023443,59.0234395 395.999996,59.5468717 396.875,60.203125 C396.531248,58.1093645 396.195314,56.1484466 395.867188,54.3203125 C395.539061,52.4921784 395.328125,51.3125027 395.234375,50.78125 C395.203125,50.6562494 395.179688,50.5234382 395.164062,50.3828125 C395.148437,50.2421868 395.140625,50.1093756 395.140625,49.984375 C394.984374,48.8593694 394.67969,47.9140663 394.226562,47.1484375 C393.773435,46.3828087 392.484386,46 390.359375,46 C389.921873,46 389.562501,45.851564 389.28125,45.5546875 C388.999999,45.257811 388.859375,44.906252 388.859375,44.5 C388.859375,44.093748 388.999999,43.742189 389.28125,43.4453125 C389.562501,43.148436 389.921873,43 390.359375,43 C393.796892,43 395.906246,43.8124919 396.6875,45.4375 C397.468754,47.0625081 397.937499,48.4531192 398.09375,49.609375 C398.125,49.7343756 398.148437,49.851562 398.164062,49.9609375 C398.179688,50.070313 398.1875,50.1874994 398.1875,50.3125 C398.28125,50.8750028 398.484373,52.0624909 398.796875,53.875 C399.109377,55.6875091 399.429686,57.5781152 399.757812,59.546875 C400.085939,61.5156348 400.382811,63.3046795 400.648438,64.9140625 C400.914064,66.5234455 401.046875,67.4062492 401.046875,67.5625 Z M363.546875,76 C365.609385,76 367.374993,75.2734448 368.84375,73.8203125 C370.312507,72.3671802 371.046875,70.6093853 371.046875,68.546875 C371.046875,66.4843647 370.312507,64.7187573 368.84375,63.25 C367.374993,61.7812427 365.609385,61.046875 363.546875,61.046875 C361.484365,61.046875 359.703132,61.7890551 358.203125,63.2734375 C356.703118,64.7578199 355.953125,66.5156148 355.953125,68.546875 C355.953125,70.546885 356.703118,72.2890551 358.203125,73.7734375 C359.703132,75.2578199 361.484365,76 363.546875,76 Z M390.546875,76 C392.609385,76 394.374993,75.2734448 395.84375,73.8203125 C397.312507,72.3671802 398.046875,70.6093853 398.046875,68.546875 C398.046875,68.4531245 398.039063,68.3750003 398.023438,68.3125 C398.007812,68.2499997 398,68.1875003 398,68.125 C398,68.0624997 397.992188,68.0000003 397.976562,67.9375 C397.960937,67.8749997 397.9375,67.8125003 397.90625,67.75 C397.90625,67.6249994 397.898438,67.4921882 397.882812,67.3515625 C397.867187,67.2109368 397.859375,67.0625008 397.859375,66.90625 C397.484373,65.2499917 396.617194,63.8593806 395.257812,62.734375 C393.898431,61.6093694 392.328134,61.046875 390.546875,61.046875 C388.484365,61.046875 386.703132,61.7890551 385.203125,63.2734375 C383.703118,64.7578199 382.953125,66.5156148 382.953125,68.546875 C382.953125,70.546885 383.703118,72.2890551 385.203125,73.7734375 C386.703132,75.2578199 388.484365,76 390.546875,76 Z" id="Eyeglass---simple-line-icons" fill="#177ACD" opacity="0.391644022"></path>
            <path d="M24,189 C27.3125166,189 30.4296729,189.624994 33.3515625,190.875 C36.2734521,192.125006 38.8203016,193.835927 40.9921875,196.007812 C43.1640734,198.179698 44.8749938,200.726548 46.125,203.648438 C47.3750062,206.570327 48,209.687483 48,213 C48,216.312517 47.3750062,219.429673 46.125,222.351562 C44.8749938,225.273452 43.1640734,227.820302 40.9921875,229.992188 C38.8203016,232.164073 36.2734521,233.874994 33.3515625,235.125 C30.4296729,236.375006 27.3125166,237 24,237 C20.6874834,237 17.5703271,236.375006 14.6484375,235.125 C11.7265479,233.874994 9.17969836,232.164073 7.0078125,229.992188 C4.83592664,227.820302 3.12500625,225.273452 1.875,222.351562 C0.62499375,219.429673 0,216.312517 0,213 C0,209.687483 0.62499375,206.570327 1.875,203.648438 C3.12500625,200.726548 4.83592664,198.179698 7.0078125,196.007812 C9.17969836,193.835927 11.7265479,192.125006 14.6484375,190.875 C17.5703271,189.624994 20.6874834,189 24,189 Z M24,234.046875 C26.9062645,234.046875 29.6327998,233.492193 32.1796875,232.382812 C34.7265752,231.273432 36.945303,229.765635 38.8359375,227.859375 C40.726572,225.953115 42.226557,223.726575 43.3359375,221.179688 C44.445318,218.6328 45,215.906265 45,213 C45,210.093735 44.445318,207.3672 43.3359375,204.820312 C42.226557,202.273425 40.726572,200.054697 38.8359375,198.164062 C36.945303,196.273428 34.7265752,194.773443 32.1796875,193.664062 C29.6327998,192.554682 26.9062645,192 24,192 C21.0937355,192 18.3672002,192.554682 15.8203125,193.664062 C13.2734248,194.773443 11.054697,196.273428 9.1640625,198.164062 C7.27342805,200.054697 5.77344305,202.273425 4.6640625,204.820312 C3.55468195,207.3672 3,210.093735 3,213 C3,215.906265 3.55468195,218.6328 4.6640625,221.179688 C5.77344305,223.726575 7.27342805,225.953115 9.1640625,227.859375 C11.054697,229.765635 13.2734248,231.273432 15.8203125,232.382812 C18.3672002,233.492193 21.0937355,234.046875 24,234.046875 Z M25.5,212.390625 L32.578125,219.46875 C32.8593764,219.750001 33,220.10156 33,220.523438 C33,220.945315 32.8593764,221.296874 32.578125,221.578125 C32.2968736,221.890627 31.9453146,222.046875 31.5234375,222.046875 C31.1015604,222.046875 30.7500014,221.890627 30.46875,221.578125 L23.015625,214.171875 C23.015625,214.140625 23.0078126,214.117188 22.9921875,214.101562 L22.96875,214.078125 C22.8124992,213.953124 22.6953129,213.796876 22.6171875,213.609375 C22.5390621,213.421874 22.5,213.218751 22.5,213 L22.5,198 C22.5,197.593748 22.648436,197.242189 22.9453125,196.945312 C23.242189,196.648436 23.593748,196.5 24,196.5 C24.406252,196.5 24.757811,196.648436 25.0546875,196.945312 C25.351564,197.242189 25.5,197.593748 25.5,198 L25.5,212.390625 Z" id="Clock---simple-line-icons" fill="#177ACD" opacity="0.391644022"></path>
            <circle id="Oval" stroke="#177ACD" stroke-width="4" opacity="0.294950181" cx="431" cy="189" r="8"></circle>
            <g id="Group-10" transform="translate(75.000000, 0.000000)" stroke-linecap="round" stroke-width="4" stroke="#9DC3E2">
                <g id="Group-7">
                    <path d="M25.2474487,7.92893219 L0.752551286,22.0710678" id="Path-5"></path>
                    <path d="M13,0.857864376 L13,29.1421356" id="Path-5"></path>
                    <path d="M0.752551286,7.92893219 L25.2474487,22.0710678" id="Path-5"></path>
                </g>
            </g>
            <g id="Group-8" transform="translate(307.195720, 304.195720) rotate(-29.000000) translate(-307.195720, -304.195720) translate(299.695720, 296.695720)" stroke="#9DC3E2" stroke-width="4" stroke-linecap="round">
                <path d="M15,0 L0,15" id="Path-5"></path>
                <path d="M0,0 L15,15" id="Path-5"></path>
            </g>
        </g>
    </g>
</svg>