<?xml version="1.0" encoding="UTF-8"?>
<svg width="294px" height="296px" viewBox="0 0 294 296" version="1.1" xmlns="http://www.w3.org/2000/svg" xmlns:xlink="http://www.w3.org/1999/xlink">
    <!-- Generator: Sketch 45.1 (43504) - http://www.bohemiancoding.com/sketch -->
    <title>Group 12</title>
    <desc>Created with Sketch.</desc>
    <defs></defs>
    <g id="Page-5" stroke="none" stroke-width="1" fill="none" fill-rule="evenodd">
        <g id="Group-12" transform="translate(0.000000, 2.000000)">
            <g id="Group-10" transform="translate(8.000000, 262.000000)" stroke-linecap="round" stroke-width="4" stroke="#9DC3E2">
                <g id="Group-7">
                    <path d="M25.2474487,7.92893219 L0.752551286,22.0710678" id="Path-5"></path>
                    <path d="M13,0.857864376 L13,29.1421356" id="Path-5"></path>
                    <path d="M0.752551286,7.92893219 L25.2474487,22.0710678" id="Path-5"></path>
                </g>
            </g>
            <circle id="Oval" stroke="#177ACD" stroke-width="4" opacity="0.294950181" cx="121" cy="8" r="8"></circle>
            <path d="M270,73 C267.093735,73 264.3672,73.3906211 261.820312,74.171875 C259.273425,74.9531289 257.054697,76.0234307 255.164062,77.3828125 C253.273428,78.7421943 251.773443,80.3359284 250.664062,82.1640625 C249.554682,83.9921966 249,85.9374897 249,88 C249,89.2500062 249.187498,90.4609316 249.5625,91.6328125 C249.937502,92.8046934 250.484371,93.9062448 251.203125,94.9375 C251.921879,95.9687552 252.79687,96.929683 253.828125,97.8203125 C254.85938,98.710942 256.046868,99.4843717 257.390625,100.140625 L259.03125,100.984375 L259.03125,103.09375 L258.984375,103.1875 C258.984375,104.000004 258.890626,104.804684 258.703125,105.601562 C258.515624,106.398441 258.265627,107.171871 257.953125,107.921875 C259.359382,107.265622 260.624994,106.507817 261.75,105.648438 C262.875006,104.789058 263.562499,104.218751 263.8125,103.9375 L264.890625,102.625 L266.53125,102.859375 C266.968752,102.921875 267.343748,102.960937 267.65625,102.976562 C267.968752,102.992188 268.328123,103 268.734375,103 L270,103 C272.906265,103 275.6328,102.609379 278.179688,101.828125 C280.726575,101.046871 282.945303,99.9765693 284.835938,98.6171875 C286.726572,97.2578057 288.226557,95.6640716 289.335938,93.8359375 C290.445318,92.0078034 291,90.0625103 291,88 C291,85.9374897 290.445318,83.9921966 289.335938,82.1640625 C288.226557,80.3359284 286.726572,78.7421943 284.835938,77.3828125 C282.945303,76.0234307 280.726575,74.9531289 278.179688,74.171875 C275.6328,73.3906211 272.906265,73 270,73 Z M270,70 C273.312517,70 276.429673,70.4687453 279.351562,71.40625 C282.273452,72.3437547 284.820302,73.6328043 286.992188,75.2734375 C289.164073,76.9140707 290.874994,78.8203016 292.125,80.9921875 C293.375006,83.1640734 294,85.4999875 294,88 C294,90.5000125 293.375006,92.8359266 292.125,95.0078125 C290.874994,97.1796984 289.164073,99.0859293 286.992188,100.726562 C284.820302,102.367196 282.273452,103.656245 279.351562,104.59375 C276.429673,105.531255 273.312517,106 270,106 L268.734375,106 C268.296873,106 267.882814,105.992188 267.492188,105.976562 C267.101561,105.960937 266.640628,105.90625 266.109375,105.8125 C265.859374,106.125002 265.367191,106.585934 264.632812,107.195312 C263.898434,107.804691 263.031255,108.429684 262.03125,109.070312 C261.031245,109.710941 259.945318,110.304685 258.773438,110.851562 C257.601557,111.39844 256.421881,111.781249 255.234375,112 L254.859375,112 C254.484373,112 254.164064,111.867189 253.898438,111.601562 C253.632811,111.335936 253.5,111.015627 253.5,110.640625 C253.5,110.546875 253.507812,110.453125 253.523438,110.359375 C253.539063,110.265625 253.5625,110.1875 253.59375,110.125 C254.031252,109.343746 254.53906,108.289069 255.117188,106.960938 C255.695315,105.632806 255.984375,104.296882 255.984375,102.953125 C255.984375,102.921875 255.992187,102.898438 256.007812,102.882812 C256.023438,102.867187 256.03125,102.84375 256.03125,102.8125 C254.437492,101.999996 253.015631,101.062505 251.765625,100 C250.515619,98.9374947 249.468754,97.7734438 248.625,96.5078125 C247.781246,95.2421812 247.132815,93.8984446 246.679688,92.4765625 C246.22656,91.0546804 246,89.5625078 246,88 C246,85.4999875 246.624994,83.1640734 247.875,80.9921875 C249.125006,78.8203016 250.835927,76.9140707 253.007812,75.2734375 C255.179698,73.6328043 257.726548,72.3437547 260.648438,71.40625 C263.570327,70.4687453 266.687483,70 270,70 Z" id="Bubble---simple-line-icons" fill="#177ACD" opacity="0.391644022"></path>
            <path d="M39.046875,99.5 C41.5156373,99.5 43.6249913,100.382804 45.375,102.148438 C47.1250087,103.914071 48,106.046863 48,108.546875 C48,111.015637 47.1250087,113.124991 45.375,114.875 C43.6249913,116.625009 41.5156373,117.5 39.046875,117.5 L37.8984375,117.5 C37.2890595,117.5 36.6562533,117.484375 36,117.453125 L36,119 C36,121.500012 35.1250087,123.624991 33.375,125.375 C31.6249913,127.125009 29.5156373,128 27.046875,128 L9,128 C6.4999875,128 4.37500875,127.125009 2.625,125.375 C0.87499125,123.624991 0,121.500012 0,119 L0,96.453125 C0,95.6406209 0.289059609,94.937503 0.8671875,94.34375 C1.44531539,93.749997 2.15624578,93.453125 3,93.453125 L33,93.453125 C33.8437542,93.453125 34.5546846,93.749997 35.1328125,94.34375 C35.7109404,94.937503 36,95.6406209 36,96.453125 L36,99.453125 C36.6875034,99.4843752 37.3124972,99.5 37.875,99.5 L39.046875,99.5 Z M33,119 L33,96.453125 L3,96.453125 L3,119 C3,120.656258 3.58593164,122.070307 4.7578125,123.242188 C5.92969336,124.414068 7.34374172,125 9,125 L27.046875,125 C28.6718831,125 30.0703066,124.414068 31.2421875,123.242188 C32.4140684,122.070307 33,120.656258 33,119 Z M39.046875,114.546875 C40.7343834,114.546875 42.1562442,113.968756 43.3125,112.8125 C44.4687558,111.656244 45.046875,110.218759 45.046875,108.5 C45.046875,106.781241 44.4687558,105.351568 43.3125,104.210938 C42.1562442,103.070307 40.7343834,102.5 39.046875,102.5 L36,102.5 L36,114.5 C36.6562533,114.5 37.2890595,114.507812 37.8984375,114.523438 C38.5078155,114.539063 38.8906242,114.546875 39.046875,114.546875 Z M27,90.5 C27.406252,90.5 27.757811,90.351564 28.0546875,90.0546875 C28.351564,89.757811 28.5,89.406252 28.5,89 L28.5,81.5 C28.5,81.093748 28.351564,80.742189 28.0546875,80.4453125 C27.757811,80.148436 27.406252,80 27,80 C26.593748,80 26.242189,80.148436 25.9453125,80.4453125 C25.648436,80.742189 25.5,81.093748 25.5,81.5 L25.5,89 C25.5,89.406252 25.648436,89.757811 25.9453125,90.0546875 C26.242189,90.351564 26.593748,90.5 27,90.5 Z M9,90.5 C9.40625203,90.5 9.75781102,90.351564 10.0546875,90.0546875 C10.351564,89.757811 10.5,89.406252 10.5,89 L10.5,81.5 C10.5,81.093748 10.351564,80.742189 10.0546875,80.4453125 C9.75781102,80.148436 9.40625203,80 9,80 C8.59374797,80 8.24218898,80.148436 7.9453125,80.4453125 C7.64843602,80.742189 7.5,81.093748 7.5,81.5 L7.5,89 C7.5,89.406252 7.64843602,89.757811 7.9453125,90.0546875 C8.24218898,90.351564 8.59374797,90.5 9,90.5 Z M18,90.5 C18.406252,90.5 18.757811,90.351564 19.0546875,90.0546875 C19.351564,89.757811 19.5,89.406252 19.5,89 L19.5,81.5 C19.5,81.093748 19.351564,80.742189 19.0546875,80.4453125 C18.757811,80.148436 18.406252,80 18,80 C17.593748,80 17.242189,80.148436 16.9453125,80.4453125 C16.648436,80.742189 16.5,81.093748 16.5,81.5 L16.5,89 C16.5,89.406252 16.648436,89.757811 16.9453125,90.0546875 C17.242189,90.351564 17.593748,90.5 18,90.5 Z" id="Cup---simple-line-icons" fill="#177ACD" opacity="0.391644022"></path>
            <g id="Group-8" transform="translate(277.195720, 246.195720) rotate(-29.000000) translate(-277.195720, -246.195720) translate(269.695720, 238.695720)" stroke="#9DC3E2" stroke-width="4" stroke-linecap="round">
                <path d="M15,0 L0,15" id="Path-5"></path>
                <path d="M0,0 L15,15" id="Path-5"></path>
            </g>
        </g>
    </g>
</svg>
