<?xml version="1.0" encoding="UTF-8"?>
<svg width="120px" height="195px" viewBox="0 0 120 195" version="1.1" xmlns="http://www.w3.org/2000/svg" xmlns:xlink="http://www.w3.org/1999/xlink">
    <!-- Generator: Sketch 45.1 (43504) - http://www.bohemiancoding.com/sketch -->
    <title>Page 1</title>
    <desc>Created with Sketch.</desc>
    <defs></defs>
    <g id="Page-5" stroke="none" stroke-width="1" fill="none" fill-rule="evenodd">
        <g id="Page-1" fill="#FF8E40">
            <path d="M64.0238663,133.328151 L55.9779236,133.328151 C48.8126492,133.328151 42.9809069,139.19035 42.9809069,146.393046 L42.9809069,190.740999 C42.9809069,193.094515 44.8782816,195 47.2159905,195 C49.5554893,195 51.452864,193.094515 51.452864,190.740999 L51.452864,146.393046 C51.452864,143.884788 53.4826969,141.842554 55.9779236,141.842554 L64.0238663,141.842554 C66.5208831,141.842554 68.548926,143.884788 68.548926,146.393046 L68.548926,190.740999 C68.548926,193.094515 70.4463007,195 72.7857995,195 C75.1235084,195 77.0208831,193.094515 77.0208831,190.740999 L77.0208831,146.393046 C77.0208831,139.19035 71.1909308,133.328151 64.0238663,133.328151 L64.0238663,133.328151 Z M68.548926,113.654336 C68.548926,116.164394 66.5208831,118.206627 64.0238663,118.206627 L55.9779236,118.206627 C53.4826969,118.206627 51.452864,116.164394 51.452864,113.654336 L51.452864,111.336806 L68.548926,111.336806 L68.548926,113.654336 Z M98.1175418,102.824201 L72.7857995,102.824201 L47.2159905,102.824201 L21.8842482,102.824201 C9.81801909,102.824201 0,112.691697 0,124.819145 L0,190.740999 C0,193.094515 1.8973747,195 4.23866348,195 C6.57637232,195 8.47195704,193.094515 8.47195704,190.740999 L8.47195704,124.819145 C8.47195704,117.387934 14.4880668,111.336806 21.8842482,111.336806 L42.9809069,111.336806 L42.9809069,113.654336 C42.9809069,120.858831 48.8126492,126.719232 55.9779236,126.719232 L64.0238663,126.719232 C71.1909308,126.719232 77.0208831,120.858831 77.0208831,113.654336 L77.0208831,111.336806 L98.1175418,111.336806 C105.513723,111.336806 111.529833,117.387934 111.529833,124.819145 L111.529833,190.740999 C111.529833,193.094515 113.427208,195 115.764916,195 C118.104415,195 120,193.094515 120,190.740999 L120,124.819145 C120,112.691697 110.183771,102.824201 98.1175418,102.824201 L98.1175418,102.824201 Z M37.3997613,30.6478953 C38.2088305,31.3802203 39.223747,31.7418846 40.2332936,31.7418846 C41.3914081,31.7418846 42.5459427,31.2650636 43.3818616,30.3348128 C45.9451074,27.4738867 49.2118138,25.3326905 52.8257757,24.1415376 C55.050716,23.4110119 56.2625298,21.0071143 55.5357995,18.7723531 C54.8072792,16.537592 52.4158711,15.31765 50.1909308,16.0499751 C45.1736277,17.7035544 40.6414081,20.6706406 37.0883055,24.6327532 C35.5238663,26.3798974 35.6616945,29.0716869 37.3997613,30.6478953 L37.3997613,30.6478953 Z M59.6473747,8.51800247 C79.6933174,8.51800247 96.00179,24.9098492 96.00179,45.060485 C96.00179,65.2129201 79.6933174,81.6047668 59.6473747,81.6047668 C39.601432,81.6047668 23.2947494,65.2129201 23.2947494,45.060485 C23.2947494,24.9098492 39.601432,8.51800247 59.6473747,8.51800247 L59.6473747,8.51800247 Z M59.6473747,90.1191706 C84.3651551,90.1191706 104.473747,69.9073579 104.473747,45.060485 C104.473747,20.2154114 84.3651551,0 59.6473747,0 C34.9295943,0 14.8227924,20.2154114 14.8227924,45.060485 C14.8227924,69.9073579 34.9295943,90.1191706 59.6473747,90.1191706 L59.6473747,90.1191706 Z" id="Fill-1"></path>
        </g>
    </g>
</svg>