<?xml version="1.0" encoding="UTF-8"?>
<svg width="1223px" height="573px" viewBox="0 0 1223 573" version="1.1" xmlns="http://www.w3.org/2000/svg" xmlns:xlink="http://www.w3.org/1999/xlink">
    <!-- Generator: Sketch 45.1 (43504) - http://www.bohemiancoding.com/sketch -->
    <title>Group 6</title>
    <desc>Created with Sketch.</desc>
    <defs></defs>
    <g id="Page-5" stroke="none" stroke-width="1" fill="none" fill-rule="evenodd" opacity="0.531419837">
        <g id="Landing" transform="translate(-67.000000, -63.000000)" fill="#177ACD">
            <g id="Group-6" transform="translate(67.000000, 15.000000)">
                <path d="M1213.27344,113.5 C1209.85155,113.5 1207.8125,113.425782 1207.15625,113.277344 C1206.5,113.128906 1205.96094,112.898439 1205.53906,112.585938 C1205.32031,112.414062 1204.92188,112.265626 1204.34375,112.140625 C1203.76562,112.015624 1202.71095,111.90625 1201.17969,111.8125 C1201.05469,111.796875 1200.94141,111.769531 1200.83984,111.730469 C1200.73828,111.691406 1200.65625,111.625 1200.59375,111.53125 C1200.5625,111.484375 1200.28516,110.933599 1199.76172,109.878906 C1199.23828,108.824213 1198.97656,107.398446 1198.97656,105.601562 C1198.97656,103.820304 1199.16406,102.511723 1199.53906,101.675781 C1199.91406,100.83984 1200.10937,100.398438 1200.125,100.351562 C1200.20313,100.242187 1200.29687,100.15625 1200.40625,100.09375 C1200.51563,100.03125 1200.64062,100 1200.78125,100 C1201.40625,100 1202.08593,99.8046895 1202.82031,99.4140625 C1203.55469,99.0234355 1204.29297,98.4492225 1205.03516,97.6914062 C1205.77735,96.93359 1206.5039,96.0039118 1207.21484,94.9023438 C1207.92578,93.8007757 1208.57812,92.5390696 1209.17188,91.1171875 C1209.375,90.6328101 1209.57031,90.242189 1209.75781,89.9453125 C1209.94531,89.648436 1210.41406,89.5 1211.16406,89.5 C1211.60156,89.5 1212.03515,89.6367174 1212.46484,89.9101562 C1212.89453,90.1835951 1213.22656,90.515623 1213.46094,90.90625 C1213.69531,91.296877 1213.85156,91.7890595 1213.92969,92.3828125 C1214.00781,92.9765655 1214.03125,93.597653 1214,94.2460938 C1213.96875,94.8945345 1213.90234,95.5312469 1213.80078,96.15625 C1213.69922,96.7812531 1213.59375,97.3203102 1213.48438,97.7734375 C1214.25,97.7734375 1215.21874,97.7695313 1216.39062,97.7617188 C1217.56251,97.7539062 1218.48437,97.75 1219.15625,97.75 C1220.07813,97.75 1220.82422,97.9999975 1221.39453,98.5 C1221.96485,99.0000025 1222.25781,99.6562459 1222.27344,100.46875 C1222.27344,100.734376 1222.25781,101.015624 1222.22656,101.3125 C1222.19531,101.609376 1222.14063,101.851562 1222.0625,102.039062 C1222.26563,102.242189 1222.47266,102.496092 1222.68359,102.800781 C1222.89453,103.10547 1223.00781,103.453123 1223.02344,103.84375 C1223.03906,104.359378 1222.91797,104.804686 1222.66016,105.179688 C1222.40234,105.554689 1222.16406,105.859374 1221.94531,106.09375 C1221.99219,106.234376 1222.05469,106.402343 1222.13281,106.597656 C1222.21094,106.79297 1222.24219,107.007811 1222.22656,107.242188 C1222.19531,107.820315 1222.00781,108.296873 1221.66406,108.671875 C1221.32031,109.046877 1221.00781,109.335936 1220.72656,109.539062 C1220.75781,109.695313 1220.77734,109.906249 1220.78516,110.171875 C1220.79297,110.437501 1220.76563,110.687499 1220.70312,110.921875 C1220.60937,111.375002 1220.3711,111.765623 1219.98828,112.09375 C1219.60547,112.421877 1219.09766,112.687499 1218.46484,112.890625 C1217.83203,113.093751 1217.07813,113.246093 1216.20312,113.347656 C1215.32812,113.449219 1214.35157,113.5 1213.27344,113.5 Z M1201.57812,110.289062 C1202.92188,110.398438 1203.97656,110.535155 1204.74219,110.699219 C1205.50782,110.863282 1206.07812,111.085936 1206.45312,111.367188 C1206.75,111.601564 1207.16797,111.765625 1207.70703,111.859375 C1208.2461,111.953125 1210.10155,112 1213.27344,112 C1213.74219,112 1214.30468,111.988281 1214.96094,111.964844 C1215.61719,111.941406 1216.25,111.882813 1216.85938,111.789062 C1217.46875,111.695312 1218,111.554688 1218.45312,111.367188 C1218.90625,111.179687 1219.17187,110.921877 1219.25,110.59375 C1219.29688,110.328124 1219.23438,110.085939 1219.0625,109.867188 L1218.80469,109.539062 C1218.72656,109.351562 1218.72266,109.160157 1218.79297,108.964844 C1218.86328,108.76953 1218.99219,108.632813 1219.17969,108.554688 C1219.19531,108.554688 1219.45312,108.429689 1219.95312,108.179688 C1220.45313,107.929686 1220.71094,107.601565 1220.72656,107.195312 C1220.74219,106.914061 1220.6875,106.699219 1220.5625,106.550781 C1220.4375,106.402343 1220.375,106.320313 1220.375,106.304688 C1220.26562,106.148437 1220.23047,105.968751 1220.26953,105.765625 C1220.30859,105.562499 1220.40625,105.398438 1220.5625,105.273438 L1221.04297,104.875 C1221.36328,104.609374 1221.52344,104.281252 1221.52344,103.890625 C1221.50781,103.562498 1221.35938,103.296876 1221.07812,103.09375 C1220.79687,102.890624 1220.64844,102.789062 1220.63281,102.789062 C1220.53906,102.726562 1220.46094,102.652344 1220.39844,102.566406 C1220.33594,102.480468 1220.28906,102.382813 1220.25781,102.273438 C1220.24219,102.179687 1220.24609,102.078126 1220.26953,101.96875 C1220.29297,101.859374 1220.33594,101.757813 1220.39844,101.664062 L1220.58594,101.300781 C1220.71094,101.058593 1220.77344,100.789064 1220.77344,100.492188 C1220.75781,99.8828095 1220.51953,99.523438 1220.05859,99.4140625 C1219.59765,99.304687 1219.29688,99.25 1219.15625,99.25 L1215.06641,99.25 C1214.33984,99.25 1213.71485,99.2539062 1213.19141,99.2617188 L1212.40625,99.2734375 C1212.26562,99.2734375 1212.14063,99.2421878 1212.03125,99.1796875 C1211.92187,99.1171872 1211.83594,99.0312505 1211.77344,98.921875 C1211.69531,98.8281245 1211.65234,98.7187506 1211.64453,98.59375 C1211.63672,98.4687494 1211.65625,98.3437506 1211.70312,98.21875 C1211.89063,97.6874973 1212.05078,97.1015657 1212.18359,96.4609375 C1212.31641,95.8203093 1212.41016,95.1914093 1212.46484,94.5742188 C1212.51953,93.9570282 1212.52734,93.3906276 1212.48828,92.875 C1212.44922,92.3593724 1212.34375,91.9609389 1212.17188,91.6796875 C1212.0625,91.5078116 1211.96094,91.3515632 1211.86719,91.2109375 C1211.77344,91.0703118 1211.53906,91 1211.16406,91 C1211.11719,91 1211.03906,91.0390621 1210.92969,91.1171875 C1210.82031,91.1953129 1210.69531,91.3906234 1210.55469,91.703125 C1209.92968,93.2031325 1209.23829,94.5429629 1208.48047,95.7226562 C1207.72265,96.9023496 1206.9336,97.9023396 1206.11328,98.7226562 C1205.29296,99.5429729 1204.46875,100.187498 1203.64062,100.65625 C1202.8125,101.125002 1202.01563,101.398437 1201.25,101.476562 C1201.10937,101.773439 1200.94531,102.249997 1200.75781,102.90625 C1200.57031,103.562503 1200.47656,104.460932 1200.47656,105.601562 C1200.47656,106.757818 1200.61328,107.753902 1200.88672,108.589844 C1201.16016,109.425785 1201.39062,109.992186 1201.57812,110.289062 Z" id="Like---simple-line-icons" opacity="0.391644022"></path>
                <path d="M992,573.5 C993.656258,573.5 995.214836,573.812497 996.675781,574.4375 C998.136726,575.062503 999.410151,575.917963 1000.49609,577.003906 C1001.58204,578.089849 1002.4375,579.363274 1003.0625,580.824219 C1003.6875,582.285164 1004,583.843742 1004,585.5 C1004,587.156258 1003.6875,588.714836 1003.0625,590.175781 C1002.4375,591.636726 1001.58204,592.910151 1000.49609,593.996094 C999.410151,595.082037 998.136726,595.937497 996.675781,596.5625 C995.214836,597.187503 993.656258,597.5 992,597.5 C990.343742,597.5 988.785164,597.187503 987.324219,596.5625 C985.863274,595.937497 984.589849,595.082037 983.503906,593.996094 C982.417963,592.910151 981.562503,591.636726 980.9375,590.175781 C980.312497,588.714836 980,587.156258 980,585.5 C980,583.843742 980.312497,582.285164 980.9375,580.824219 C981.562503,579.363274 982.417963,578.089849 983.503906,577.003906 C984.589849,575.917963 985.863274,575.062503 987.324219,574.4375 C988.785164,573.812497 990.343742,573.5 992,573.5 Z M992,596.023438 C993.453132,596.023438 994.8164,595.746097 996.089844,595.191406 C997.363288,594.636716 998.472652,593.882817 999.417969,592.929688 C1000.36329,591.976558 1001.11328,590.863288 1001.66797,589.589844 C1002.22266,588.3164 1002.5,586.953132 1002.5,585.5 C1002.5,584.046868 1002.22266,582.6836 1001.66797,581.410156 C1001.11328,580.136712 1000.36329,579.027348 999.417969,578.082031 C998.472652,577.136714 997.363288,576.386722 996.089844,575.832031 C994.8164,575.277341 993.453132,575 992,575 C990.546868,575 989.1836,575.277341 987.910156,575.832031 C986.636712,576.386722 985.527348,577.136714 984.582031,578.082031 C983.636714,579.027348 982.886722,580.136712 982.332031,581.410156 C981.777341,582.6836 981.5,584.046868 981.5,585.5 C981.5,586.953132 981.777341,588.3164 982.332031,589.589844 C982.886722,590.863288 983.636714,591.976558 984.582031,592.929688 C985.527348,593.882817 986.636712,594.636716 987.910156,595.191406 C989.1836,595.746097 990.546868,596.023438 992,596.023438 Z M992.75,585.195312 L996.289062,588.734375 C996.429688,588.875001 996.5,589.05078 996.5,589.261719 C996.5,589.472657 996.429688,589.648437 996.289062,589.789062 C996.148437,589.945313 995.972657,590.023438 995.761719,590.023438 C995.55078,590.023438 995.375001,589.945313 995.234375,589.789062 L991.507812,586.085938 C991.507812,586.070312 991.503906,586.058594 991.496094,586.050781 L991.484375,586.039062 C991.40625,585.976562 991.347656,585.898438 991.308594,585.804688 C991.269531,585.710937 991.25,585.609376 991.25,585.5 L991.25,578 C991.25,577.796874 991.324218,577.621094 991.472656,577.472656 C991.621094,577.324218 991.796874,577.25 992,577.25 C992.203126,577.25 992.378906,577.324218 992.527344,577.472656 C992.675782,577.621094 992.75,577.796874 992.75,578 L992.75,585.195312 Z" id="Clock---simple-line-icons" opacity="0.391644022"></path>
                <path d="M488.179688,55.0625 C488.320313,54.9999997 488.468749,54.9804686 488.625,55.0039062 C488.781251,55.0273439 488.914062,55.0937495 489.023438,55.203125 C489.117188,55.3125005 489.175781,55.4453117 489.199219,55.6015625 C489.222656,55.7578133 489.195313,55.9062493 489.117188,56.046875 L485.578125,63.0078125 C485.546875,63.0703128 485.503907,63.1249998 485.449219,63.171875 C485.394531,63.2187502 485.335938,63.2578123 485.273438,63.2890625 L478.101562,66.265625 C478.054687,66.2968752 478.007813,66.3164062 477.960938,66.3242188 C477.914062,66.3320313 477.859375,66.3359375 477.796875,66.3359375 C477.703125,66.3359375 477.613282,66.3164064 477.527344,66.2773438 C477.441406,66.2382811 477.367188,66.1875003 477.304688,66.125 C477.195312,66.0156245 477.128906,65.8867195 477.105469,65.7382812 C477.082031,65.589843 477.101562,65.4453132 477.164062,65.3046875 L480.539062,58.53125 C480.570313,58.4687497 480.613281,58.4101565 480.667969,58.3554688 C480.722657,58.300781 480.78125,58.2578127 480.84375,58.2265625 L488.179688,55.0625 Z M479.390625,64.0859375 L483.492188,62.4921875 L481.429688,59.9140625 L479.390625,64.0859375 Z M484.710938,61.625 L486.773438,57.3828125 L482.625,59 L484.710938,61.625 Z M483,48.5 C484.656258,48.5 486.214836,48.8124969 487.675781,49.4375 C489.136726,50.0625031 490.410151,50.9179633 491.496094,52.0039062 C492.582037,53.0898492 493.437497,54.3632739 494.0625,55.8242188 C494.687503,57.2851636 495,58.8437417 495,60.5 C495,62.1562583 494.687503,63.7148364 494.0625,65.1757812 C493.437497,66.6367261 492.582037,67.9101508 491.496094,68.9960938 C490.410151,70.0820367 489.136726,70.9374969 487.675781,71.5625 C486.214836,72.1875031 484.656258,72.5 483,72.5 C481.343742,72.5 479.785164,72.1875031 478.324219,71.5625 C476.863274,70.9374969 475.589849,70.0820367 474.503906,68.9960938 C473.417963,67.9101508 472.562503,66.6367261 471.9375,65.1757812 C471.312497,63.7148364 471,62.1562583 471,60.5 C471,58.8437417 471.312497,57.2851636 471.9375,55.8242188 C472.562503,54.3632739 473.417963,53.0898492 474.503906,52.0039062 C475.589849,50.9179633 476.863274,50.0625031 478.324219,49.4375 C479.785164,48.8124969 481.343742,48.5 483,48.5 Z M483,71.0234375 C484.453132,71.0234375 485.8164,70.7460965 487.089844,70.1914062 C488.363288,69.636716 489.472652,68.8828173 490.417969,67.9296875 C491.363286,66.9765577 492.113278,65.8632876 492.667969,64.5898438 C493.222659,63.3163999 493.5,61.9531323 493.5,60.5 C493.5,59.0468677 493.222659,57.6836001 492.667969,56.4101562 C492.113278,55.1367124 491.363286,54.0273485 490.417969,53.0820312 C489.472652,52.136714 488.363288,51.3867215 487.089844,50.8320312 C485.8164,50.277341 484.453132,50 483,50 C481.546868,50 480.1836,50.277341 478.910156,50.8320312 C477.636712,51.3867215 476.527348,52.136714 475.582031,53.0820312 C474.636714,54.0273485 473.886722,55.1367124 473.332031,56.4101562 C472.777341,57.6836001 472.5,59.0468677 472.5,60.5 C472.5,61.9531323 472.777341,63.3163999 473.332031,64.5898438 C473.886722,65.8632876 474.636714,66.9765577 475.582031,67.9296875 C476.527348,68.8828173 477.636712,69.636716 478.910156,70.1914062 C480.1836,70.7460965 481.546868,71.0234375 483,71.0234375 Z" id="Compass---simple-line-icons" opacity="0.391644022"></path>
                <path d="M29.3046875,478.726562 C29.4921884,478.820313 29.6249996,478.960937 29.703125,479.148438 C29.7812504,479.335938 29.773438,479.523437 29.6796875,479.710938 C29.6640624,479.757813 29.5312513,480.00781 29.28125,480.460938 C29.0312487,480.914065 28.6367214,481.402341 28.0976562,481.925781 C27.5585911,482.449221 26.8671917,482.929685 26.0234375,483.367188 C25.1796833,483.80469 24.156256,484.023438 22.953125,484.023438 C22.9374999,484.023438 22.9218751,484.027344 22.90625,484.035156 C22.8906249,484.042969 22.8750001,484.046875 22.859375,484.046875 C21.7187443,484.046875 20.7382854,483.828127 19.9179688,483.390625 C19.0976521,482.953123 18.4218777,482.472659 17.890625,481.949219 C17.3593723,481.425779 16.964845,480.933596 16.7070312,480.472656 C16.4492175,480.011716 16.3125001,479.765625 16.296875,479.734375 C16.2031245,479.531249 16.1914059,479.335938 16.2617188,479.148438 C16.3320316,478.960937 16.468749,478.820313 16.671875,478.726562 C16.8593759,478.648437 17.0468741,478.644531 17.234375,478.714844 C17.4218759,478.785157 17.5624995,478.914062 17.65625,479.101562 C17.6718751,479.132813 17.7851552,479.332029 17.9960938,479.699219 C18.2070323,480.066408 18.5234354,480.457029 18.9453125,480.871094 C19.3671896,481.285158 19.9023405,481.667967 20.5507812,482.019531 C21.199222,482.371096 21.976558,482.546875 22.8828125,482.546875 L22.90625,482.535156 C22.9218751,482.527344 22.9374999,482.523438 22.953125,482.523438 C23.9062548,482.523438 24.7226529,482.343752 25.4023438,481.984375 C26.0820346,481.624998 26.6367166,481.234377 27.0664062,480.8125 C27.4960959,480.390623 27.812499,480.003908 28.015625,479.652344 C28.218751,479.300779 28.3203125,479.117188 28.3203125,479.101562 C28.3984379,478.914062 28.5351553,478.785157 28.7304688,478.714844 C28.9257822,478.644531 29.1171866,478.648437 29.3046875,478.726562 Z M23,464.5 C24.6562583,464.5 26.2148364,464.812497 27.6757812,465.4375 C29.1367261,466.062503 30.4101508,466.917963 31.4960938,468.003906 C32.5820367,469.089849 33.4374969,470.363274 34.0625,471.824219 C34.6875031,473.285164 35,474.843742 35,476.5 C35,478.156258 34.6875031,479.714836 34.0625,481.175781 C33.4374969,482.636726 32.5820367,483.910151 31.4960938,484.996094 C30.4101508,486.082037 29.1367261,486.937497 27.6757812,487.5625 C26.2148364,488.187503 24.6562583,488.5 23,488.5 C21.3437417,488.5 19.7851636,488.187503 18.3242188,487.5625 C16.8632739,486.937497 15.5898492,486.082037 14.5039062,484.996094 C13.4179633,483.910151 12.5625031,482.636726 11.9375,481.175781 C11.3124969,479.714836 11,478.156258 11,476.5 C11,474.843742 11.3124969,473.285164 11.9375,471.824219 C12.5625031,470.363274 13.4179633,469.089849 14.5039062,468.003906 C15.5898492,466.917963 16.8632739,466.062503 18.3242188,465.4375 C19.7851636,464.812497 21.3437417,464.5 23,464.5 Z M23,487 C24.4531323,487 25.8163999,486.722659 27.0898438,486.167969 C28.3632876,485.613278 29.4726515,484.863286 30.4179688,483.917969 C31.363286,482.972652 32.1132785,481.863288 32.6679688,480.589844 C33.222659,479.3164 33.5,477.953132 33.5,476.5 C33.5,475.046868 33.222659,473.6836 32.6679688,472.410156 C32.1132785,471.136712 31.363286,470.027348 30.4179688,469.082031 C29.4726515,468.136714 28.3632876,467.386722 27.0898438,466.832031 C25.8163999,466.277341 24.4531323,466 23,466 C21.5468677,466 20.1836001,466.277341 18.9101562,466.832031 C17.6367124,467.386722 16.5273485,468.136714 15.5820312,469.082031 C14.636714,470.027348 13.8867215,471.136712 13.3320312,472.410156 C12.777341,473.6836 12.5,475.046868 12.5,476.5 C12.5,477.953132 12.777341,479.3164 13.3320312,480.589844 C13.8867215,481.863288 14.636714,482.972652 15.5820312,483.917969 C16.5273485,484.863286 17.6367124,485.613278 18.9101562,486.167969 C20.1836001,486.722659 21.5468677,487 23,487 Z M19.25,475.75 C18.8281229,475.75 18.4726577,475.601564 18.1835938,475.304688 C17.8945298,475.007811 17.75,474.656252 17.75,474.25 C17.75,473.843748 17.8945298,473.492189 18.1835938,473.195312 C18.4726577,472.898436 18.8281229,472.75 19.25,472.75 C19.656252,472.75 20.0039048,472.898436 20.2929688,473.195312 C20.5820327,473.492189 20.7265625,473.843748 20.7265625,474.25 C20.7265625,474.656252 20.5820327,475.007811 20.2929688,475.304688 C20.0039048,475.601564 19.656252,475.75 19.25,475.75 Z M26.75,475.75 C26.3281229,475.75 25.9726577,475.601564 25.6835938,475.304688 C25.3945298,475.007811 25.25,474.656252 25.25,474.25 C25.25,473.843748 25.3945298,473.492189 25.6835938,473.195312 C25.9726577,472.898436 26.3281229,472.75 26.75,472.75 C27.156252,472.75 27.5039048,472.898436 27.7929688,473.195312 C28.0820327,473.492189 28.2265625,473.843748 28.2265625,474.25 C28.2265625,474.656252 28.0820327,475.007811 27.7929688,475.304688 C27.5039048,475.601564 27.156252,475.75 26.75,475.75 Z" id="Emotsmile---simple-line-icons" opacity="0.391644022"></path>
                <path d="M220.945312,300.023438 L212.601562,311.179688 L218.742188,311.203125 L217.054688,320.976562 L225.398438,308.929688 L219.257812,308.90625 L220.945312,300.023438 Z M221.015625,298.523438 C221.421877,298.539063 221.765624,298.691405 222.046875,298.980469 C222.328126,299.269533 222.46875,299.617185 222.46875,300.023438 C222.46875,300.085938 222.464844,300.144531 222.457031,300.199219 C222.449219,300.253907 222.4375,300.3125 222.421875,300.375 L221.0625,307.429688 L225.398438,307.429688 C225.679689,307.429688 225.941405,307.503906 226.183594,307.652344 C226.425782,307.800782 226.609374,307.999999 226.734375,308.25 C226.859376,308.500001 226.910156,308.765624 226.886719,309.046875 C226.863281,309.328126 226.773438,309.585936 226.617188,309.820312 L218.203125,321.867188 C218.046874,322.070314 217.875001,322.222656 217.6875,322.324219 C217.499999,322.425782 217.289064,322.476562 217.054688,322.476562 C216.945312,322.476562 216.839844,322.46875 216.738281,322.453125 C216.636718,322.4375 216.539063,322.40625 216.445312,322.359375 C216.132811,322.218749 215.890626,321.996095 215.71875,321.691406 C215.546874,321.386717 215.492187,321.062502 215.554688,320.71875 L216.9375,312.679688 L212.601562,312.65625 C212.320311,312.65625 212.058595,312.582032 211.816406,312.433594 C211.574218,312.285156 211.390626,312.085939 211.265625,311.835938 C211.140624,311.585936 211.089844,311.320314 211.113281,311.039062 C211.136719,310.757811 211.226562,310.500001 211.382812,310.265625 L219.796875,299.15625 C219.8125,299.140625 219.824219,299.125 219.832031,299.109375 C219.839844,299.09375 219.851562,299.078125 219.867188,299.0625 C219.914063,299 219.964843,298.945313 220.019531,298.898438 C220.074219,298.851562 220.132812,298.8125 220.195312,298.78125 C220.289063,298.703125 220.386718,298.644531 220.488281,298.605469 C220.589844,298.566406 220.703124,298.539063 220.828125,298.523438 L221.015625,298.523438 Z" id="Energy---simple-line-icons" opacity="0.391644022"></path>
                <path d="M12,183.5 C13.6562583,183.5 15.2148364,183.812497 16.6757812,184.4375 C18.1367261,185.062503 19.4101508,185.917963 20.4960938,187.003906 C21.5820367,188.089849 22.4374969,189.363274 23.0625,190.824219 C23.6875031,192.285164 24,193.843742 24,195.5 C24,197.156258 23.6875031,198.714836 23.0625,200.175781 C22.4374969,201.636726 21.5820367,202.910151 20.4960938,203.996094 C19.4101508,205.082037 18.1367261,205.937497 16.6757812,206.5625 C15.2148364,207.187503 13.6562583,207.5 12,207.5 C10.3437417,207.5 8.78516355,207.187503 7.32421875,206.5625 C5.86327395,205.937497 4.58984918,205.082037 3.50390625,203.996094 C2.41796332,202.910151 1.56250313,201.636726 0.9375,200.175781 C0.312496875,198.714836 0,197.156258 0,195.5 C0,193.843742 0.312496875,192.285164 0.9375,190.824219 C1.56250313,189.363274 2.41796332,188.089849 3.50390625,187.003906 C4.58984918,185.917963 5.86327395,185.062503 7.32421875,184.4375 C8.78516355,183.812497 10.3437417,183.5 12,183.5 Z M12,206.023438 C13.4531323,206.023438 14.8163999,205.746097 16.0898438,205.191406 C17.3632876,204.636716 18.4726515,203.882817 19.4179688,202.929688 C20.363286,201.976558 21.1132785,200.863288 21.6679688,199.589844 C22.222659,198.3164 22.5,196.953132 22.5,195.5 C22.5,194.046868 22.222659,192.6836 21.6679688,191.410156 C21.1132785,190.136712 20.363286,189.027348 19.4179688,188.082031 C18.4726515,187.136714 17.3632876,186.386722 16.0898438,185.832031 C14.8163999,185.277341 13.4531323,185 12,185 C10.5468677,185 9.18360012,185.277341 7.91015625,185.832031 C6.63671238,186.386722 5.52734848,187.136714 4.58203125,188.082031 C3.63671402,189.027348 2.88672152,190.136712 2.33203125,191.410156 C1.77734098,192.6836 1.5,194.046868 1.5,195.5 C1.5,196.953132 1.77734098,198.3164 2.33203125,199.589844 C2.88672152,200.863288 3.63671402,201.976558 4.58203125,202.929688 C5.52734848,203.882817 6.63671238,204.636716 7.91015625,205.191406 C9.18360012,205.746097 10.5468677,206.023438 12,206.023438 Z M16.78125,191.117188 C16.9375008,190.960937 17.1171865,190.882812 17.3203125,190.882812 C17.5234385,190.882812 17.7031242,190.960937 17.859375,191.117188 C18.0000007,191.257813 18.0703125,191.433593 18.0703125,191.644531 C18.0703125,191.85547 18.0000007,192.031249 17.859375,192.171875 L10.3828125,199.695312 L10.2890625,199.789062 C10.1484368,199.945313 9.9726573,200.023438 9.76171875,200.023438 C9.5507802,200.023438 9.3750007,199.945313 9.234375,199.789062 L5.5078125,196.085938 C5.3671868,195.945312 5.296875,195.769532 5.296875,195.558594 C5.296875,195.347655 5.3671868,195.171876 5.5078125,195.03125 C5.66406328,194.874999 5.84374898,194.796875 6.046875,194.796875 C6.25000102,194.796875 6.42968672,194.874999 6.5859375,195.03125 L9.75,198.195312 L16.78125,191.117188 Z" id="Check---simple-line-icons" opacity="0.391644022"></path>
                <path d="M1052,259.5 C1050.54687,259.5 1049.1836,259.695311 1047.91016,260.085938 C1046.63671,260.476564 1045.52735,261.011715 1044.58203,261.691406 C1043.63671,262.371097 1042.88672,263.167964 1042.33203,264.082031 C1041.77734,264.996098 1041.5,265.968745 1041.5,267 C1041.5,267.625003 1041.59375,268.230466 1041.78125,268.816406 C1041.96875,269.402347 1042.24219,269.953122 1042.60156,270.46875 C1042.96094,270.984378 1043.39843,271.464842 1043.91406,271.910156 C1044.42969,272.355471 1045.02343,272.742186 1045.69531,273.070312 L1046.51562,273.492188 L1046.51562,274.546875 L1046.49219,274.59375 C1046.49219,275.000002 1046.44531,275.402342 1046.35156,275.800781 C1046.25781,276.199221 1046.13281,276.585936 1045.97656,276.960938 C1046.67969,276.632811 1047.3125,276.253908 1047.875,275.824219 C1048.4375,275.394529 1048.78125,275.109376 1048.90625,274.96875 L1049.44531,274.3125 L1050.26562,274.429688 C1050.48438,274.460938 1050.67187,274.480469 1050.82812,274.488281 C1050.98438,274.496094 1051.16406,274.5 1051.36719,274.5 L1052,274.5 C1053.45313,274.5 1054.8164,274.304689 1056.08984,273.914062 C1057.36329,273.523436 1058.47265,272.988285 1059.41797,272.308594 C1060.36329,271.628903 1061.11328,270.832036 1061.66797,269.917969 C1062.22266,269.003902 1062.5,268.031255 1062.5,267 C1062.5,265.968745 1062.22266,264.996098 1061.66797,264.082031 C1061.11328,263.167964 1060.36329,262.371097 1059.41797,261.691406 C1058.47265,261.011715 1057.36329,260.476564 1056.08984,260.085938 C1054.8164,259.695311 1053.45313,259.5 1052,259.5 Z M1052,258 C1053.65626,258 1055.21484,258.234373 1056.67578,258.703125 C1058.13673,259.171877 1059.41015,259.816402 1060.49609,260.636719 C1061.58204,261.457035 1062.4375,262.410151 1063.0625,263.496094 C1063.6875,264.582037 1064,265.749994 1064,267 C1064,268.250006 1063.6875,269.417963 1063.0625,270.503906 C1062.4375,271.589849 1061.58204,272.542965 1060.49609,273.363281 C1059.41015,274.183598 1058.13673,274.828123 1056.67578,275.296875 C1055.21484,275.765627 1053.65626,276 1052,276 L1051.36719,276 C1051.14844,276 1050.94141,275.996094 1050.74609,275.988281 C1050.55078,275.980469 1050.32031,275.953125 1050.05469,275.90625 C1049.92969,276.062501 1049.6836,276.292967 1049.31641,276.597656 C1048.94922,276.902345 1048.51563,277.214842 1048.01562,277.535156 C1047.51562,277.85547 1046.97266,278.152342 1046.38672,278.425781 C1045.80078,278.69922 1045.21094,278.890624 1044.61719,279 L1044.42969,279 C1044.24219,279 1044.08203,278.933594 1043.94922,278.800781 C1043.81641,278.667968 1043.75,278.507813 1043.75,278.320312 C1043.75,278.273437 1043.75391,278.226563 1043.76172,278.179688 C1043.76953,278.132812 1043.78125,278.09375 1043.79688,278.0625 C1044.01563,277.671873 1044.26953,277.144535 1044.55859,276.480469 C1044.84766,275.816403 1044.99219,275.148441 1044.99219,274.476562 C1044.99219,274.460937 1044.99609,274.449219 1045.00391,274.441406 C1045.01172,274.433594 1045.01562,274.421875 1045.01562,274.40625 C1044.21875,273.999998 1043.50782,273.531253 1042.88281,273 C1042.25781,272.468747 1041.73438,271.886722 1041.3125,271.253906 C1040.89062,270.621091 1040.56641,269.949222 1040.33984,269.238281 C1040.11328,268.52734 1040,267.781254 1040,267 C1040,265.749994 1040.3125,264.582037 1040.9375,263.496094 C1041.5625,262.410151 1042.41796,261.457035 1043.50391,260.636719 C1044.58985,259.816402 1045.86327,259.171877 1047.32422,258.703125 C1048.78516,258.234373 1050.34374,258 1052,258 Z" id="Bubble---simple-line-icons" opacity="0.391644022"></path>
                <path d="M597.304688,371.726562 C597.492188,371.820313 597.625,371.960937 597.703125,372.148438 C597.78125,372.335938 597.773438,372.523437 597.679688,372.710938 C597.664062,372.757813 597.531251,373.00781 597.28125,373.460938 C597.031249,373.914065 596.636721,374.402341 596.097656,374.925781 C595.558591,375.449221 594.867192,375.929685 594.023438,376.367188 C593.179683,376.80469 592.156256,377.023438 590.953125,377.023438 C590.9375,377.023438 590.921875,377.027344 590.90625,377.035156 C590.890625,377.042969 590.875,377.046875 590.859375,377.046875 C589.718744,377.046875 588.738285,376.828127 587.917969,376.390625 C587.097652,375.953123 586.421878,375.472659 585.890625,374.949219 C585.359372,374.425779 584.964845,373.933596 584.707031,373.472656 C584.449217,373.011716 584.3125,372.765625 584.296875,372.734375 C584.203125,372.531249 584.191406,372.335938 584.261719,372.148438 C584.332032,371.960937 584.468749,371.820313 584.671875,371.726562 C584.859376,371.648437 585.046874,371.644531 585.234375,371.714844 C585.421876,371.785157 585.5625,371.914062 585.65625,372.101562 C585.671875,372.132813 585.785155,372.332029 585.996094,372.699219 C586.207032,373.066408 586.523435,373.457029 586.945312,373.871094 C587.36719,374.285158 587.902341,374.667967 588.550781,375.019531 C589.199222,375.371096 589.976558,375.546875 590.882812,375.546875 L590.90625,375.535156 C590.921875,375.527344 590.9375,375.523438 590.953125,375.523438 C591.906255,375.523438 592.722653,375.343752 593.402344,374.984375 C594.082035,374.624998 594.636717,374.234377 595.066406,373.8125 C595.496096,373.390623 595.812499,373.003908 596.015625,372.652344 C596.218751,372.300779 596.320312,372.117188 596.320312,372.101562 C596.398438,371.914062 596.535155,371.785157 596.730469,371.714844 C596.925782,371.644531 597.117187,371.648437 597.304688,371.726562 Z M591,357.5 C592.656258,357.5 594.214836,357.812497 595.675781,358.4375 C597.136726,359.062503 598.410151,359.917963 599.496094,361.003906 C600.582037,362.089849 601.437497,363.363274 602.0625,364.824219 C602.687503,366.285164 603,367.843742 603,369.5 C603,371.156258 602.687503,372.714836 602.0625,374.175781 C601.437497,375.636726 600.582037,376.910151 599.496094,377.996094 C598.410151,379.082037 597.136726,379.937497 595.675781,380.5625 C594.214836,381.187503 592.656258,381.5 591,381.5 C589.343742,381.5 587.785164,381.187503 586.324219,380.5625 C584.863274,379.937497 583.589849,379.082037 582.503906,377.996094 C581.417963,376.910151 580.562503,375.636726 579.9375,374.175781 C579.312497,372.714836 579,371.156258 579,369.5 C579,367.843742 579.312497,366.285164 579.9375,364.824219 C580.562503,363.363274 581.417963,362.089849 582.503906,361.003906 C583.589849,359.917963 584.863274,359.062503 586.324219,358.4375 C587.785164,357.812497 589.343742,357.5 591,357.5 Z M591,380 C592.453132,380 593.8164,379.722659 595.089844,379.167969 C596.363288,378.613278 597.472652,377.863286 598.417969,376.917969 C599.363286,375.972652 600.113278,374.863288 600.667969,373.589844 C601.222659,372.3164 601.5,370.953132 601.5,369.5 C601.5,368.046868 601.222659,366.6836 600.667969,365.410156 C600.113278,364.136712 599.363286,363.027348 598.417969,362.082031 C597.472652,361.136714 596.363288,360.386722 595.089844,359.832031 C593.8164,359.277341 592.453132,359 591,359 C589.546868,359 588.1836,359.277341 586.910156,359.832031 C585.636712,360.386722 584.527348,361.136714 583.582031,362.082031 C582.636714,363.027348 581.886722,364.136712 581.332031,365.410156 C580.777341,366.6836 580.5,368.046868 580.5,369.5 C580.5,370.953132 580.777341,372.3164 581.332031,373.589844 C581.886722,374.863288 582.636714,375.972652 583.582031,376.917969 C584.527348,377.863286 585.636712,378.613278 586.910156,379.167969 C588.1836,379.722659 589.546868,380 591,380 Z M587.25,368.75 C586.828123,368.75 586.472658,368.601564 586.183594,368.304688 C585.89453,368.007811 585.75,367.656252 585.75,367.25 C585.75,366.843748 585.89453,366.492189 586.183594,366.195312 C586.472658,365.898436 586.828123,365.75 587.25,365.75 C587.656252,365.75 588.003905,365.898436 588.292969,366.195312 C588.582033,366.492189 588.726562,366.843748 588.726562,367.25 C588.726562,367.656252 588.582033,368.007811 588.292969,368.304688 C588.003905,368.601564 587.656252,368.75 587.25,368.75 Z M594.75,368.75 C594.328123,368.75 593.972658,368.601564 593.683594,368.304688 C593.39453,368.007811 593.25,367.656252 593.25,367.25 C593.25,366.843748 593.39453,366.492189 593.683594,366.195312 C593.972658,365.898436 594.328123,365.75 594.75,365.75 C595.156252,365.75 595.503905,365.898436 595.792969,366.195312 C596.082033,366.492189 596.226562,366.843748 596.226562,367.25 C596.226562,367.656252 596.082033,368.007811 595.792969,368.304688 C595.503905,368.601564 595.156252,368.75 594.75,368.75 Z" id="Emotsmile---simple-line-icons" opacity="0.391644022"></path>
                <path d="M952.945312,101.023438 L944.601562,112.179688 L950.742188,112.203125 L949.054688,121.976562 L957.398438,109.929688 L951.257812,109.90625 L952.945312,101.023438 Z M953.015625,99.5234375 C953.421877,99.5390626 953.765624,99.6914048 954.046875,99.9804688 C954.328126,100.269533 954.46875,100.617185 954.46875,101.023438 C954.46875,101.085938 954.464844,101.144531 954.457031,101.199219 C954.449219,101.253907 954.4375,101.3125 954.421875,101.375 L953.0625,108.429688 L957.398438,108.429688 C957.679689,108.429688 957.941405,108.503906 958.183594,108.652344 C958.425782,108.800782 958.609374,108.999999 958.734375,109.25 C958.859376,109.500001 958.910156,109.765624 958.886719,110.046875 C958.863281,110.328126 958.773438,110.585936 958.617188,110.820312 L950.203125,122.867188 C950.046874,123.070314 949.875001,123.222656 949.6875,123.324219 C949.499999,123.425782 949.289064,123.476562 949.054688,123.476562 C948.945312,123.476562 948.839844,123.46875 948.738281,123.453125 C948.636718,123.4375 948.539063,123.40625 948.445312,123.359375 C948.132811,123.218749 947.890626,122.996095 947.71875,122.691406 C947.546874,122.386717 947.492187,122.062502 947.554688,121.71875 L948.9375,113.679688 L944.601562,113.65625 C944.320311,113.65625 944.058595,113.582032 943.816406,113.433594 C943.574218,113.285156 943.390626,113.085939 943.265625,112.835938 C943.140624,112.585936 943.089844,112.320314 943.113281,112.039062 C943.136719,111.757811 943.226562,111.500001 943.382812,111.265625 L951.796875,100.15625 C951.8125,100.140625 951.824219,100.125 951.832031,100.109375 C951.839844,100.09375 951.851562,100.078125 951.867188,100.0625 C951.914063,99.9999997 951.964843,99.9453127 952.019531,99.8984375 C952.074219,99.8515623 952.132812,99.8125002 952.195312,99.78125 C952.289063,99.7031246 952.386718,99.6445314 952.488281,99.6054688 C952.589844,99.5664061 952.703124,99.5390626 952.828125,99.5234375 L953.015625,99.5234375 Z" id="Energy---simple-line-icons" opacity="0.391644022"></path>
                <path d="M165,582.5 C166.656258,582.5 168.214836,582.812497 169.675781,583.4375 C171.136726,584.062503 172.410151,584.917963 173.496094,586.003906 C174.582037,587.089849 175.437497,588.363274 176.0625,589.824219 C176.687503,591.285164 177,592.843742 177,594.5 C177,596.156258 176.687503,597.714836 176.0625,599.175781 C175.437497,600.636726 174.582037,601.910151 173.496094,602.996094 C172.410151,604.082037 171.136726,604.937497 169.675781,605.5625 C168.214836,606.187503 166.656258,606.5 165,606.5 C163.343742,606.5 161.785164,606.187503 160.324219,605.5625 C158.863274,604.937497 157.589849,604.082037 156.503906,602.996094 C155.417963,601.910151 154.562503,600.636726 153.9375,599.175781 C153.312497,597.714836 153,596.156258 153,594.5 C153,592.843742 153.312497,591.285164 153.9375,589.824219 C154.562503,588.363274 155.417963,587.089849 156.503906,586.003906 C157.589849,584.917963 158.863274,584.062503 160.324219,583.4375 C161.785164,582.812497 163.343742,582.5 165,582.5 Z M165,605.023438 C166.453132,605.023438 167.8164,604.746097 169.089844,604.191406 C170.363288,603.636716 171.472652,602.882817 172.417969,601.929688 C173.363286,600.976558 174.113278,599.863288 174.667969,598.589844 C175.222659,597.3164 175.5,595.953132 175.5,594.5 C175.5,593.046868 175.222659,591.6836 174.667969,590.410156 C174.113278,589.136712 173.363286,588.027348 172.417969,587.082031 C171.472652,586.136714 170.363288,585.386722 169.089844,584.832031 C167.8164,584.277341 166.453132,584 165,584 C163.546868,584 162.1836,584.277341 160.910156,584.832031 C159.636712,585.386722 158.527348,586.136714 157.582031,587.082031 C156.636714,588.027348 155.886722,589.136712 155.332031,590.410156 C154.777341,591.6836 154.5,593.046868 154.5,594.5 C154.5,595.953132 154.777341,597.3164 155.332031,598.589844 C155.886722,599.863288 156.636714,600.976558 157.582031,601.929688 C158.527348,602.882817 159.636712,603.636716 160.910156,604.191406 C162.1836,604.746097 163.546868,605.023438 165,605.023438 Z M169.78125,590.117188 C169.937501,589.960937 170.117186,589.882812 170.320312,589.882812 C170.523439,589.882812 170.703124,589.960937 170.859375,590.117188 C171.000001,590.257813 171.070312,590.433593 171.070312,590.644531 C171.070312,590.85547 171.000001,591.031249 170.859375,591.171875 L163.382812,598.695312 L163.289062,598.789062 C163.148437,598.945313 162.972657,599.023438 162.761719,599.023438 C162.55078,599.023438 162.375001,598.945313 162.234375,598.789062 L158.507812,595.085938 C158.367187,594.945312 158.296875,594.769532 158.296875,594.558594 C158.296875,594.347655 158.367187,594.171876 158.507812,594.03125 C158.664063,593.874999 158.843749,593.796875 159.046875,593.796875 C159.250001,593.796875 159.429687,593.874999 159.585938,594.03125 L162.75,597.195312 L169.78125,590.117188 Z" id="Check---simple-line-icons" opacity="0.391644022"></path>
                <path d="M1211,601.5 C1209.54687,601.5 1208.1836,601.695311 1206.91016,602.085938 C1205.63671,602.476564 1204.52735,603.011715 1203.58203,603.691406 C1202.63671,604.371097 1201.88672,605.167964 1201.33203,606.082031 C1200.77734,606.996098 1200.5,607.968745 1200.5,609 C1200.5,609.625003 1200.59375,610.230466 1200.78125,610.816406 C1200.96875,611.402347 1201.24219,611.953122 1201.60156,612.46875 C1201.96094,612.984378 1202.39843,613.464842 1202.91406,613.910156 C1203.42969,614.355471 1204.02343,614.742186 1204.69531,615.070312 L1205.51562,615.492188 L1205.51562,616.546875 L1205.49219,616.59375 C1205.49219,617.000002 1205.44531,617.402342 1205.35156,617.800781 C1205.25781,618.199221 1205.13281,618.585936 1204.97656,618.960938 C1205.67969,618.632811 1206.3125,618.253908 1206.875,617.824219 C1207.4375,617.394529 1207.78125,617.109376 1207.90625,616.96875 L1208.44531,616.3125 L1209.26562,616.429688 C1209.48438,616.460938 1209.67187,616.480469 1209.82812,616.488281 C1209.98438,616.496094 1210.16406,616.5 1210.36719,616.5 L1211,616.5 C1212.45313,616.5 1213.8164,616.304689 1215.08984,615.914062 C1216.36329,615.523436 1217.47265,614.988285 1218.41797,614.308594 C1219.36329,613.628903 1220.11328,612.832036 1220.66797,611.917969 C1221.22266,611.003902 1221.5,610.031255 1221.5,609 C1221.5,607.968745 1221.22266,606.996098 1220.66797,606.082031 C1220.11328,605.167964 1219.36329,604.371097 1218.41797,603.691406 C1217.47265,603.011715 1216.36329,602.476564 1215.08984,602.085938 C1213.8164,601.695311 1212.45313,601.5 1211,601.5 Z M1211,600 C1212.65626,600 1214.21484,600.234373 1215.67578,600.703125 C1217.13673,601.171877 1218.41015,601.816402 1219.49609,602.636719 C1220.58204,603.457035 1221.4375,604.410151 1222.0625,605.496094 C1222.6875,606.582037 1223,607.749994 1223,609 C1223,610.250006 1222.6875,611.417963 1222.0625,612.503906 C1221.4375,613.589849 1220.58204,614.542965 1219.49609,615.363281 C1218.41015,616.183598 1217.13673,616.828123 1215.67578,617.296875 C1214.21484,617.765627 1212.65626,618 1211,618 L1210.36719,618 C1210.14844,618 1209.94141,617.996094 1209.74609,617.988281 C1209.55078,617.980469 1209.32031,617.953125 1209.05469,617.90625 C1208.92969,618.062501 1208.6836,618.292967 1208.31641,618.597656 C1207.94922,618.902345 1207.51563,619.214842 1207.01562,619.535156 C1206.51562,619.85547 1205.97266,620.152342 1205.38672,620.425781 C1204.80078,620.69922 1204.21094,620.890624 1203.61719,621 L1203.42969,621 C1203.24219,621 1203.08203,620.933594 1202.94922,620.800781 C1202.81641,620.667968 1202.75,620.507813 1202.75,620.320312 C1202.75,620.273437 1202.75391,620.226563 1202.76172,620.179688 C1202.76953,620.132812 1202.78125,620.09375 1202.79688,620.0625 C1203.01563,619.671873 1203.26953,619.144535 1203.55859,618.480469 C1203.84766,617.816403 1203.99219,617.148441 1203.99219,616.476562 C1203.99219,616.460937 1203.99609,616.449219 1204.00391,616.441406 C1204.01172,616.433594 1204.01562,616.421875 1204.01562,616.40625 C1203.21875,615.999998 1202.50782,615.531253 1201.88281,615 C1201.25781,614.468747 1200.73438,613.886722 1200.3125,613.253906 C1199.89062,612.621091 1199.56641,611.949222 1199.33984,611.238281 C1199.11328,610.52734 1199,609.781254 1199,609 C1199,607.749994 1199.3125,606.582037 1199.9375,605.496094 C1200.5625,604.410151 1201.41796,603.457035 1202.50391,602.636719 C1203.58985,601.816402 1204.86327,601.171877 1206.32422,600.703125 C1207.78516,600.234373 1209.34374,600 1211,600 Z" id="Bubble---simple-line-icons" opacity="0.391644022"></path>
            </g>
        </g>
    </g>
</svg>