<?xml version="1.0" encoding="UTF-8"?>
<svg width="209px" height="36px" viewBox="0 0 209 36" version="1.1" xmlns="http://www.w3.org/2000/svg" xmlns:xlink="http://www.w3.org/1999/xlink">
    <!-- Generator: Sketch 45.1 (43504) - http://www.bohemiancoding.com/sketch -->
    <title>Group 9</title>
    <desc>Created with Sketch.</desc>
    <defs></defs>
    <g id="Page-5" stroke="none" stroke-width="1" fill="none" fill-rule="evenodd">
        <g id="Landing" transform="translate(-142.000000, -61.000000)" fill="#177ACD">
            <g id="Group-20" transform="translate(142.000000, 61.000000)">
                <g id="Page-1" transform="translate(0.000000, 0.052632)">
                    <g id="Group-9">
                        <path d="M19.0319915,33.1584905 L17.3259099,35.7893975 L15.6190741,33.1584905 C8.56701847,32.3650302 2.96918538,26.7121971 2.18419929,19.5463068 L3.77034594e-05,17.8455454 L2.18419929,16.1451646 C2.96993945,9.02382083 8.5673955,3.37136842 15.6190741,2.57790817 L17.3029107,-7.61478163e-05 L18.9871244,2.57790817 C26.0829161,3.37136842 31.6811262,9.02382083 32.4668664,16.1451646 L35.0197678,17.8455454 L32.4668664,19.5463068 C31.6818803,26.7121971 26.0829161,32.3650302 19.0319915,33.1584905 M17.0826065,7.15781859 C11.1247642,7.15781859 6.29361569,11.9653385 6.29361569,17.8944821 C6.29361569,23.8239829 11.125123,28.6315028 17.0826065,28.6315028 C23.0408077,28.6315028 27.8715973,23.8239829 27.8715973,17.8944821 C27.8715973,11.9653385 23.0408077,7.15781859 17.0826065,7.15781859" id="Fill-1"></path>
                        <path d="M78.1748853,5.53799342 L68.5983228,5.53799342 L68.5983228,31.9473684 L63.3037916,31.9473684 L63.3037916,5.53799342 L53.8116041,5.53799342 L53.8116041,1.23486842 L78.1748853,1.23486842 L78.1748853,5.53799342 Z M92.7014478,31.9473684 C92.4764467,31.5114287 92.2795737,30.8012796 92.1108228,29.8168997 C90.4795647,31.5184707 88.4827096,32.3692434 86.1201978,32.3692434 C83.8279989,32.3692434 81.9577051,31.7153437 80.5092603,30.4075247 C79.0608156,29.0997056 78.3366041,27.4825343 78.3366041,25.5559622 C78.3366041,23.1231375 79.2401107,21.2563593 81.0471509,19.9555715 C82.8541912,18.6547838 85.4381498,18.0043997 88.7991041,18.0043997 L91.9420728,18.0043997 L91.9420728,16.5067434 C91.9420728,15.3254875 91.6116074,14.3797938 90.9506666,13.669634 C90.2897258,12.9594742 89.2842671,12.6043997 87.9342603,12.6043997 C86.767067,12.6043997 85.8108265,12.8961936 85.0655103,13.4797903 C84.3201941,14.063387 83.9475416,14.8051764 83.9475416,15.7051809 L78.8217603,15.7051809 C78.8217603,14.4536122 79.2365999,13.2829207 80.0662916,12.1930715 C80.8959832,11.1032223 82.0244876,10.248934 83.4518384,9.63018092 C84.8791893,9.01142783 86.4717515,8.70205592 88.2295728,8.70205592 C90.9014612,8.70205592 93.0319086,9.37353358 94.6209791,10.716509 C96.2100495,12.0594845 97.0256664,13.9473563 97.0678541,16.3801809 L97.0678541,26.6739309 C97.0678541,28.7270662 97.3561324,30.3653311 97.9326978,31.5887747 L97.9326978,31.9473684 L92.7014478,31.9473684 Z M87.0694166,28.2559622 C88.0819216,28.2559622 89.0346465,28.0098709 89.9276197,27.5176809 C90.8205929,27.025491 91.4920706,26.3645601 91.9420728,25.5348684 L91.9420728,21.2317434 L89.1787916,21.2317434 C87.2803446,21.2317434 85.8530151,21.5622089 84.8967603,22.2231497 C83.9405055,22.8840905 83.4623853,23.8192374 83.4623853,25.0286184 C83.4623853,26.0129983 83.7893352,26.7969749 84.4432447,27.3805715 C85.0971542,27.9641682 85.9725361,28.2559622 87.0694166,28.2559622 Z M116.129573,25.7458059 C116.129573,24.8317389 115.753405,24.1356521 115.001057,23.6575247 C114.24871,23.1793973 113.000675,22.7575265 111.256917,22.3918997 C109.513158,22.0262728 108.057704,21.562215 106.89051,20.9997122 C104.331123,19.762206 103.051448,17.9692552 103.051448,15.6208059 C103.051448,13.6520461 103.881127,12.00675 105.54051,10.6848684 C107.199894,9.36298681 109.309248,8.70205592 111.868635,8.70205592 C114.596774,8.70205592 116.801049,9.37704917 118.481526,10.7270559 C120.162003,12.0770627 121.002229,13.8278264 121.002229,15.9793997 L115.876448,15.9793997 C115.876448,14.9950197 115.510826,14.1758873 114.779573,13.5219778 C114.048319,12.8680683 113.078016,12.5411184 111.868635,12.5411184 C110.74363,12.5411184 109.826061,12.8012721 109.115901,13.3215872 C108.405741,13.8419023 108.050667,14.5379891 108.050667,15.4098684 C108.050667,16.1973724 108.381132,16.809085 109.042073,17.2450247 C109.703014,17.6809644 111.038938,18.1204131 113.049885,18.563384 C115.060833,19.006355 116.639333,19.5336935 117.785432,20.1454153 C118.931532,20.7571371 119.782304,21.4918954 120.337776,22.3497122 C120.893247,23.207529 121.170979,24.2481436 121.170979,25.4715872 C121.170979,27.5247224 120.320206,29.1875964 118.618635,30.460259 C116.917064,31.7329217 114.68818,32.3692434 111.931917,32.3692434 C110.061595,32.3692434 108.395205,32.0317468 106.932698,31.3567434 C105.470191,30.68174 104.331139,29.7536243 103.51551,28.5723684 C102.699881,27.3911125 102.292073,26.118469 102.292073,24.7543997 L107.270198,24.7543997 C107.340511,25.9637807 107.797537,26.895412 108.641292,27.5493215 C109.485046,28.2032311 110.603003,28.5301809 111.995198,28.5301809 C113.345205,28.5301809 114.371757,28.2735429 115.074885,27.760259 C115.778014,27.2469752 116.129573,26.5754976 116.129573,25.7458059 Z M131.352229,9.12393092 L131.499885,11.5075247 C133.103018,9.63720282 135.296746,8.70205592 138.081135,8.70205592 C141.132713,8.70205592 143.220973,9.86923175 144.345979,12.2036184 C146.005362,9.86923175 148.339714,8.70205592 151.349104,8.70205592 C153.866304,8.70205592 155.740114,9.39814271 156.970588,10.7903372 C158.201063,12.1825316 158.830354,14.2356361 158.858479,16.9497122 L158.858479,31.9473684 L153.732698,31.9473684 L153.732698,17.0973684 C153.732698,15.6489237 153.416295,14.5872155 152.783479,13.9122122 C152.150663,13.2372088 151.103018,12.8997122 149.64051,12.8997122 C148.473317,12.8997122 147.520592,13.2125997 146.782307,13.838384 C146.044022,14.4641684 145.527231,15.2833009 145.231917,16.2958059 L145.25301,31.9473684 L140.127229,31.9473684 L140.127229,16.9286184 C140.056916,14.2426675 138.685836,12.8997122 136.013948,12.8997122 C133.960813,12.8997122 132.505358,13.7364226 131.647542,15.4098684 L131.647542,31.9473684 L126.52176,31.9473684 L126.52176,9.12393092 L131.352229,9.12393092 Z M178.658479,31.9473684 C178.433478,31.5114287 178.236605,30.8012796 178.067854,29.8168997 C176.436596,31.5184707 174.439741,32.3692434 172.077229,32.3692434 C169.78503,32.3692434 167.914736,31.7153437 166.466292,30.4075247 C165.017847,29.0997056 164.293635,27.4825343 164.293635,25.5559622 C164.293635,23.1231375 165.197142,21.2563593 167.004182,19.9555715 C168.811222,18.6547838 171.395181,18.0043997 174.756135,18.0043997 L177.899104,18.0043997 L177.899104,16.5067434 C177.899104,15.3254875 177.568639,14.3797938 176.907698,13.669634 C176.246757,12.9594742 175.241298,12.6043997 173.891292,12.6043997 C172.724098,12.6043997 171.767858,12.8961936 171.022542,13.4797903 C170.277225,14.063387 169.904573,14.8051764 169.904573,15.7051809 L164.778792,15.7051809 C164.778792,14.4536122 165.193631,13.2829207 166.023323,12.1930715 C166.853014,11.1032223 167.981519,10.248934 169.40887,9.63018092 C170.836221,9.01142783 172.428783,8.70205592 174.186604,8.70205592 C176.858492,8.70205592 178.98894,9.37353358 180.57801,10.716509 C182.167081,12.0594845 182.982698,13.9473563 183.024885,16.3801809 L183.024885,26.6739309 C183.024885,28.7270662 183.313164,30.3653311 183.889729,31.5887747 L183.889729,31.9473684 L178.658479,31.9473684 Z M173.026448,28.2559622 C174.038953,28.2559622 174.991678,28.0098709 175.884651,27.5176809 C176.777624,27.025491 177.449102,26.3645601 177.899104,25.5348684 L177.899104,21.2317434 L175.135823,21.2317434 C173.237376,21.2317434 171.810046,21.5622089 170.853792,22.2231497 C169.897537,22.8840905 169.419417,23.8192374 169.419417,25.0286184 C169.419417,26.0129983 169.746366,26.7969749 170.400276,27.3805715 C171.054185,27.9641682 171.929567,28.2559622 173.026448,28.2559622 Z M194.049885,9.12393092 L194.197542,11.7606497 C195.88505,9.72157698 198.099872,8.70205592 200.842073,8.70205592 C205.595222,8.70205592 208.013947,11.4231225 208.098323,16.8653372 L208.098323,31.9473684 L202.972542,31.9473684 L202.972542,17.1606497 C202.972542,15.7122049 202.659654,14.63995 202.03387,13.9438528 C201.408085,13.2477556 200.385049,12.8997122 198.964729,12.8997122 C196.897531,12.8997122 195.357703,13.8348591 194.345198,15.7051809 L194.345198,31.9473684 L189.219417,31.9473684 L189.219417,9.12393092 L194.049885,9.12393092 Z" id="Tasman"></path>
                    </g>
                </g>
            </g>
        </g>
    </g>
</svg>