<?xml version="1.0" encoding="UTF-8"?>
<svg width="387px" height="299px" viewBox="0 0 387 299" version="1.1" xmlns="http://www.w3.org/2000/svg" xmlns:xlink="http://www.w3.org/1999/xlink">
    <!-- Generator: Sketch 45.1 (43504) - http://www.bohemiancoding.com/sketch -->
    <title>Group 23</title>
    <desc>Created with Sketch.</desc>
    <defs></defs>
    <g id="Page-5" stroke="none" stroke-width="1" fill="none" fill-rule="evenodd">
        <g id="Group-23" transform="translate(3.000000, 0.000000)">
            <path d="M263.859375,20.109375 C263.984376,20.3593763 264.0625,20.6171862 264.09375,20.8828125 C264.125,21.1484388 264.078126,21.4062488 263.953125,21.65625 C263.828124,21.9062513 263.648439,22.1015618 263.414062,22.2421875 C263.179686,22.3828132 262.921876,22.453125 262.640625,22.453125 L254.015625,22.78125 L248.71875,29.671875 C248.562499,29.8593759 248.382814,30.007812 248.179688,30.1171875 C247.976561,30.226563 247.750001,30.28125 247.5,30.28125 C247.46875,30.28125 247.4375,30.2734376 247.40625,30.2578125 C247.375,30.2421874 247.328125,30.234375 247.265625,30.234375 C247.015624,30.2031248 246.781251,30.1015634 246.5625,29.9296875 C246.343749,29.7578116 246.1875,29.5468763 246.09375,29.296875 L243.5625,22.359375 C243.53125,22.4218753 243.5,22.4765623 243.46875,22.5234375 C243.4375,22.5703127 243.390625,22.6249997 243.328125,22.6875 L218.484375,47.578125 C218.328124,47.7031256 218.156251,47.8046871 217.96875,47.8828125 C217.781249,47.9609379 217.593751,48 217.40625,48 C217.218749,48 217.031251,47.9609379 216.84375,47.8828125 C216.656249,47.8046871 216.484376,47.7031256 216.328125,47.578125 C216.046874,47.2656234 215.90625,46.906252 215.90625,46.5 C215.90625,46.093748 216.046874,45.7343766 216.328125,45.421875 L241.21875,20.578125 L241.359375,20.4375 L234.890625,18.140625 C234.640624,18.0468745 234.429688,17.8984385 234.257812,17.6953125 C234.085937,17.4921865 233.984375,17.2500014 233.953125,16.96875 C233.890625,16.6874986 233.914062,16.4218763 234.023438,16.171875 C234.132813,15.9218738 234.281249,15.7187508 234.46875,15.5625 L241.359375,10.171875 L241.59375,1.453125 C241.625,1.17187359 241.710937,0.921876094 241.851562,0.703125 C241.992188,0.484373906 242.187499,0.312500625 242.4375,0.1875 C242.687501,0.062499375 242.945311,0.00781242188 243.210938,0.0234375 C243.476564,0.0390625781 243.718749,0.124999219 243.9375,0.28125 L251.203125,5.109375 L259.546875,2.671875 C259.828126,2.60937469 260.093749,2.60937469 260.34375,2.671875 C260.593751,2.73437531 260.828124,2.85937406 261.046875,3.046875 C261.234376,3.26562609 261.359375,3.49999875 261.421875,3.75 C261.484375,4.00000125 261.484375,4.26562359 261.421875,4.546875 L259.03125,12.9375 L263.859375,20.109375 Z M253.21875,19.828125 L259.921875,19.546875 L256.125,14.015625 C255.999999,13.8281241 255.921875,13.6250011 255.890625,13.40625 C255.859375,13.1874989 255.875,12.9687511 255.9375,12.75 L257.765625,6.328125 L251.34375,8.203125 C251.124999,8.26562531 250.906251,8.28125016 250.6875,8.25 C250.468749,8.21874984 250.265626,8.14062563 250.078125,8.015625 L244.546875,4.265625 L244.3125,10.96875 C244.3125,11.1875011 244.265625,11.3984365 244.171875,11.6015625 C244.078125,11.8046885 243.937501,11.9687494 243.75,12.09375 L238.5,16.21875 L244.78125,18.515625 C245.000001,18.5781253 245.187499,18.6874992 245.34375,18.84375 C245.500001,19.0000008 245.609375,19.1874989 245.671875,19.40625 L247.96875,25.6875 L252.09375,20.390625 C252.218751,20.2031241 252.382811,20.0625005 252.585938,19.96875 C252.789064,19.8749995 252.999999,19.828125 253.21875,19.828125 Z" id="Magic-wand---simple-line-icons" fill="#177ACD" opacity="0.391644022"></path>
            <path d="M332,299 C331.531248,299 331.078127,298.914063 330.640625,298.742188 C330.203123,298.570312 329.812502,298.312502 329.46875,297.96875 L309.03125,277.484375 C308.343747,276.796872 308,275.960942 308,274.976562 C308,273.992183 308.343747,273.156253 309.03125,272.46875 L316.53125,264.96875 C316.750001,264.749999 317.023436,264.609375 317.351562,264.546875 C317.679689,264.484375 317.984374,264.531249 318.265625,264.6875 C318.546876,264.843751 318.765624,265.070311 318.921875,265.367188 C319.078126,265.664064 319.125,265.968748 319.0625,266.28125 C319,266.500001 318.960938,266.695312 318.945312,266.867188 C318.929687,267.039063 318.921875,267.203124 318.921875,267.359375 C318.921875,269.015633 319.507807,270.437494 320.679688,271.625 C321.851568,272.812506 323.249992,273.40625 324.875,273.40625 C326.531258,273.40625 327.898432,272.812506 328.976562,271.625 C330.054693,270.437494 330.59375,269.015633 330.59375,267.359375 C330.59375,265.734367 330.054693,264.335943 328.976562,263.164062 C327.898432,261.992182 326.531258,261.40625 324.875,261.40625 C324.718749,261.40625 324.554688,261.414062 324.382812,261.429688 C324.210937,261.445313 324.015626,261.484375 323.796875,261.546875 C323.484373,261.609375 323.179689,261.562501 322.882812,261.40625 C322.585936,261.249999 322.359376,261.031251 322.203125,260.75 C322.078124,260.468749 322.039062,260.164064 322.085938,259.835938 C322.132813,259.507811 322.265624,259.234376 322.484375,259.015625 L329.46875,251.984375 C330.156253,251.328122 330.999995,251 332,251 C333.000005,251 333.843747,251.328122 334.53125,251.984375 L339.640625,257.140625 C340.171878,255.453117 341.156243,254.070318 342.59375,252.992188 C344.031257,251.914057 345.656241,251.375 347.46875,251.375 C349.750011,251.375 351.695304,252.187492 353.304688,253.8125 C354.914071,255.437508 355.71875,257.374989 355.71875,259.625 C355.71875,261.468759 355.179693,263.109368 354.101562,264.546875 C353.023432,265.984382 351.656258,266.968747 350,267.5 L354.96875,272.46875 C355.656253,273.156253 356,273.992183 356,274.976562 C356,275.960942 355.656253,276.796872 354.96875,277.484375 L334.53125,297.96875 C334.187498,298.312502 333.796877,298.570312 333.359375,298.742188 C332.921873,298.914063 332.468752,299 332,299 Z M316.203125,269.515625 L311.140625,274.578125 C311.015624,274.703126 310.960937,274.843749 310.976562,275 C310.992188,275.156251 311.046875,275.28125 311.140625,275.375 L331.578125,295.859375 C331.734376,295.984376 331.874999,296.046875 332,296.046875 C332.125001,296.046875 332.265624,295.984376 332.421875,295.859375 L352.859375,275.375 C352.953125,275.28125 353,275.156251 353,275 C353,274.843749 352.953125,274.703126 352.859375,274.578125 L345.640625,267.359375 C345.421874,267.140624 345.28125,266.875002 345.21875,266.5625 C345.15625,266.249998 345.203124,265.953126 345.359375,265.671875 C345.484376,265.390624 345.687499,265.171876 345.96875,265.015625 C346.250001,264.859374 346.546873,264.796875 346.859375,264.828125 L347.09375,264.828125 C347.15625,264.859375 347.21875,264.875 347.28125,264.875 L347.46875,264.875 C348.937507,264.875 350.179682,264.367193 351.195312,263.351562 C352.210943,262.335932 352.71875,261.093757 352.71875,259.625 C352.71875,258.187493 352.210943,256.95313 351.195312,255.921875 C350.179682,254.89062 348.937507,254.375 347.46875,254.375 C346.031243,254.375 344.79688,254.89062 343.765625,255.921875 C342.73437,256.95313 342.21875,258.187493 342.21875,259.625 C342.21875,259.6875 342.226562,259.75 342.242188,259.8125 C342.257813,259.875 342.265625,259.9375 342.265625,260 L342.3125,260.28125 C342.34375,260.593752 342.281251,260.890624 342.125,261.171875 C341.968749,261.453126 341.750001,261.656249 341.46875,261.78125 C341.187499,261.906251 340.890627,261.945313 340.578125,261.898438 C340.265623,261.851562 340.000001,261.718751 339.78125,261.5 L332.421875,254.140625 C332.265624,253.984374 332.125001,253.90625 332,253.90625 C331.874999,253.90625 331.734376,253.984374 331.578125,254.140625 L327.03125,258.6875 C329.00001,259.156252 330.585931,260.195304 331.789062,261.804688 C332.992194,263.414071 333.59375,265.265615 333.59375,267.359375 C333.59375,269.828137 332.757821,271.953116 331.085938,273.734375 C329.414054,275.515634 327.343762,276.40625 324.875,276.40625 C322.78124,276.40625 320.929696,275.750007 319.320312,274.4375 C317.710929,273.124993 316.671877,271.484385 316.203125,269.515625 Z" id="Puzzle---simple-line-icons" fill="#177ACD" opacity="0.391644022"></path>
            <polygon id="Polygon" stroke="#A2CAEC" stroke-width="5" stroke-linejoin="bevel" points="13.1513284 202 26.3026568 211.554999 21.2792963 227.015313 5.02336045 227.015313 1.73194792e-14 211.554999"></polygon>
            <path d="M373.616,156.04 C375.472009,156.520002 376.959994,157.031997 378.08,157.576 C379.616008,158.312004 380.783996,159.191995 381.584,160.216 C382.544005,161.464006 383.024,162.983991 383.024,164.776 C383.024,166.72801 382.336007,168.327994 380.96,169.576 C379.743994,170.696006 378.080011,171.463998 375.968,171.88 L375.968,176.2 L369.968,176.2 L369.968,171.88 C367.91999,171.431998 366.256006,170.600006 364.976,169.384 C363.567993,168.039993 362.800001,166.312011 362.672,164.2 L367.088,164.2 C367.152,165.480006 367.631996,166.471996 368.528,167.176 C369.552005,168.008004 371.03999,168.424 372.992,168.424 C374.94401,168.424 376.399995,168.008004 377.36,167.176 C378.064004,166.535997 378.416,165.768004 378.416,164.872 C378.416,163.783995 378.032004,162.888004 377.264,162.184 C376.303995,161.255995 374.688011,160.520003 372.416,159.976 C369.407985,159.271996 367.152008,158.312006 365.648,157.096 C363.919991,155.687993 363.056,153.896011 363.056,151.72 C363.056,149.863991 363.727993,148.280007 365.072,146.968 C366.320006,145.751994 367.95199,144.936002 369.968,144.52 L369.968,140.2 L375.968,140.2 L375.968,144.616 C378.01601,145.096002 379.615994,146.055993 380.768,147.496 C381.824005,148.840007 382.384,150.407991 382.448,152.2 L378.032,152.2 C377.936,149.383986 376.256016,147.976 372.992,147.976 C371.327992,147.976 370.016005,148.319997 369.056,149.008 C368.095995,149.696003 367.616,150.599994 367.616,151.72 C367.616,152.680005 368.063996,153.495997 368.96,154.168 C369.856004,154.840003 371.407989,155.463997 373.616,156.04 Z" id="attach_money---material" fill="#177ACD" opacity="0.391644022"></path>
            <g id="Group-10" transform="translate(60.853535, 64.439321) rotate(-105.000000) translate(-60.853535, -64.439321) translate(47.853535, 49.439321)" stroke-linecap="round" stroke-width="4" stroke="#9DC3E2">
                <g id="Group-7">
                    <path d="M25.2474487,7.92893219 L0.752551286,22.0710678" id="Path-5"></path>
                    <path d="M13,0.857864376 L13,29.1421356" id="Path-5"></path>
                    <path d="M0.752551286,7.92893219 L25.2474487,22.0710678" id="Path-5"></path>
                </g>
            </g>
        </g>
    </g>
</svg>