<?xml version="1.0" encoding="UTF-8"?>
<svg width="157px" height="181px" viewBox="0 0 157 181" version="1.1" xmlns="http://www.w3.org/2000/svg" xmlns:xlink="http://www.w3.org/1999/xlink">
    <!-- Generator: Sketch 45.1 (43504) - http://www.bohemiancoding.com/sketch -->
    <title>Fill 4</title>
    <desc>Created with Sketch.</desc>
    <defs></defs>
    <g id="Page-5" stroke="none" stroke-width="1" fill="none" fill-rule="evenodd">
        <path d="M74.4621686,49.5565554 C70.9705019,52.9632221 67.4821686,56.3682221 63.9905019,59.7732221 L56.7338352,55.0665554 C54.9238352,53.8932221 52.3788352,54.6898887 51.3271686,56.4832221 C50.2005019,58.4065554 50.9421686,60.7198887 52.7471686,61.8898887 C55.9955019,63.9982221 59.2471686,66.1082221 62.4971686,68.2165554 C63.2688352,68.7182221 64.1755019,68.8565554 65.0438352,68.7148887 C65.8105019,68.6282221 66.5838352,68.2832221 67.2871686,67.5982221 C71.5421686,63.4482221 75.7955019,59.2965554 80.0521686,55.1448887 C83.7038352,51.5798887 78.1088352,45.9965554 74.4621686,49.5565554 M86.8488352,81.9898887 C85.3521686,83.9398887 83.6021686,85.7182221 81.6255019,87.2665554 C80.9921686,86.4298887 79.9921686,85.8532221 78.6205019,85.8532221 C75.4705019,85.8532221 74.2705019,88.8715554 75.0138352,91.1782221 C72.7988352,92.1098887 70.4921686,92.7065554 68.1588352,92.9982221 C68.2471686,92.6765554 68.2988352,92.3382221 68.2988352,91.9898887 L68.2988352,86.5132221 C68.2988352,84.3582221 66.5005019,82.5598887 64.3471686,82.5598887 C62.1938352,82.5598887 60.3938352,84.3582221 60.3938352,86.5132221 L60.3938352,91.9898887 C60.3938352,92.3015554 60.4355019,92.6065554 60.5088352,92.9015554 C58.0555019,92.5332221 55.6471686,91.8532221 53.3555019,90.8832221 C53.4538352,90.6548887 53.5471686,90.4248887 53.6455019,90.1965554 C53.8338352,89.4982221 53.8338352,88.7965554 53.6455019,88.0965554 C53.6321686,88.0065554 53.6221686,87.9182221 53.6071686,87.8298887 C53.4755019,87.5132221 53.3421686,87.2015554 53.2105019,86.8848887 C52.8571686,86.2932221 52.3855019,85.8215554 51.7905019,85.4682221 C50.8805019,84.9332221 49.7688352,84.7898887 48.7455019,85.0698887 C47.7971686,85.3298887 46.9721686,85.9548887 46.4488352,86.7882221 C44.7455019,85.4282221 43.1955019,83.8715554 41.8438352,82.1382221 C42.3671686,81.8015554 42.8121686,81.3448887 43.1321686,80.8015554 C43.1438352,80.7815554 43.1571686,80.7598887 43.1688352,80.7398887 C43.7055019,79.8282221 43.8471686,78.7115554 43.5671686,77.6948887 C43.2955019,76.7065554 42.6338352,75.8498887 41.7505019,75.3332221 C40.8388352,74.7998887 39.7255019,74.6548887 38.7071686,74.9348887 C38.4255019,75.0098887 38.1588352,75.1232221 37.9055019,75.2582221 C37.0455019,73.0832221 36.4721686,70.8332221 36.1721686,68.5098887 C36.4855019,68.5915554 36.8071686,68.6398887 37.1405019,68.6398887 L42.3371686,68.6398887 C44.4905019,68.6398887 46.2888352,66.8415554 46.2888352,64.6882221 C46.2888352,62.5332221 44.4905019,60.7365554 42.3371686,60.7365554 L37.1405019,60.7365554 C36.8221686,60.7365554 36.5121686,60.7782221 36.2155019,60.8532221 C36.5655019,58.4115554 37.2271686,56.0682221 38.1571686,53.8632221 C38.7188352,54.1715554 39.3571686,54.3465554 40.0305019,54.3465554 C42.1871686,54.3465554 43.9821686,52.5498887 43.9821686,50.3948887 C43.9821686,49.0315554 43.2621686,47.8132221 42.1905019,47.0998887 C43.7705019,45.1315554 45.6155019,43.3732221 47.6821686,41.8698887 C48.3071686,42.7798887 49.3421686,43.4148887 50.7838352,43.4148887 C53.8821686,43.4148887 55.0938352,40.4982221 54.4271686,38.2082221 C56.3238352,37.4815554 58.3238352,36.9315554 60.4105019,36.5965554 C60.4538352,36.5898887 60.4971686,36.5865554 60.5388352,36.5782221 C60.4488352,36.9082221 60.3938352,37.2498887 60.3938352,37.6065554 L60.3938352,43.0865554 C60.3938352,45.2382221 62.1938352,47.0382221 64.3471686,47.0382221 C66.5005019,47.0382221 68.2988352,45.2382221 68.2988352,43.0865554 L68.2988352,37.6065554 C68.2988352,37.2532221 68.2455019,36.9115554 68.1555019,36.5832221 C70.4538352,36.9215554 72.7355019,37.5465554 74.9221686,38.4282221 C74.7621686,38.8548887 74.6688352,39.3132221 74.6688352,39.7932221 C74.6688352,41.9465554 76.4655019,43.7448887 78.6205019,43.7448887 C79.8538352,43.7448887 80.9688352,43.1515554 81.6988352,42.2432221 C83.5888352,43.6932221 85.2905019,45.4148887 86.7655019,47.3232221 C85.8605019,48.0548887 85.2738352,49.1665554 85.2738352,50.3948887 C85.2738352,52.5498887 87.0721686,54.3465554 89.2255019,54.3465554 C89.7338352,54.3465554 90.2205019,54.2448887 90.6688352,54.0632221 C91.0021686,54.8698887 91.3005019,55.6915554 91.5538352,56.5182221 C91.9971686,57.9615554 92.3105019,59.4115554 92.5138352,60.8615554 C92.2055019,60.7815554 91.8821686,60.7365554 91.5521686,60.7365554 L86.5905019,60.7365554 C84.4371686,60.7365554 82.6388352,62.5332221 82.6388352,64.6882221 C82.6388352,66.8415554 84.4371686,68.6398887 86.5905019,68.6398887 L91.5521686,68.6398887 C91.8838352,68.6398887 92.2055019,68.5915554 92.5155019,68.5132221 C92.1921686,70.8498887 91.5788352,73.1332221 90.6888352,75.3048887 C90.3438352,75.2098887 89.9688352,75.1532221 89.5571686,75.1532221 C85.6338352,75.1532221 84.7321686,79.8315554 86.8488352,81.9898887 M94.9638352,84.3382221 C103.847169,70.8048887 101.922169,52.7098887 91.5005019,40.6548887 C80.9005019,28.4015554 63.0088352,25.3715554 48.5605019,32.0682221 C36.0255019,37.8748887 28.1121686,51.1232221 28.0171686,64.7815554 C28.1271686,80.7765554 38.7071686,94.9148887 53.9821686,99.6098887 C69.4105019,104.349889 86.2255019,97.6498887 94.9638352,84.3382221 M155.878835,99.0082221 C153.620502,92.8615554 150.285502,87.1098887 147.507169,81.1915554 C145.943835,77.8648887 144.825502,75.2932221 143.642169,71.7615554 C143.143835,70.2798887 142.727169,68.7732221 142.395502,67.2465554 C142.317169,66.8882221 142.253835,66.5315554 142.190502,66.1732221 C142.178835,66.1082221 142.133835,65.7715554 142.107169,65.5832221 C142.022169,64.7632221 141.998835,63.9365554 141.950502,63.1115554 C141.070502,48.3748887 135.777169,34.2948887 126.090502,23.0932221 C106.848835,0.851555386 71.8255019,-5.66177795 44.9738352,5.02488872 C30.9305019,10.6165554 19.0221686,20.5298887 10.8988352,33.2715554 C2.56883523,46.3348887 -1.33616477,62.5382221 0.408835234,77.9532221 C2.3405019,95.0098887 10.7971686,110.579889 21.9455019,123.389889 C24.2371686,126.021555 26.6855019,128.519889 29.2538352,130.883222 C30.3538352,131.894889 31.4871686,132.873222 32.6405019,133.823222 C32.9805019,134.104889 34.1988352,135.336555 33.8305019,134.626555 C33.8305019,134.626555 33.8321686,134.626555 33.8338352,134.629889 C33.9871686,134.901555 34.4171686,135.846555 34.4721686,135.938222 C34.8705019,136.944889 35.2038352,137.979889 35.5005019,139.019889 C36.5821686,142.814889 36.9271686,146.241555 37.0255019,150.203222 C37.1721686,156.218222 35.7788352,162.038222 33.7171686,167.656555 C33.5121686,168.211555 33.2971686,168.763222 33.0788352,169.311555 C32.9855019,169.541555 32.8921686,169.771555 32.7988352,169.999889 C32.7721686,170.056555 32.7405019,170.131555 32.6988352,170.228222 C32.3105019,171.129889 31.8955019,172.023222 31.4638352,172.906555 C31.1055019,173.639889 30.7388352,174.373222 30.3305019,175.081555 C27.8038352,179.518222 34.6338352,183.496555 37.1571686,179.071555 C44.3938352,166.386555 47.0621686,150.729889 43.0288352,136.589889 C42.4555019,134.578222 41.6955019,132.563222 40.7021686,130.719889 C39.6821686,128.824889 37.2988352,127.489889 35.7005019,126.071555 C30.3588352,121.331555 25.5805019,115.899889 21.5971686,110.231555 C16.9105019,103.561555 13.1088352,96.2982221 10.6671686,88.5382221 C8.17216857,80.6032221 7.4405019,72.4748887 8.25383523,64.1998887 C8.89216857,57.7382221 11.1338352,49.9832221 13.9388352,44.0932221 C17.0805019,37.4915554 20.9905019,31.9932221 25.9355019,26.9215554 C30.9588352,21.7665554 36.3155019,17.9082221 42.8488352,14.5882221 C48.7238352,11.5998887 56.3455019,9.28822205 62.7755019,8.47822205 C66.5805019,7.99822205 70.4155019,7.90488872 74.2455019,8.03822205 C76.0588352,8.09988872 77.8688352,8.23655539 79.6738352,8.41822205 C81.6238352,8.61488872 82.7005019,8.77988872 84.7621686,9.15322205 C91.7505019,10.4148887 98.1788352,12.5915554 104.078835,15.7032221 C106.997169,17.2432221 109.775502,19.0365554 112.412169,21.0198887 C112.400502,21.0165554 113.045502,21.5182221 113.037169,21.5115554 C113.348835,21.7582221 113.657169,22.0165554 113.962169,22.2715554 C114.575502,22.7832221 115.175502,23.3115554 115.765502,23.8448887 C117.047169,25.0048887 118.263835,26.2315554 119.437169,27.4965554 C121.852169,30.0998887 123.228835,31.9415554 125.138835,34.9365554 C126.012169,36.3015554 126.810502,37.7132221 127.563835,39.1448887 C128.283835,40.5065554 129.232169,42.5732221 129.580502,43.4215554 C132.345502,50.1748887 133.730502,57.1298887 134.100502,64.0348887 C134.485502,71.2298887 137.333835,77.9148887 140.310502,84.3798887 C141.798835,87.6148887 143.398835,90.7932221 144.977169,93.9848887 C145.640502,95.3332221 146.300502,96.6832221 146.935502,98.0465554 C147.220502,98.6532221 147.493835,99.2615554 147.763835,99.8732221 C147.788835,99.9332221 147.810502,99.9782221 147.828835,100.018222 C147.833835,100.033222 147.837169,100.041555 147.843835,100.059889 C147.987169,100.406555 148.123835,100.758222 148.257169,101.109889 C148.317169,101.261555 148.370502,101.416555 148.423835,101.573222 C147.127169,101.598222 145.828835,101.524889 144.533835,101.474889 C142.208835,101.384889 139.492169,101.171555 137.290502,102.053222 C135.917169,102.603222 134.533835,103.403222 133.895502,104.824889 C132.968835,106.888222 133.317169,109.073222 133.412169,111.274889 C133.513835,113.571555 133.632169,115.876555 133.742169,118.181555 L119.198835,118.181555 C114.102169,118.181555 114.102169,126.084889 119.198835,126.084889 L134.030502,126.084889 C134.098835,129.683222 134.055502,133.281555 133.768835,136.866555 C133.735502,137.284889 133.693835,137.704889 133.650502,138.123222 C133.648835,138.141555 133.575502,138.721555 133.557169,138.888222 C133.455502,139.558222 133.333835,140.221555 133.193835,140.886555 C133.052169,141.549889 132.873835,142.204889 132.668835,142.853222 C132.613835,143.034889 132.548835,143.213222 132.483835,143.391555 C132.555502,143.168222 132.228835,143.949889 132.145502,144.104889 C132.027169,144.329889 131.890502,144.544889 131.750502,144.759889 C131.742169,144.769889 131.737169,144.773222 131.727169,144.786555 C131.655502,144.866555 131.580502,144.939889 131.505502,145.013222 C131.430502,145.073222 131.338835,145.141555 131.263835,145.186555 C131.067169,145.244889 130.863835,145.286555 130.663835,145.324889 C129.468835,145.548222 128.237169,145.603222 127.027169,145.668222 C118.743835,146.123222 111.010502,143.604889 102.773835,143.331555 C99.6371686,143.226555 95.8871686,143.714889 93.4438352,145.859889 C91.9305019,147.188222 91.3871686,149.548222 91.0271686,151.436555 C89.9938352,156.833222 89.8788352,162.439889 89.7855019,167.918222 C89.7355019,170.968222 89.7321686,174.024889 89.8038352,177.078222 C89.9238352,182.164889 97.8288352,182.178222 97.7071686,177.078222 C97.6288352,173.813222 97.6421686,170.541555 97.7005019,167.276555 C97.7521686,164.493222 97.8538352,161.711555 98.0438352,158.936555 C98.1305019,157.684889 98.2455019,156.436555 98.3871686,155.191555 C98.3955019,155.128222 98.4121686,155.001555 98.4288352,154.876555 C98.4571686,154.684889 98.4855019,154.489889 98.5155019,154.298222 C98.6055019,153.729889 98.7171686,153.164889 98.8421686,152.601555 C98.9121686,152.288222 98.9971686,151.976555 99.0871686,151.666555 C99.3021686,151.593222 99.5505019,151.501555 99.6271686,151.481555 C99.8555019,151.419889 100.088835,151.374889 100.320502,151.331555 C99.9688352,151.399889 100.813835,151.273222 100.937169,151.264889 C101.673835,151.208222 102.417169,151.221555 103.157169,151.248222 C105.038835,151.309889 106.477169,151.536555 107.945502,151.758222 C112.253835,152.413222 116.545502,153.164889 120.895502,153.488222 C123.127169,153.653222 125.368835,153.663222 127.603835,153.541555 C129.632169,153.428222 131.983835,153.389889 133.885502,152.619889 C140.355502,150.001555 141.298835,142.093222 141.738835,135.999889 C142.358835,127.423222 141.635502,118.754889 141.268835,110.183222 C141.257169,109.899889 141.242169,109.618222 141.227169,109.336555 C141.248835,109.333222 141.272169,109.333222 141.295502,109.333222 C143.765502,109.238222 146.237169,109.519889 148.708835,109.469889 C151.573835,109.413222 154.463835,108.824889 156.132169,106.274889 C157.533835,104.129889 156.685502,101.208222 155.878835,99.0082221" id="Fill-4" fill="#177ACD"></path>
    </g>
</svg>