<?xml version="1.0" encoding="UTF-8"?>
<svg width="160px" height="160px" viewBox="0 0 160 160" version="1.1" xmlns="http://www.w3.org/2000/svg" xmlns:xlink="http://www.w3.org/1999/xlink">
    <!-- Generator: Sketch 45.1 (43504) - http://www.bohemiancoding.com/sketch -->
    <title>Fill 1</title>
    <desc>Created with Sketch.</desc>
    <defs></defs>
    <g id="Page-5" stroke="none" stroke-width="1" fill="none" fill-rule="evenodd">
        <path d="M23.1612477,101.855266 C22.5520734,103.653431 23.8452844,105.657101 25.5920734,106.138569 C27.5032661,106.662606 29.2632661,105.501505 29.8739083,103.707743 C34.5197798,90.0284771 39.1641835,76.3506789 43.810055,62.6728807 C43.9862018,62.1561835 44.1608807,61.6409541 44.3355596,61.1257248 C53.4673028,64.3903119 62.6005138,67.6534312 71.7322569,70.9180183 C73.1223486,71.4141651 75.0027156,70.6259083 75.6632661,69.3180183 C80.5219817,59.7121468 85.3806972,50.1062752 90.237945,40.4989358 L115.249321,53.5807706 C117.047486,54.523156 118.872073,53.9345321 120.011156,52.3345321 C124.959413,45.3840734 129.906202,38.4365505 134.851523,31.4875596 C134.855927,31.6519633 134.861798,31.8178349 134.866202,31.9807706 C135.004183,36.4593028 141.966385,36.4725138 141.826936,31.9807706 C141.755009,29.6615046 141.683083,27.3437064 141.611156,25.0244404 C141.53189,22.4086606 142.224734,17.5954495 139.570789,16.0409541 C136.987303,14.5260917 133.217761,17.3517798 130.927853,18.5260917 C128.778862,19.629945 126.629872,20.7337982 124.480881,21.8361835 C122.794275,22.7037064 122.312807,25.0303119 123.233174,26.5980183 C124.229872,28.3007706 126.306936,28.7147156 127.995009,27.8471927 L129.470239,27.0897615 C124.960881,33.4266422 120.450055,39.7605872 115.940697,46.096 C107.456294,41.6571009 98.9718899,37.2182018 90.4860183,32.7807706 C88.8845505,31.9440734 86.6093211,32.2802202 85.7227156,34.0284771 C80.7964771,43.7737982 75.8673028,53.5161835 70.9395963,63.2600367 C61.6625321,59.9440734 52.3825321,56.6281101 43.1054679,53.3121468 C41.2397798,52.6457248 39.397578,54.0519633 38.8221651,55.7429725 C34.1777615,69.4207706 29.5318899,83.0971009 24.8889541,96.7778349 C24.3120734,98.468844 23.7366606,100.164257 23.1612477,101.855266 M16.864,142.865174 L16.864,142.853431 C16.903633,142.896 16.916844,142.913615 16.864,142.865174 M155.755743,141.768661 C153.991339,140.654532 152.225468,139.536 150.459596,138.420404 C147.744,136.702972 145.028404,134.988477 142.315743,133.271046 C138.508037,130.866642 135.018862,136.89233 138.801615,139.282055 C140.561615,140.394716 142.320147,141.507376 144.078679,142.618569 L16.864,142.618569 L16.864,15.1558165 C17.9751927,16.9143486 19.0878532,18.6728807 20.1990459,20.429945 C22.5887706,24.2126972 28.6159266,20.7249908 26.210055,16.9187523 C24.4926239,14.203156 22.7781284,11.4875596 21.0606972,8.77489908 C19.9803303,7.06187156 18.8970275,5.34737615 17.8137248,3.6372844 C16.7451009,1.94333945 15.7381284,-0.000146788991 13.383633,-0.000146788991 C11.0951927,-0.000146788991 10.0955596,1.82590826 9.0533578,3.47581651 C7.93629358,5.24168807 6.81922936,7.00755963 5.70216514,8.77489908 C3.98620183,11.4875596 2.27317431,14.203156 0.557211009,16.9187523 C-1.84866055,20.7249908 4.17555963,24.2126972 6.5652844,20.429945 C7.67794495,18.6728807 8.7906055,16.9143486 9.90326606,15.1558165 L9.90326606,137.337101 C9.90326606,138.963523 9.76675229,140.824807 9.89886239,142.600954 C9.54510092,142.606826 9.18840367,142.615633 8.8346422,142.615633 L3.48711927,142.615633 C-1.00168807,142.615633 -1.00168807,149.576367 3.48711927,149.576367 L7.6852844,149.576367 L9.81078899,149.576367 L9.81078899,156.038018 C9.81078899,160.525358 16.7715229,160.525358 16.7715229,156.038018 L16.7715229,151.051596 C16.7715229,150.587743 16.7920734,150.085725 16.8096881,149.56756 C17.2148257,149.580771 17.6258349,149.579303 18.0529908,149.579303 L144.078679,149.579303 L138.801615,152.915817 C135.018862,155.305541 138.508037,161.331229 142.315743,158.925358 C145.028404,157.209394 147.744,155.493431 150.459596,153.778936 C152.171156,152.695633 153.884183,151.61233 155.597211,150.530495 C157.289688,149.461872 159.233174,148.454899 159.233174,146.098936 C159.233174,143.811963 157.405651,142.810862 155.755743,141.768661 M139.766018,71.6725138 C137.181064,70.1591193 133.408587,72.9848073 131.120147,74.1605872 C128.972624,75.2644404 126.823633,76.3682936 124.674642,77.4721468 C122.988037,78.3382018 122.506569,80.6633394 123.426936,82.2339817 C124.423633,83.9352661 126.499229,84.3477431 128.188771,83.4802202 C128.646752,83.2453578 129.10767,83.0090275 129.565651,82.7726972 C122.921982,91.1734312 116.276844,99.5697615 109.630239,107.970495 C96.4295046,104.432881 83.2331743,100.895266 70.0324404,97.3591193 C68.3106055,96.8982018 66.5887706,96.4372844 64.8654679,95.9748991 C62.6181284,95.3730642 60.2151927,97.5983853 58.4698716,98.7330642 C51.1318899,103.506642 43.7939083,108.278752 36.4573945,113.050862 L24.7612477,120.660404 C23.1744587,121.69233 22.5197798,123.72389 23.5120734,125.419303 C24.436844,126.998752 26.6827156,127.703339 28.2739083,126.668477 C40.1329908,118.956183 51.9906055,111.24389 63.8482202,103.531596 C64.0728073,103.383339 64.2973945,103.23655 64.5234495,103.092697 C77.9531743,106.689028 91.384367,110.289761 104.814092,113.886092 C106.54033,114.349945 108.266569,114.810862 109.991339,115.273248 C111.081982,115.568294 112.62767,115.324624 113.377761,114.377835 C120.598312,105.251963 127.82033,96.1246239 135.040881,86.9987523 C135.046752,87.2042569 135.052624,87.4097615 135.059963,87.6152661 C135.197945,92.0937982 142.160147,92.1055413 142.020697,87.6152661 C141.948771,85.296 141.876844,82.9767339 141.804917,80.6604037 C141.724183,78.043156 142.418495,73.2270092 139.766018,71.6725138" id="Fill-1" fill="#207CCA"></path>
    </g>
</svg>